<?xml version="1.0" encoding="UTF-8"?>
<svg xmlns="http://www.w3.org/2000/svg" xmlns:xlink="http://www.w3.org/1999/xlink" width="39pt" height="32pt" viewBox="0 0 39 32" version="1.1">
<g id="surface1">
<path style=" stroke:none;fill-rule:nonzero;fill:rgb(0%,0%,0%);fill-opacity:1;" d="M 21.207031 0.0351562 C 20.335938 0.144531 19.730469 0.582031 19.339844 1.382812 C 19.203125 1.660156 19.089844 1.992188 18.882812 2.71875 C 18.632812 3.585938 18.5 3.914062 18.25 4.285156 C 18.101562 4.507812 17.957031 4.644531 17.816406 4.703125 C 17.707031 4.75 17.691406 4.75 17.621094 4.703125 C 17.46875 4.601562 17.417969 4.324219 17.492188 3.96875 C 17.511719 3.878906 17.613281 3.578125 17.722656 3.300781 C 18.019531 2.539062 18.078125 2.285156 18.082031 1.738281 C 18.082031 1.339844 18.074219 1.261719 18.011719 1.0625 C 17.929688 0.800781 17.761719 0.527344 17.582031 0.339844 L 17.457031 0.214844 L 17.160156 0.375 C 15.566406 1.25 14.808594 2.339844 14.808594 3.746094 C 14.808594 4.339844 14.910156 4.835938 15.191406 5.589844 C 15.4375 6.246094 15.457031 6.324219 15.460938 6.597656 C 15.464844 6.800781 15.449219 6.875 15.390625 6.996094 C 15.207031 7.375 14.824219 7.296875 14.6875 6.847656 C 14.613281 6.597656 14.578125 6.339844 14.503906 5.398438 C 14.46875 4.976562 14.414062 4.472656 14.382812 4.28125 C 14.273438 3.621094 14.066406 3.082031 13.816406 2.796875 C 13.492188 2.433594 12.703125 2.199219 11.6875 2.167969 L 11.386719 2.160156 L 11.28125 2.46875 C 10.824219 3.839844 10.796875 4.78125 11.195312 5.640625 C 11.460938 6.207031 11.777344 6.625 12.769531 7.679688 C 13.105469 8.039062 13.417969 8.402344 13.46875 8.488281 C 13.605469 8.726562 13.753906 9.234375 13.757812 9.449219 C 13.757812 9.617188 13.746094 9.640625 13.65625 9.722656 C 13.480469 9.886719 13.167969 9.824219 13.015625 9.597656 C 12.980469 9.539062 12.902344 9.351562 12.851562 9.179688 C 12.441406 7.824219 11.78125 6.941406 11.046875 6.757812 C 10.945312 6.734375 10.808594 6.6875 10.742188 6.660156 C 10.464844 6.539062 9.945312 6.570312 9.371094 6.742188 C 9.089844 6.828125 8.636719 7.023438 8.480469 7.128906 L 8.414062 7.171875 L 8.53125 7.539062 C 8.59375 7.738281 8.730469 8.195312 8.835938 8.554688 C 9.191406 9.789062 9.480469 10.382812 9.925781 10.8125 C 10.164062 11.039062 10.386719 11.167969 10.789062 11.308594 C 11.171875 11.441406 11.535156 11.445312 12.003906 11.328125 C 12.453125 11.214844 12.582031 11.199219 12.785156 11.242188 C 13.015625 11.292969 13.097656 11.335938 13.300781 11.523438 C 13.480469 11.6875 13.519531 11.703125 13.546875 11.628906 C 13.578125 11.546875 13.53125 11.4375 13.390625 11.28125 C 13.191406 11.054688 12.898438 10.863281 12.429688 10.65625 C 12.207031 10.554688 11.933594 10.421875 11.828125 10.359375 C 11.140625 9.945312 10.4375 9.1875 10.238281 8.628906 C 10.171875 8.453125 10.171875 8.445312 10.222656 8.386719 C 10.363281 8.226562 10.832031 8.371094 11.363281 8.734375 C 11.921875 9.117188 12.355469 9.550781 12.855469 10.230469 C 13.234375 10.746094 13.371094 10.855469 13.625 10.855469 C 13.773438 10.855469 13.816406 10.839844 13.910156 10.757812 C 14.148438 10.566406 14.34375 10.082031 14.371094 9.644531 C 14.421875 8.824219 14.011719 7.796875 13.21875 6.734375 C 12.640625 5.960938 12.332031 5.066406 12.378906 4.320312 C 12.402344 3.941406 12.488281 3.757812 12.640625 3.757812 C 12.84375 3.757812 13.398438 4.554688 13.757812 5.367188 C 14 5.914062 14.074219 6.175781 14.140625 6.691406 C 14.246094 7.539062 14.425781 8.074219 14.6875 8.371094 C 14.894531 8.59375 15.0625 8.652344 15.246094 8.566406 C 15.367188 8.507812 15.667969 8.007812 15.855469 7.542969 C 16.242188 6.585938 16.257812 5.765625 15.921875 4.503906 C 15.804688 4.070312 15.789062 3.683594 15.871094 3.371094 C 15.996094 2.910156 16.304688 2.328125 16.554688 2.082031 C 16.773438 1.871094 16.828125 2.039062 16.8125 2.855469 C 16.800781 3.429688 16.796875 3.4375 16.640625 4.078125 C 16.429688 4.945312 16.382812 5.246094 16.398438 5.628906 C 16.40625 5.894531 16.421875 5.96875 16.484375 6.082031 C 16.726562 6.523438 17.402344 6.402344 17.960938 5.824219 C 18.425781 5.339844 18.785156 4.71875 19.261719 3.574219 C 19.753906 2.398438 20.058594 1.894531 20.28125 1.894531 C 20.601562 1.894531 20.414062 2.511719 19.800781 3.492188 C 19.519531 3.945312 19.410156 4.183594 19.410156 4.347656 C 19.410156 4.59375 19.519531 4.589844 20.082031 4.335938 C 21.714844 3.597656 23.066406 3.316406 23.980469 3.527344 C 24.09375 3.554688 24.210938 3.59375 24.242188 3.613281 C 24.285156 3.648438 24.234375 3.652344 23.929688 3.640625 C 22.496094 3.582031 20.652344 4.285156 18.65625 5.660156 C 16.867188 6.886719 15.503906 8.601562 14.597656 10.765625 C 14.269531 11.554688 13.925781 12.691406 13.925781 12.992188 C 13.925781 13.128906 13.9375 13.160156 14.042969 13.265625 C 14.132812 13.359375 14.183594 13.386719 14.269531 13.386719 C 14.386719 13.386719 14.410156 13.359375 14.457031 13.203125 C 14.476562 13.144531 14.523438 13.066406 14.570312 13.035156 C 14.640625 12.980469 14.664062 12.976562 14.742188 13.007812 C 14.792969 13.03125 14.867188 13.082031 14.90625 13.128906 C 14.980469 13.210938 14.984375 13.242188 14.960938 14.144531 C 14.949219 14.5 14.957031 14.574219 15.019531 14.757812 C 15.226562 15.386719 15.890625 15.976562 16.636719 16.179688 C 17.097656 16.3125 17.769531 16.273438 18.300781 16.089844 L 18.472656 16.03125 L 18.453125 16.332031 C 18.414062 16.855469 18.269531 17.492188 18.117188 17.789062 C 18.023438 17.96875 18.09375 17.894531 18.320312 17.554688 C 19.164062 16.308594 19.644531 15.109375 19.734375 14.007812 C 19.761719 13.652344 19.796875 13.796875 19.800781 14.304688 C 19.808594 14.84375 19.683594 15.6875 19.523438 16.164062 C 19.488281 16.28125 19.480469 16.289062 19.34375 16.296875 C 19.128906 16.3125 19.097656 16.363281 19.074219 16.777344 C 19.0625 16.96875 19.035156 17.15625 19.019531 17.1875 C 18.9375 17.34375 18.890625 17.488281 18.890625 17.574219 C 18.890625 17.652344 18.910156 17.679688 18.976562 17.703125 C 19.152344 17.777344 19.507812 17.660156 19.789062 17.441406 C 19.914062 17.34375 19.9375 17.339844 20.019531 17.367188 C 20.199219 17.429688 20.65625 18.089844 20.578125 18.167969 C 20.5625 18.179688 20.476562 18.214844 20.382812 18.238281 L 20.214844 18.289062 L 20.125 18.199219 C 19.964844 18.039062 19.804688 18.085938 19.730469 18.308594 C 19.6875 18.429688 19.683594 18.433594 19.453125 18.5 C 19.164062 18.582031 18.929688 18.585938 18.160156 18.535156 C 17.535156 18.492188 17.199219 18.523438 16.957031 18.628906 C 16.835938 18.6875 16.820312 18.6875 16.78125 18.644531 C 16.679688 18.511719 16.402344 18.472656 16.222656 18.558594 C 15.976562 18.675781 15.886719 18.910156 15.988281 19.15625 C 16.183594 19.609375 16.046875 19.953125 15.707031 19.886719 C 15.476562 19.84375 15.273438 19.96875 15.15625 20.234375 C 15.007812 20.554688 15.074219 20.820312 15.394531 21.15625 C 15.726562 21.5 16.003906 21.660156 17.488281 22.386719 C 17.734375 22.503906 17.929688 22.671875 18.007812 22.828125 C 18.082031 22.976562 18.085938 23.199219 18.015625 23.289062 L 17.960938 23.355469 L 17.78125 23.257812 C 17.550781 23.136719 17.332031 22.984375 16.976562 22.699219 C 16.820312 22.570312 16.613281 22.402344 16.511719 22.324219 C 16.28125 22.140625 15.910156 21.945312 15.671875 21.882812 C 15.570312 21.855469 15.363281 21.832031 15.214844 21.832031 C 15.03125 21.832031 14.882812 21.8125 14.753906 21.769531 C 14.539062 21.703125 14.28125 21.6875 14.148438 21.742188 C 14.050781 21.777344 14.023438 21.808594 13.789062 22.144531 C 13.441406 22.644531 13.109375 22.824219 12.472656 22.878906 C 12.332031 22.886719 12.21875 22.90625 12.21875 22.917969 C 12.21875 22.945312 12.671875 23.390625 12.859375 23.550781 C 12.941406 23.613281 13.074219 23.703125 13.160156 23.75 L 13.316406 23.839844 L 13.144531 24.007812 C 13.050781 24.101562 12.949219 24.21875 12.917969 24.265625 L 12.863281 24.355469 L 12.539062 24.03125 C 12.214844 23.714844 11.894531 23.339844 11.738281 23.082031 C 11.691406 23.011719 11.640625 22.953125 11.628906 22.949219 C 11.617188 22.949219 11.585938 23 11.558594 23.058594 C 11.496094 23.21875 11.503906 23.6875 11.578125 24.003906 C 11.660156 24.355469 11.917969 25.015625 12.0625 25.238281 C 12.449219 25.851562 12.988281 26.203125 13.71875 26.320312 C 13.816406 26.335938 13.851562 26.367188 13.953125 26.515625 C 14.082031 26.714844 14.292969 26.921875 14.445312 27.007812 C 14.613281 27.097656 14.96875 27.082031 15.324219 26.960938 C 15.710938 26.824219 15.976562 26.679688 16.640625 26.238281 C 17.40625 25.730469 17.707031 25.578125 18.0625 25.511719 C 18.480469 25.4375 18.578125 25.371094 18.496094 25.214844 C 18.460938 25.152344 18.441406 25.148438 18.253906 25.167969 C 18.003906 25.195312 17.886719 25.222656 17.382812 25.371094 C 17.167969 25.4375 16.914062 25.515625 16.824219 25.539062 L 16.664062 25.585938 L 16.78125 25.445312 C 16.933594 25.273438 17 25.128906 17 24.992188 C 17 24.929688 16.945312 24.71875 16.875 24.527344 C 16.667969 23.933594 16.65625 23.894531 16.679688 23.800781 C 16.710938 23.6875 16.878906 23.523438 17 23.496094 C 17.164062 23.464844 17.359375 23.476562 17.472656 23.523438 C 17.527344 23.542969 17.652344 23.628906 17.75 23.703125 C 18.050781 23.933594 18.234375 24.015625 18.425781 24 C 18.628906 23.980469 18.71875 23.902344 18.71875 23.746094 C 18.714844 23.675781 18.605469 23.433594 18.398438 23.023438 C 17.835938 21.914062 17.792969 21.816406 17.777344 21.675781 C 17.75 21.480469 17.808594 21.28125 17.929688 21.160156 C 18.011719 21.074219 18.054688 21.054688 18.160156 21.054688 C 18.328125 21.054688 18.46875 21.128906 18.597656 21.277344 C 18.726562 21.417969 18.792969 21.550781 18.96875 21.992188 C 19.078125 22.277344 19.105469 22.378906 19.132812 22.679688 C 19.164062 23.050781 19.230469 23.292969 19.308594 23.359375 C 19.382812 23.421875 19.457031 23.296875 19.535156 22.957031 C 19.597656 22.6875 19.605469 22.582031 19.605469 22.019531 C 19.605469 21.40625 19.585938 21.234375 19.480469 20.890625 C 19.46875 20.851562 19.480469 20.839844 19.539062 20.839844 C 19.597656 20.839844 19.65625 20.894531 19.792969 21.078125 C 19.890625 21.210938 20.089844 21.445312 20.238281 21.601562 L 20.503906 21.882812 L 20.402344 22.160156 C 20.210938 22.6875 19.902344 23.347656 19.683594 23.714844 C 19.363281 24.246094 19.273438 24.464844 19.273438 24.738281 C 19.273438 24.933594 19.28125 24.972656 19.355469 25.066406 C 19.484375 25.246094 19.636719 25.324219 19.839844 25.324219 C 20.0625 25.324219 20.121094 25.28125 20.390625 24.921875 C 20.761719 24.425781 21.042969 23.75 21.195312 22.972656 C 21.238281 22.746094 21.28125 22.554688 21.289062 22.550781 C 21.292969 22.542969 21.324219 22.5625 21.363281 22.597656 C 21.40625 22.636719 21.417969 22.679688 21.410156 22.734375 C 21.332031 23.15625 21.261719 23.464844 21.234375 23.496094 C 21.152344 23.597656 21.289062 23.726562 21.480469 23.726562 C 21.574219 23.726562 21.644531 23.644531 21.617188 23.5625 C 21.597656 23.519531 21.8125 23.203125 21.929688 23.097656 C 21.992188 23.039062 22 23.042969 22.46875 23.3125 C 22.726562 23.460938 22.941406 23.59375 22.941406 23.601562 C 22.941406 23.613281 22.914062 23.632812 22.871094 23.652344 C 22.472656 23.847656 21.636719 24.300781 21.585938 24.351562 C 21.546875 24.386719 21.511719 24.449219 21.5 24.492188 C 21.488281 24.566406 21.496094 24.570312 21.585938 24.558594 C 21.636719 24.550781 21.835938 24.492188 22.027344 24.433594 C 22.5625 24.265625 22.796875 24.21875 23.277344 24.203125 C 23.960938 24.175781 24.0625 24.203125 24.660156 24.535156 C 24.9375 24.6875 25.179688 24.820312 25.207031 24.828125 C 25.246094 24.84375 25.242188 24.8125 25.199219 24.554688 L 25.148438 24.253906 L 25.398438 24.128906 C 25.59375 24.035156 25.6875 23.960938 25.835938 23.800781 C 25.933594 23.6875 26.019531 23.574219 26.019531 23.554688 C 26.019531 23.46875 26.175781 23.507812 26.28125 23.613281 C 26.402344 23.738281 26.449219 23.886719 26.46875 24.222656 C 26.484375 24.46875 26.476562 24.507812 26.390625 24.734375 C 26.335938 24.871094 26.179688 25.203125 26.042969 25.472656 L 25.789062 25.960938 L 25.640625 25.757812 C 25.332031 25.339844 24.738281 24.960938 24.148438 24.808594 C 23.902344 24.746094 23.800781 24.734375 23.246094 24.734375 C 22.597656 24.734375 22.402344 24.757812 21.875 24.890625 C 21.339844 25.027344 20.976562 25.164062 20.949219 25.238281 C 20.9375 25.265625 20.9375 25.296875 20.949219 25.304688 C 20.957031 25.3125 21.074219 25.296875 21.210938 25.261719 C 21.402344 25.21875 21.570312 25.203125 21.890625 25.203125 C 22.261719 25.207031 22.355469 25.21875 22.59375 25.292969 C 22.984375 25.414062 23.339844 25.613281 23.414062 25.757812 L 23.476562 25.871094 L 23.394531 25.945312 C 23.34375 25.988281 23.234375 26.046875 23.136719 26.078125 C 22.941406 26.140625 22.878906 26.222656 22.9375 26.347656 C 22.953125 26.386719 23.066406 26.503906 23.191406 26.601562 C 23.492188 26.855469 23.613281 27.039062 23.613281 27.25 C 23.613281 27.554688 23.410156 27.6875 23.09375 27.589844 C 22.953125 27.546875 22.878906 27.488281 22.441406 27.054688 C 21.792969 26.410156 21.441406 26.15625 20.976562 26 C 20.648438 25.890625 20.628906 25.886719 20.628906 25.976562 C 20.628906 26.066406 20.757812 26.226562 20.925781 26.34375 C 21.058594 26.4375 21.402344 26.835938 21.667969 27.191406 C 21.925781 27.542969 22.195312 28.027344 22.414062 28.523438 C 22.847656 29.496094 22.871094 29.542969 23.148438 29.824219 C 23.253906 29.933594 23.398438 30.042969 23.523438 30.101562 C 23.703125 30.1875 23.746094 30.203125 24.007812 30.203125 C 24.25 30.203125 24.320312 30.1875 24.421875 30.132812 C 24.578125 30.050781 24.738281 29.871094 24.761719 29.75 C 24.785156 29.628906 24.90625 29.535156 25.03125 29.535156 C 25.089844 29.535156 25.230469 29.550781 25.347656 29.570312 C 25.507812 29.597656 25.585938 29.597656 25.671875 29.570312 C 25.785156 29.539062 25.789062 29.539062 25.976562 29.71875 C 26.082031 29.816406 26.316406 30 26.492188 30.121094 C 26.820312 30.34375 27.5625 30.738281 27.59375 30.703125 C 27.601562 30.695312 27.585938 30.652344 27.558594 30.609375 C 27.445312 30.433594 27.550781 30.167969 27.933594 29.628906 C 28.605469 28.6875 28.890625 28.175781 29.054688 27.625 C 29.132812 27.371094 29.140625 27.296875 29.140625 26.832031 C 29.144531 26.179688 29.105469 26.035156 28.71875 25.234375 C 28.5625 24.90625 28.414062 24.566406 28.382812 24.476562 C 28.328125 24.28125 28.320312 23.9375 28.371094 23.839844 C 28.523438 23.539062 28.800781 23.5625 29.214844 23.910156 C 29.488281 24.144531 29.71875 24.445312 29.882812 24.777344 C 30.011719 25.039062 30.023438 25.085938 30.035156 25.339844 C 30.050781 25.683594 30.011719 25.871094 29.71875 26.777344 C 29.453125 27.601562 29.402344 27.839844 29.398438 28.199219 C 29.398438 28.523438 29.4375 28.699219 29.585938 29.027344 C 29.839844 29.582031 30.242188 30.007812 31.265625 30.789062 L 31.375 30.871094 L 31.542969 30.644531 C 31.636719 30.515625 31.9375 30.175781 32.214844 29.882812 C 32.792969 29.273438 32.914062 29.082031 32.96875 28.660156 C 33.039062 28.148438 32.800781 27.265625 32.355469 26.359375 C 32.234375 26.113281 32.234375 25.929688 32.359375 25.800781 C 32.441406 25.71875 32.46875 25.707031 32.585938 25.71875 C 32.859375 25.753906 33.207031 26.121094 33.496094 26.675781 C 33.675781 27.019531 33.785156 27.367188 33.941406 28.058594 C 34.011719 28.367188 34.109375 28.742188 34.160156 28.898438 C 34.421875 29.691406 34.976562 30.339844 35.738281 30.730469 C 36.070312 30.898438 36.332031 30.988281 36.953125 31.148438 C 37.328125 31.246094 37.457031 31.269531 37.492188 31.242188 C 37.574219 31.175781 37.839844 30.753906 37.972656 30.480469 C 38.160156 30.097656 38.292969 29.652344 38.335938 29.246094 C 38.371094 28.953125 38.367188 28.867188 38.320312 28.597656 C 38.230469 28.046875 37.996094 27.609375 37.582031 27.207031 C 37.261719 26.898438 36.984375 26.71875 36.257812 26.359375 C 35.246094 25.859375 35.097656 25.769531 34.980469 25.578125 C 34.910156 25.460938 34.898438 25.3125 34.953125 25.253906 C 35.066406 25.140625 35.460938 25.25 36.167969 25.589844 C 36.742188 25.867188 36.933594 25.9375 37.289062 26.007812 C 37.605469 26.066406 37.796875 26.066406 38.066406 26.007812 C 38.425781 25.933594 38.714844 25.761719 38.925781 25.503906 L 39.007812 25.402344 L 38.925781 25.238281 C 38.738281 24.886719 38.425781 24.445312 38.175781 24.1875 C 37.882812 23.882812 37.585938 23.675781 37.242188 23.539062 C 36.628906 23.285156 36.085938 23.265625 34.761719 23.433594 C 33.984375 23.535156 33.84375 23.546875 33.410156 23.53125 C 32.910156 23.511719 32.707031 23.476562 32.414062 23.351562 C 32.246094 23.273438 32.113281 23.136719 32.113281 23.027344 C 32.113281 22.839844 32.457031 22.617188 32.847656 22.550781 C 32.957031 22.53125 33.203125 22.515625 33.398438 22.515625 C 34.644531 22.515625 35.503906 22.207031 35.9375 21.613281 C 36.070312 21.425781 36.175781 21.191406 36.210938 20.992188 L 36.230469 20.882812 L 35.886719 20.628906 C 35.019531 20.003906 34.1875 19.613281 33.429688 19.488281 C 33.003906 19.417969 32.359375 19.433594 32 19.53125 C 31.222656 19.738281 30.605469 20.164062 29.863281 21.007812 C 29.660156 21.238281 29.480469 21.429688 29.464844 21.429688 C 29.449219 21.429688 29.378906 21.355469 29.304688 21.261719 C 29.230469 21.171875 29.089844 21 28.992188 20.886719 C 28.898438 20.773438 28.820312 20.675781 28.828125 20.671875 C 28.832031 20.664062 29.132812 20.488281 29.492188 20.28125 C 29.851562 20.070312 30.292969 19.804688 30.46875 19.6875 C 30.726562 19.519531 30.835938 19.464844 31.003906 19.429688 C 31.292969 19.363281 32.300781 19.105469 32.371094 19.074219 C 32.417969 19.054688 32.378906 19.007812 32.113281 18.792969 C 31.945312 18.652344 31.777344 18.523438 31.75 18.503906 C 31.699219 18.472656 31.699219 18.460938 31.738281 18.355469 C 31.84375 18.105469 31.820312 17.742188 31.667969 17.09375 C 31.652344 17.039062 31.675781 17.023438 31.90625 16.976562 C 32.046875 16.945312 32.542969 16.8125 33.011719 16.675781 C 33.480469 16.542969 33.941406 16.417969 34.035156 16.398438 C 34.125 16.378906 34.222656 16.355469 34.246094 16.347656 C 34.273438 16.339844 34.195312 16.265625 34.035156 16.160156 C 33.324219 15.6875 32.5625 15.355469 31.707031 15.144531 C 31.089844 14.984375 30.71875 14.933594 30.042969 14.917969 C 29.175781 14.890625 28.414062 14.992188 27.664062 15.238281 L 27.40625 15.324219 L 27.878906 15.347656 C 28.136719 15.359375 28.523438 15.390625 28.738281 15.417969 C 29.195312 15.476562 29.949219 15.617188 29.949219 15.648438 C 29.949219 15.707031 29.402344 15.753906 28.675781 15.761719 C 27.859375 15.765625 27.335938 15.8125 27.308594 15.886719 C 27.300781 15.910156 27.3125 15.976562 27.332031 16.039062 C 27.378906 16.1875 27.539062 16.292969 27.816406 16.355469 L 28.03125 16.410156 L 27.816406 16.628906 L 27.605469 16.851562 L 27.351562 16.824219 C 26.910156 16.78125 26.195312 16.855469 25.914062 16.96875 L 25.824219 17.007812 L 26.035156 17.089844 C 26.265625 17.175781 26.585938 17.261719 26.996094 17.34375 C 27.136719 17.375 27.257812 17.402344 27.261719 17.40625 C 27.269531 17.414062 27.132812 17.730469 27.097656 17.792969 C 27.09375 17.796875 26.902344 17.773438 26.667969 17.734375 C 26.4375 17.703125 26.085938 17.660156 25.878906 17.644531 C 25.488281 17.613281 24.933594 17.628906 24.90625 17.675781 C 24.871094 17.734375 24.921875 17.839844 25.035156 17.960938 C 25.183594 18.117188 25.503906 18.273438 26.15625 18.507812 C 26.445312 18.605469 26.695312 18.699219 26.722656 18.710938 C 26.769531 18.730469 26.769531 18.75 26.714844 18.921875 C 26.683594 19.023438 26.652344 19.117188 26.644531 19.125 C 26.636719 19.132812 26.542969 19.097656 26.441406 19.054688 C 25.90625 18.8125 25.15625 18.605469 24.546875 18.523438 C 24.171875 18.476562 23.125 18.460938 23.125 18.503906 C 23.125 18.582031 23.550781 18.8125 24.269531 19.128906 C 24.9375 19.425781 25.484375 19.703125 25.699219 19.867188 C 26 20.089844 25.726562 20.011719 24.808594 19.613281 C 23.722656 19.140625 23.289062 19.007812 22.855469 19.003906 C 22.484375 19 22.402344 19.078125 22.511719 19.332031 C 22.589844 19.507812 22.832031 19.769531 23.105469 19.976562 L 23.308594 20.132812 L 23.1875 20.1875 C 23.121094 20.21875 23.003906 20.289062 22.929688 20.339844 L 22.796875 20.433594 L 22.519531 20.265625 C 22.367188 20.175781 22.203125 20.082031 22.152344 20.0625 L 22.0625 20.023438 L 22.125 19.9375 C 22.238281 19.78125 22.113281 19.535156 21.925781 19.535156 C 21.8125 19.535156 21.792969 19.546875 21.683594 19.695312 L 21.601562 19.8125 L 21.378906 19.726562 C 21.253906 19.679688 21.152344 19.632812 21.152344 19.617188 C 21.113281 19.417969 21.261719 19.25 21.648438 19.054688 C 21.871094 18.945312 21.941406 18.898438 21.957031 18.839844 C 21.996094 18.675781 21.878906 18.558594 21.679688 18.558594 C 21.539062 18.558594 21.429688 18.644531 21.390625 18.78125 C 21.375 18.84375 21.335938 18.929688 21.3125 18.964844 C 21.25 19.054688 21.105469 19.058594 21.019531 18.972656 C 20.941406 18.890625 20.859375 18.695312 20.890625 18.664062 C 20.90625 18.652344 21.125 18.582031 21.375 18.507812 C 22.097656 18.300781 22.894531 17.992188 23.507812 17.675781 C 23.761719 17.546875 24.410156 17.109375 24.894531 16.742188 C 26.132812 15.796875 27.316406 14.582031 28.253906 13.308594 C 29.671875 11.371094 30.613281 9.234375 31.0625 6.933594 C 31.109375 6.703125 31.136719 6.507812 31.128906 6.5 C 31.121094 6.492188 31.085938 6.625 31.046875 6.792969 C 30.71875 8.273438 30.144531 9.636719 29.203125 11.195312 C 28.007812 13.171875 26.339844 14.980469 24.554688 16.246094 C 23.777344 16.796875 22.636719 17.433594 21.890625 17.730469 L 21.585938 17.851562 L 21.558594 17.757812 C 21.515625 17.628906 21.40625 17.546875 21.285156 17.546875 C 21.160156 17.546875 21.070312 17.644531 21.042969 17.808594 C 21.019531 17.972656 20.90625 18.089844 20.796875 18.0625 C 20.636719 18.023438 20.445312 17.585938 20.445312 17.265625 C 20.445312 17.054688 20.492188 16.9375 20.628906 16.820312 C 20.726562 16.738281 20.871094 16.710938 20.871094 16.773438 C 20.871094 16.84375 20.746094 17.300781 20.6875 17.4375 C 20.621094 17.597656 20.609375 17.765625 20.664062 17.765625 C 20.683594 17.765625 20.820312 17.644531 20.960938 17.492188 C 21.695312 16.734375 22.195312 15.539062 22.332031 14.222656 C 22.378906 13.78125 22.394531 13.695312 22.417969 13.695312 C 22.488281 13.695312 22.644531 13.835938 22.703125 13.949219 C 22.804688 14.148438 22.773438 14.558594 22.609375 15.21875 C 22.5 15.644531 22.480469 15.78125 22.476562 16.054688 C 22.472656 16.339844 22.480469 16.402344 22.542969 16.535156 L 22.617188 16.683594 L 22.722656 16.519531 C 22.984375 16.105469 23.195312 15.554688 23.316406 14.988281 C 23.398438 14.5625 23.410156 13.613281 23.328125 13.152344 C 23.265625 12.785156 23.097656 12.160156 22.984375 11.871094 C 22.761719 11.296875 22.339844 10.535156 22.023438 10.148438 L 21.902344 10.003906 L 22.050781 9.984375 C 22.289062 9.953125 22.574219 9.878906 22.816406 9.78125 C 22.941406 9.734375 23.050781 9.695312 23.050781 9.699219 C 23.054688 9.703125 23.089844 9.867188 23.125 10.0625 C 23.167969 10.273438 23.328125 10.8125 23.511719 11.382812 C 24.023438 12.933594 24.167969 13.460938 24.257812 14.097656 C 24.304688 14.476562 24.300781 15.242188 24.242188 15.539062 C 24.214844 15.675781 24.199219 15.792969 24.203125 15.796875 C 24.226562 15.820312 24.527344 15.125 24.601562 14.886719 C 24.953125 13.726562 24.9375 12.273438 24.542969 10.472656 C 24.457031 10.089844 24.457031 10.097656 24.542969 10.234375 C 25.109375 11.132812 25.46875 12.878906 25.335938 14.058594 C 25.308594 14.324219 25.335938 14.378906 25.488281 14.378906 C 25.65625 14.378906 25.917969 14.144531 26.058594 13.871094 C 26.105469 13.777344 26.125 13.679688 26.128906 13.507812 C 26.128906 13.382812 26.15625 13.144531 26.1875 12.980469 C 26.304688 12.367188 26.25 11.523438 26.046875 10.871094 C 25.613281 9.445312 24.550781 8.144531 23.179688 7.367188 C 23.082031 7.3125 22.996094 7.265625 22.988281 7.265625 C 22.980469 7.265625 22.972656 7.304688 22.972656 7.351562 C 22.972656 7.421875 22.957031 7.40625 22.855469 7.25 C 22.441406 6.59375 21.710938 6.234375 20.574219 6.117188 C 20.097656 6.066406 19.992188 6.035156 19.90625 5.902344 C 19.820312 5.777344 19.816406 5.699219 19.894531 5.570312 C 20.007812 5.378906 20.335938 5.28125 20.863281 5.28125 C 21.269531 5.28125 21.597656 5.347656 22.414062 5.601562 C 23.429688 5.917969 23.785156 5.976562 24.277344 5.886719 C 24.433594 5.859375 24.609375 5.816406 24.667969 5.792969 C 24.722656 5.765625 24.769531 5.761719 24.769531 5.773438 C 24.769531 5.882812 24.910156 6.832031 24.976562 7.160156 C 25.046875 7.539062 25.082031 7.628906 25.523438 8.644531 C 26.5 10.886719 26.777344 11.765625 26.984375 13.246094 C 27.003906 13.394531 27.007812 13.386719 27.074219 12.980469 C 27.273438 11.769531 27.25 10.269531 27.011719 9.269531 C 26.988281 9.167969 26.972656 9.082031 26.980469 9.074219 C 27 9.054688 27.136719 9.300781 27.199219 9.472656 C 27.332031 9.839844 27.433594 10.371094 27.570312 11.488281 C 27.621094 11.886719 27.667969 12.21875 27.675781 12.222656 C 27.699219 12.25 27.824219 11.773438 27.886719 11.414062 C 27.96875 10.910156 27.953125 10.027344 27.851562 9.535156 C 27.511719 7.917969 26.566406 6.566406 25.242188 5.8125 L 24.980469 5.660156 L 25.164062 5.546875 C 25.421875 5.386719 25.765625 5.050781 26.082031 4.644531 C 26.230469 4.445312 26.367188 4.28125 26.386719 4.269531 C 26.441406 4.234375 26.417969 4.160156 26.277344 3.871094 C 26.066406 3.441406 25.699219 2.90625 25.394531 2.582031 C 24.847656 1.996094 24.40625 1.769531 23.804688 1.769531 C 23.183594 1.769531 22.683594 2.015625 21.738281 2.785156 C 21.175781 3.242188 20.949219 3.402344 20.777344 3.464844 C 20.5625 3.539062 20.382812 3.480469 20.382812 3.332031 C 20.382812 3.15625 20.566406 2.933594 21.054688 2.53125 C 21.683594 2.007812 21.9375 1.679688 22.082031 1.21875 C 22.179688 0.886719 22.171875 0.492188 22.054688 0.203125 L 21.984375 0.015625 L 21.695312 0.0117188 C 21.535156 0.0078125 21.316406 0.0195312 21.207031 0.0351562 Z M 19.589844 6.777344 C 19.980469 6.859375 20.328125 6.988281 20.769531 7.207031 C 21.207031 7.425781 21.316406 7.507812 21.394531 7.695312 C 21.46875 7.859375 21.445312 7.984375 21.335938 8.078125 C 21.265625 8.132812 21.21875 8.140625 21.050781 8.128906 C 20.785156 8.113281 20.558594 8 20.125 7.648438 C 19.464844 7.121094 19.101562 6.921875 18.640625 6.832031 C 18.4375 6.792969 18.414062 6.75 18.578125 6.722656 C 18.640625 6.710938 18.707031 6.699219 18.722656 6.6875 C 18.789062 6.664062 19.316406 6.71875 19.589844 6.777344 Z M 18.632812 7.542969 C 18.816406 7.632812 18.910156 7.71875 19.378906 8.207031 C 20.886719 9.800781 21.03125 9.910156 21.671875 9.988281 C 21.765625 9.996094 21.847656 10.011719 21.847656 10.023438 C 21.847656 10.027344 21.828125 10.066406 21.804688 10.101562 C 21.722656 10.234375 21.488281 10.886719 21.40625 11.21875 L 21.320312 11.550781 L 21.027344 10.953125 C 20.429688 9.746094 19.972656 9.207031 19.246094 8.867188 C 18.917969 8.710938 18.710938 8.667969 18.160156 8.632812 C 17.542969 8.59375 17.273438 8.539062 17.0625 8.40625 C 16.683594 8.175781 16.714844 7.871094 17.148438 7.628906 C 17.414062 7.480469 17.703125 7.417969 18.085938 7.433594 C 18.398438 7.441406 18.445312 7.449219 18.632812 7.542969 Z M 17.597656 9.175781 C 18.296875 9.386719 18.878906 9.8125 18.980469 10.191406 C 19.078125 10.53125 18.691406 10.746094 18.234375 10.609375 C 18.011719 10.539062 17.8125 10.386719 17.332031 9.917969 C 16.792969 9.386719 16.570312 9.25 16.136719 9.175781 C 15.832031 9.128906 16.238281 9.066406 16.820312 9.082031 C 17.257812 9.089844 17.359375 9.101562 17.597656 9.175781 Z M 16.371094 9.976562 C 16.660156 10.125 16.761719 10.234375 17.289062 11.023438 C 17.785156 11.761719 17.992188 12.039062 18.3125 12.394531 L 18.554688 12.667969 L 18.527344 12.800781 C 18.460938 13.113281 18.425781 13.824219 18.445312 14.550781 C 18.464844 15.230469 18.460938 15.289062 18.417969 15.234375 C 18.351562 15.144531 18.234375 14.75 18.191406 14.472656 C 18.175781 14.34375 18.148438 14.015625 18.128906 13.742188 C 18.09375 13.152344 18.03125 12.867188 17.839844 12.460938 C 17.664062 12.09375 17.5625 11.9375 17.277344 11.632812 C 16.917969 11.25 16.558594 11.007812 16.222656 10.929688 C 15.773438 10.824219 15.59375 10.722656 15.519531 10.535156 C 15.429688 10.324219 15.523438 9.988281 15.699219 9.886719 C 15.824219 9.808594 16.113281 9.847656 16.371094 9.976562 Z M 15.371094 11.722656 C 15.707031 11.8125 15.988281 11.976562 16.242188 12.234375 C 16.5625 12.558594 16.726562 12.914062 16.726562 13.28125 C 16.726562 13.429688 16.714844 13.460938 16.617188 13.566406 C 16.433594 13.78125 16.234375 13.796875 16.09375 13.617188 C 16.027344 13.53125 15.980469 13.417969 15.875 13.058594 C 15.773438 12.722656 15.632812 12.523438 15.265625 12.171875 C 15.027344 11.945312 14.929688 11.835938 14.929688 11.78125 C 14.929688 11.667969 15.074219 11.644531 15.371094 11.722656 Z M 21.140625 13.128906 C 21.128906 13.3125 21.101562 13.886719 21.085938 14.410156 C 21.054688 15.28125 21.015625 15.863281 20.976562 16.101562 L 20.960938 16.195312 L 20.722656 16.195312 C 20.585938 16.195312 20.472656 16.1875 20.460938 16.175781 C 20.453125 16.167969 20.472656 16.0625 20.503906 15.945312 C 20.601562 15.566406 20.640625 15.273438 20.636719 14.8125 C 20.628906 14.324219 20.578125 13.910156 20.457031 13.449219 C 20.417969 13.289062 20.394531 13.148438 20.40625 13.136719 C 20.421875 13.128906 20.527344 13.078125 20.644531 13.035156 C 20.761719 12.988281 20.910156 12.917969 20.976562 12.875 C 21.042969 12.835938 21.113281 12.796875 21.128906 12.796875 C 21.152344 12.796875 21.15625 12.90625 21.140625 13.128906 Z M 20.726562 18.84375 C 20.808594 18.988281 20.839844 19.144531 20.808594 19.269531 C 20.765625 19.417969 20.683594 19.460938 20.609375 19.371094 C 20.53125 19.285156 20.269531 19.160156 20.15625 19.160156 C 20.046875 19.160156 19.933594 19.234375 19.898438 19.324219 C 19.878906 19.382812 19.851562 19.390625 19.726562 19.386719 L 19.578125 19.378906 L 19.683594 19.433594 C 19.742188 19.460938 20.027344 19.597656 20.320312 19.742188 C 20.738281 19.945312 20.84375 20.007812 20.828125 20.050781 C 20.820312 20.074219 20.808594 20.144531 20.808594 20.203125 L 20.808594 20.3125 L 20.652344 20.21875 C 20.5625 20.171875 20.402344 20.09375 20.292969 20.042969 C 20.171875 19.992188 20.027344 19.894531 19.921875 19.796875 C 19.820312 19.695312 19.707031 19.621094 19.632812 19.597656 C 19.4375 19.546875 19.242188 19.628906 19.128906 19.808594 L 19.066406 19.910156 L 18.957031 19.75 C 18.898438 19.660156 18.746094 19.472656 18.613281 19.332031 L 18.375 19.082031 L 18.925781 19.007812 C 19.457031 18.945312 20.441406 18.769531 20.472656 18.738281 C 20.480469 18.730469 20.53125 18.726562 20.578125 18.734375 C 20.644531 18.738281 20.683594 18.769531 20.726562 18.84375 Z M 28.265625 19.488281 C 28.414062 19.53125 28.65625 19.582031 28.800781 19.605469 L 29.074219 19.644531 L 28.75 19.980469 L 28.429688 20.316406 L 28.328125 20.234375 C 28.273438 20.1875 28.125 20.070312 28 19.976562 C 27.875 19.882812 27.761719 19.796875 27.746094 19.78125 C 27.722656 19.761719 27.957031 19.410156 27.988281 19.410156 C 27.996094 19.410156 28.121094 19.445312 28.265625 19.488281 Z M 21.554688 20.457031 C 21.878906 20.695312 22.210938 20.976562 22.210938 21.007812 C 22.207031 21.023438 22.183594 21.070312 22.152344 21.109375 L 22.097656 21.179688 L 21.832031 20.980469 C 21.6875 20.871094 21.507812 20.742188 21.433594 20.691406 C 21.296875 20.605469 21.265625 20.523438 21.316406 20.390625 C 21.34375 20.320312 21.378906 20.328125 21.554688 20.457031 Z M 34.042969 20.839844 C 34.265625 20.902344 34.160156 21.039062 33.699219 21.277344 C 33.21875 21.519531 32.941406 21.609375 32.304688 21.722656 C 30.941406 21.972656 30.40625 22.160156 30.199219 22.472656 C 30.082031 22.644531 30.078125 22.796875 30.1875 23.023438 C 30.480469 23.628906 31.308594 24.054688 32.648438 24.292969 C 33.003906 24.355469 33.121094 24.359375 33.820312 24.351562 C 35.40625 24.324219 35.933594 24.328125 36.082031 24.375 C 36.25 24.425781 36.328125 24.5 36.3125 24.597656 C 36.277344 24.859375 35.636719 24.894531 34.382812 24.703125 C 33.660156 24.589844 33.363281 24.628906 33.363281 24.835938 C 33.363281 24.929688 33.414062 24.980469 34.136719 25.652344 C 35.238281 26.675781 36.109375 27.703125 36.441406 28.371094 C 36.554688 28.597656 36.667969 28.941406 36.640625 28.96875 C 36.632812 28.976562 36.566406 28.851562 36.492188 28.691406 C 35.898438 27.398438 34.246094 25.933594 31.671875 24.410156 C 30.414062 23.664062 29.230469 23.128906 28.320312 22.890625 C 27.714844 22.734375 27.378906 22.691406 26.8125 22.710938 C 26.535156 22.71875 26.25 22.746094 26.171875 22.765625 C 26.097656 22.78125 26.003906 22.800781 25.964844 22.8125 C 25.910156 22.824219 25.890625 22.8125 25.863281 22.742188 C 25.808594 22.585938 25.859375 22.460938 26.066406 22.234375 C 26.203125 22.085938 26.265625 21.992188 26.28125 21.914062 C 26.296875 21.828125 26.3125 21.804688 26.351562 21.8125 C 26.675781 21.90625 26.652344 21.894531 26.621094 21.984375 C 26.578125 22.101562 26.613281 22.210938 26.714844 22.273438 C 26.769531 22.308594 26.996094 22.355469 27.316406 22.394531 C 27.898438 22.476562 28.769531 22.492188 29.082031 22.429688 C 29.246094 22.398438 29.3125 22.402344 29.6875 22.480469 C 29.914062 22.527344 30.101562 22.5625 30.101562 22.554688 C 30.101562 22.550781 30.0625 22.460938 30.011719 22.363281 L 29.921875 22.179688 L 30.058594 22.128906 C 30.246094 22.054688 30.65625 21.796875 31.160156 21.4375 C 31.734375 21.023438 32.019531 20.917969 32.832031 20.820312 C 33.199219 20.777344 33.859375 20.785156 34.042969 20.839844 Z M 23.28125 22.257812 C 23.320312 22.308594 23.316406 22.3125 23.273438 22.269531 C 23.242188 22.25 23.21875 22.222656 23.21875 22.21875 C 23.21875 22.191406 23.242188 22.207031 23.28125 22.257812 Z M 27.296875 23.648438 C 27.566406 24.015625 27.804688 24.519531 27.925781 24.980469 C 28.085938 25.558594 28.054688 26.363281 27.863281 26.695312 C 27.609375 27.132812 27.109375 26.898438 26.945312 26.257812 C 26.875 25.988281 26.894531 25.789062 27.058594 25.132812 C 27.195312 24.59375 27.210938 24.476562 27.214844 24.191406 C 27.214844 23.871094 27.203125 23.808594 27.042969 23.371094 C 27.015625 23.296875 27.125 23.417969 27.296875 23.648438 Z M 30.941406 25.15625 C 31.242188 25.765625 31.421875 26.605469 31.425781 27.429688 C 31.429688 27.8125 31.421875 27.859375 31.363281 27.941406 C 31.226562 28.128906 31.027344 28.03125 30.867188 27.691406 C 30.699219 27.339844 30.691406 27.042969 30.835938 26.261719 C 30.90625 25.894531 30.84375 25.3125 30.699219 24.960938 C 30.671875 24.898438 30.652344 24.824219 30.652344 24.792969 C 30.65625 24.703125 30.820312 24.917969 30.941406 25.15625 Z M 30.941406 25.15625 "/>
<path style=" stroke:none;fill-rule:nonzero;fill:rgb(0%,0%,0%);fill-opacity:1;" d="M 32.25 0.25 C 32.109375 0.476562 31.914062 0.929688 31.8125 1.257812 C 31.613281 1.90625 31.515625 2.628906 31.476562 3.675781 C 31.453125 4.328125 31.472656 4.625 31.535156 4.707031 C 31.652344 4.847656 31.917969 4.632812 32.125 4.234375 C 32.300781 3.890625 32.359375 3.679688 32.386719 3.324219 C 32.429688 2.855469 32.5 2.640625 32.554688 2.832031 C 32.585938 2.964844 32.570312 3.660156 32.527344 3.890625 C 32.476562 4.171875 32.421875 4.285156 32.261719 4.460938 C 32.109375 4.632812 32.101562 4.757812 32.238281 4.8125 C 32.3125 4.84375 32.363281 4.847656 32.484375 4.816406 C 32.742188 4.757812 32.90625 4.59375 32.90625 4.394531 C 32.90625 4.347656 32.949219 4.25 33 4.175781 C 33.445312 3.511719 33.542969 2.585938 33.257812 1.675781 C 33.105469 1.1875 32.800781 0.644531 32.46875 0.265625 L 32.335938 0.113281 Z M 32.25 0.25 "/>
<path style=" stroke:none;fill-rule:nonzero;fill:rgb(0%,0%,0%);fill-opacity:1;" d="M 28.230469 1.464844 C 28.214844 1.554688 28.175781 2.6875 28.175781 3.152344 C 28.175781 3.546875 28.234375 3.902344 28.371094 4.3125 C 28.511719 4.75 28.636719 5.035156 29.074219 5.902344 C 29.292969 6.335938 29.535156 6.84375 29.617188 7.035156 C 29.777344 7.417969 29.832031 7.457031 29.929688 7.265625 C 29.976562 7.175781 29.984375 7.105469 29.96875 6.769531 C 29.960938 6.554688 29.921875 6.171875 29.878906 5.917969 C 29.839844 5.660156 29.792969 5.386719 29.78125 5.3125 L 29.757812 5.171875 L 29.832031 5.21875 C 29.992188 5.324219 30.058594 5.574219 30.195312 6.507812 C 30.296875 7.203125 30.371094 7.582031 30.410156 7.5625 C 30.453125 7.535156 30.613281 7.03125 30.6875 6.703125 C 30.75 6.421875 30.757812 6.304688 30.753906 5.746094 C 30.753906 5.207031 30.742188 5.058594 30.6875 4.796875 C 30.46875 3.792969 30.050781 2.972656 29.414062 2.296875 C 29.09375 1.960938 28.75 1.679688 28.425781 1.496094 L 28.246094 1.394531 Z M 28.230469 1.464844 "/>
<path style=" stroke:none;fill-rule:nonzero;fill:rgb(0%,0%,0%);fill-opacity:1;" d="M 35.710938 3.976562 C 34.882812 4.085938 34.0625 4.394531 33.398438 4.847656 C 32.84375 5.222656 32.207031 5.933594 32.199219 6.175781 C 32.195312 6.304688 32.214844 6.320312 32.359375 6.3125 C 32.609375 6.300781 33.105469 6.007812 33.273438 5.765625 C 33.347656 5.664062 33.367188 5.652344 33.382812 5.699219 C 33.398438 5.734375 33.375 5.808594 33.332031 5.890625 C 33.257812 6.039062 32.710938 6.589844 32.363281 6.875 C 32.039062 7.136719 31.953125 7.308594 32.089844 7.402344 C 32.269531 7.535156 32.6875 7.414062 32.878906 7.175781 C 32.964844 7.070312 33.039062 7.023438 33.300781 6.917969 C 34.203125 6.539062 35.019531 5.832031 35.640625 4.890625 C 35.785156 4.667969 36.089844 4.113281 36.121094 4.011719 C 36.140625 3.949219 36.128906 3.945312 36.023438 3.945312 C 35.960938 3.949219 35.820312 3.960938 35.710938 3.976562 Z M 35.710938 3.976562 "/>
<path style=" stroke:none;fill-rule:nonzero;fill:rgb(0%,0%,0%);fill-opacity:1;" d="M 26.980469 4.066406 C 26.726562 4.183594 26.515625 4.539062 26.460938 4.9375 C 26.433594 5.128906 26.488281 5.445312 26.582031 5.632812 C 26.621094 5.71875 26.804688 6.121094 26.980469 6.523438 C 27.160156 6.921875 27.414062 7.496094 27.550781 7.796875 C 27.863281 8.496094 28.082031 9.042969 28.261719 9.566406 C 28.402344 9.992188 28.609375 10.792969 28.609375 10.921875 C 28.609375 10.960938 28.621094 10.992188 28.636719 10.992188 C 28.664062 10.992188 28.71875 10.511719 28.75 10 C 28.785156 9.390625 28.679688 8.390625 28.503906 7.660156 C 28.414062 7.296875 28.21875 6.683594 28.089844 6.363281 C 28.039062 6.238281 28.007812 6.132812 28.011719 6.128906 C 28.035156 6.101562 28.398438 6.6875 28.535156 6.957031 C 28.792969 7.488281 29.039062 8.265625 29.296875 9.371094 C 29.449219 10.023438 29.46875 9.976562 29.472656 8.992188 C 29.472656 8.382812 29.460938 8.164062 29.40625 7.8125 C 29.214844 6.523438 28.820312 5.585938 28.121094 4.734375 C 27.738281 4.265625 27.632812 4.160156 27.46875 4.082031 C 27.285156 3.992188 27.144531 3.988281 26.980469 4.066406 Z M 26.980469 4.066406 "/>
<path style=" stroke:none;fill-rule:nonzero;fill:rgb(0%,0%,0%);fill-opacity:1;" d="M 34.78125 6.988281 C 33.570312 7.128906 32.480469 7.644531 31.691406 8.445312 C 31.433594 8.707031 31.046875 9.203125 31.046875 9.269531 C 31.046875 9.28125 31.140625 9.28125 31.253906 9.269531 C 31.671875 9.226562 32.015625 9.121094 32.738281 8.8125 C 32.957031 8.71875 33.257812 8.597656 33.410156 8.546875 C 33.675781 8.453125 34.125 8.371094 34.230469 8.390625 C 34.257812 8.394531 33.898438 8.582031 33.429688 8.796875 C 32.277344 9.339844 31.65625 9.703125 31.140625 10.140625 C 30.847656 10.386719 30.777344 10.464844 30.84375 10.464844 C 30.960938 10.464844 31.328125 10.355469 31.839844 10.171875 C 32.792969 9.820312 32.941406 9.785156 33.535156 9.75 C 33.828125 9.734375 34.15625 9.707031 34.269531 9.6875 C 35.441406 9.488281 36.519531 8.890625 37.191406 8.066406 C 37.421875 7.792969 37.597656 7.539062 37.597656 7.492188 C 37.597656 7.417969 36.832031 7.148438 36.332031 7.050781 C 35.949219 6.976562 35.164062 6.945312 34.78125 6.988281 Z M 34.78125 6.988281 "/>
<path style=" stroke:none;fill-rule:nonzero;fill:rgb(0%,0%,0%);fill-opacity:1;" d="M 32.769531 10.203125 C 32.117188 10.316406 31.480469 10.597656 30.988281 10.988281 C 30.917969 11.042969 30.917969 11.050781 30.96875 11.144531 C 31.046875 11.300781 31.183594 11.367188 31.414062 11.367188 C 31.644531 11.367188 31.832031 11.324219 32.375 11.148438 C 32.59375 11.082031 32.871094 11.003906 32.992188 10.976562 C 33.265625 10.917969 33.648438 10.914062 33.773438 10.964844 C 33.863281 11 33.851562 11.007812 33.53125 11.074219 C 31.9375 11.425781 31.242188 11.632812 30.546875 11.976562 C 30.273438 12.105469 29.753906 12.417969 29.773438 12.4375 C 29.785156 12.449219 31.46875 12.261719 31.976562 12.1875 C 33.71875 11.945312 35.019531 11.589844 36.136719 11.050781 L 36.457031 10.894531 L 36.210938 10.777344 C 35.652344 10.507812 34.972656 10.296875 34.363281 10.203125 C 33.96875 10.144531 33.117188 10.144531 32.769531 10.203125 Z M 32.769531 10.203125 "/>
<path style=" stroke:none;fill-rule:nonzero;fill:rgb(0%,0%,0%);fill-opacity:1;" d="M 12.042969 11.582031 C 11.808594 11.652344 11.6875 11.742188 11.515625 11.992188 C 11.441406 12.097656 11.316406 12.253906 11.238281 12.335938 C 11.054688 12.53125 10.988281 12.53125 10.769531 12.328125 C 10.585938 12.15625 10.507812 12.128906 10.269531 12.128906 C 10.03125 12.128906 9.792969 12.253906 9.535156 12.511719 C 8.957031 13.097656 8.683594 13.847656 8.683594 14.84375 C 8.683594 15.453125 8.808594 16.175781 9.023438 16.785156 C 9.09375 16.992188 9.128906 17.050781 9.1875 17.050781 C 9.246094 17.050781 9.246094 16.960938 9.171875 16.601562 C 9.121094 16.355469 9.113281 16.265625 9.136719 16.125 C 9.15625 16.027344 9.1875 15.816406 9.21875 15.660156 C 9.300781 15.144531 9.464844 14.8125 9.675781 14.707031 C 9.820312 14.636719 9.851562 14.644531 9.917969 14.769531 C 10.003906 14.933594 10.191406 15.09375 10.292969 15.09375 C 10.398438 15.09375 10.449219 15.039062 10.558594 14.804688 C 10.671875 14.558594 10.832031 14.460938 11.09375 14.476562 C 11.300781 14.492188 11.410156 14.558594 11.5 14.722656 C 11.609375 14.933594 11.566406 15.011719 11.078125 15.523438 C 10.539062 16.085938 10.4375 16.203125 10.257812 16.460938 C 10.101562 16.691406 10.007812 16.890625 9.945312 17.128906 C 9.886719 17.339844 9.890625 17.390625 9.957031 17.390625 C 10.0625 17.390625 10.28125 17.210938 10.667969 16.8125 C 11.011719 16.453125 11.09375 16.386719 11.460938 16.164062 C 11.683594 16.03125 12.125 15.796875 12.445312 15.644531 C 13.273438 15.25 13.484375 15.132812 13.667969 14.960938 C 13.953125 14.695312 14.105469 14.265625 14.046875 13.902344 C 14 13.613281 13.824219 13.332031 13.609375 13.214844 L 13.507812 13.160156 L 13.484375 12.871094 C 13.441406 12.207031 13.226562 11.761719 12.875 11.597656 C 12.683594 11.503906 12.328125 11.5 12.042969 11.582031 Z M 12.042969 11.582031 "/>
<path style=" stroke:none;fill-rule:nonzero;fill:rgb(0%,0%,0%);fill-opacity:1;" d="M 5.273438 11.726562 C 4.769531 11.90625 4.441406 12.445312 4.578125 12.859375 C 4.648438 13.070312 4.609375 13.214844 4.398438 13.507812 C 4.007812 14.050781 3.980469 14.1875 4.148438 14.628906 C 4.539062 15.667969 5.625 16.453125 7.070312 16.75 C 7.269531 16.796875 7.460938 16.820312 7.5 16.8125 C 7.597656 16.785156 7.648438 16.742188 7.648438 16.679688 C 7.648438 16.617188 7.417969 16.386719 7.09375 16.125 C 6.808594 15.886719 6.785156 15.859375 6.5 15.355469 C 6.171875 14.78125 6.113281 14.585938 6.183594 14.3125 C 6.230469 14.144531 6.339844 14.058594 6.527344 14.042969 C 6.851562 14.019531 7.167969 14.285156 7.4375 14.824219 C 7.507812 14.964844 7.613281 15.160156 7.679688 15.265625 C 7.742188 15.367188 7.867188 15.625 7.957031 15.835938 C 8.140625 16.28125 8.277344 16.460938 8.433594 16.460938 C 8.488281 16.460938 8.53125 16.457031 8.53125 16.449219 C 8.53125 16.445312 8.484375 16.296875 8.425781 16.125 C 8.191406 15.414062 8.121094 14.765625 8.207031 14.082031 C 8.28125 13.515625 8.277344 13.054688 8.195312 12.789062 C 8.109375 12.507812 7.8125 12.097656 7.636719 12.015625 C 7.472656 11.941406 7.417969 11.945312 7.070312 12.035156 C 6.605469 12.15625 6.507812 12.144531 6.21875 11.910156 C 6.125 11.835938 5.988281 11.75 5.914062 11.722656 C 5.746094 11.664062 5.449219 11.664062 5.273438 11.726562 Z M 5.273438 11.726562 "/>
<path style=" stroke:none;fill-rule:nonzero;fill:rgb(0%,0%,0%);fill-opacity:1;" d="M 31.824219 12.6875 C 31.0625 12.746094 30.226562 12.945312 29.585938 13.222656 C 29.328125 13.335938 29.328125 13.335938 29.433594 13.355469 C 29.546875 13.382812 30.03125 13.421875 31.054688 13.492188 C 31.722656 13.539062 32.367188 13.617188 32.449219 13.667969 C 32.484375 13.6875 32.464844 13.703125 32.375 13.746094 C 32.273438 13.789062 32.085938 13.800781 31.292969 13.824219 C 30.765625 13.839844 30.242188 13.863281 30.121094 13.882812 C 29.503906 13.972656 29.332031 14.003906 29.265625 14.050781 C 29.164062 14.117188 29.167969 14.148438 29.292969 14.269531 C 29.480469 14.449219 29.976562 14.582031 30.269531 14.53125 C 30.355469 14.515625 30.453125 14.523438 30.589844 14.566406 C 30.871094 14.648438 31.429688 14.746094 31.839844 14.78125 C 32.550781 14.84375 33.355469 14.808594 34.839844 14.644531 C 35.226562 14.601562 35.660156 14.558594 35.808594 14.546875 C 35.957031 14.535156 36.074219 14.515625 36.074219 14.503906 C 36.074219 14.441406 35.738281 14.054688 35.480469 13.824219 C 34.863281 13.265625 34.039062 12.894531 33.105469 12.75 C 32.789062 12.703125 32.09375 12.667969 31.824219 12.6875 Z M 31.824219 12.6875 "/>
<path style=" stroke:none;fill-rule:nonzero;fill:rgb(0%,0%,0%);fill-opacity:1;" d="M 13.285156 15.75 C 12.597656 15.796875 12.0625 16.03125 11.359375 16.613281 C 10.949219 16.945312 10.140625 17.796875 10.1875 17.84375 C 10.195312 17.855469 10.265625 17.871094 10.339844 17.878906 C 10.503906 17.898438 10.699219 17.816406 11.046875 17.578125 C 11.171875 17.492188 11.324219 17.398438 11.378906 17.371094 C 11.53125 17.3125 11.726562 17.316406 11.847656 17.390625 L 11.945312 17.453125 L 11.945312 17.730469 C 11.945312 17.960938 11.953125 18.015625 12.011719 18.089844 L 12.074219 18.175781 L 12.402344 18.152344 C 12.679688 18.132812 12.742188 18.140625 12.832031 18.183594 C 12.976562 18.257812 13.039062 18.320312 13.105469 18.453125 C 13.300781 18.847656 13.128906 19.199219 12.695312 19.292969 C 12.539062 19.324219 12.488281 19.320312 12.210938 19.253906 C 12.039062 19.214844 11.84375 19.179688 11.777344 19.175781 C 11.65625 19.175781 11.65625 19.179688 11.65625 19.285156 C 11.65625 19.34375 11.683594 19.480469 11.710938 19.585938 C 11.800781 19.914062 11.703125 20.109375 11.417969 20.1875 C 11.351562 20.207031 11.246094 20.214844 11.183594 20.203125 C 10.808594 20.136719 10.5625 19.957031 10.421875 19.644531 C 10.273438 19.3125 10.0625 19.097656 9.894531 19.097656 C 9.699219 19.097656 9.675781 19.464844 9.828125 19.976562 C 10.109375 20.886719 10.871094 21.855469 11.601562 22.234375 C 11.851562 22.363281 12.015625 22.417969 12.246094 22.453125 C 12.652344 22.511719 13.0625 22.34375 13.386719 21.988281 C 13.683594 21.660156 13.789062 21.414062 13.910156 20.75 C 13.941406 20.589844 14.179688 20.410156 14.695312 20.15625 C 15.265625 19.875 15.371094 19.78125 15.589844 19.355469 C 15.855469 18.847656 15.886719 18.296875 15.671875 17.804688 C 15.597656 17.628906 15.375 17.367188 15.214844 17.265625 C 15.144531 17.21875 14.996094 17.023438 14.761719 16.664062 C 14.203125 15.796875 14.050781 15.703125 13.285156 15.75 Z M 13.285156 15.75 "/>
<path style=" stroke:none;fill-rule:nonzero;fill:rgb(0%,0%,0%);fill-opacity:1;" d="M 3.761719 15.933594 C 3.722656 15.945312 3.671875 15.992188 3.644531 16.03125 C 3.550781 16.160156 3.582031 16.234375 3.792969 16.441406 C 4.023438 16.664062 4.046875 16.75 3.898438 16.875 C 3.828125 16.933594 3.769531 16.957031 3.683594 16.957031 C 3.445312 16.957031 3.308594 16.828125 3.136719 16.445312 C 3.011719 16.171875 2.96875 16.117188 2.859375 16.117188 C 2.730469 16.117188 2.652344 16.226562 2.652344 16.398438 C 2.652344 16.566406 2.71875 16.644531 2.902344 16.703125 C 3.015625 16.746094 3.136719 16.867188 3.136719 16.945312 C 3.136719 17.015625 2.953125 17.171875 2.828125 17.210938 C 2.582031 17.285156 2.316406 17.105469 2.15625 16.765625 C 2.035156 16.5 1.890625 16.449219 1.734375 16.613281 C 1.621094 16.730469 1.613281 16.867188 1.722656 16.972656 C 1.761719 17.015625 1.832031 17.050781 1.875 17.050781 C 2.0625 17.050781 2.21875 17.226562 2.144531 17.355469 C 2.125 17.386719 2.007812 17.460938 1.878906 17.527344 C 1.589844 17.675781 1.277344 17.714844 1.097656 17.617188 C 0.9375 17.535156 0.84375 17.371094 0.871094 17.234375 C 0.90625 17.066406 0.890625 16.953125 0.820312 16.871094 C 0.730469 16.78125 0.683594 16.78125 0.535156 16.882812 C 0.347656 17.007812 0.335938 17.035156 0.335938 17.324219 C 0.335938 17.617188 0.320312 17.660156 0.132812 17.839844 C -0.0664062 18.039062 -0.0546875 18.101562 0.265625 18.457031 C 0.414062 18.625 0.425781 18.648438 0.425781 18.789062 C 0.425781 19.003906 0.484375 19.039062 0.90625 19.066406 C 1.085938 19.078125 1.265625 19.105469 1.308594 19.128906 C 1.402344 19.179688 1.570312 19.144531 1.628906 19.058594 C 1.699219 18.957031 1.683594 18.835938 1.570312 18.570312 C 1.460938 18.328125 1.433594 18.152344 1.492188 18.046875 C 1.539062 17.953125 1.933594 17.644531 2.085938 17.574219 C 2.191406 17.527344 2.269531 17.511719 2.355469 17.523438 C 2.582031 17.554688 2.585938 17.675781 2.363281 17.917969 C 2.164062 18.128906 2.148438 18.214844 2.289062 18.339844 C 2.425781 18.453125 2.550781 18.4375 2.632812 18.292969 C 2.683594 18.203125 2.695312 18.136719 2.691406 17.917969 C 2.6875 17.703125 2.695312 17.628906 2.746094 17.550781 C 2.855469 17.363281 3.152344 17.234375 3.335938 17.296875 C 3.5 17.355469 3.527344 17.410156 3.433594 17.507812 C 3.332031 17.617188 3.230469 17.847656 3.230469 17.976562 C 3.230469 18.1875 3.488281 18.3125 3.625 18.160156 C 3.6875 18.09375 3.695312 18.039062 3.6875 17.738281 C 3.679688 17.507812 3.734375 17.371094 3.847656 17.3125 C 4.03125 17.210938 4.925781 17.324219 5.632812 17.53125 C 6.273438 17.71875 7.222656 18.136719 7.695312 18.4375 C 8.160156 18.734375 8.507812 18.882812 8.742188 18.882812 C 8.890625 18.882812 9.074219 18.765625 9.1875 18.609375 C 9.265625 18.492188 9.277344 18.445312 9.277344 18.277344 C 9.277344 18.042969 9.238281 17.992188 8.863281 17.703125 C 8.371094 17.328125 7.707031 17.050781 6.945312 16.894531 C 6.15625 16.734375 5.851562 16.71875 4.785156 16.789062 C 4.519531 16.804688 4.480469 16.800781 4.355469 16.734375 C 4.175781 16.636719 4.082031 16.457031 4.082031 16.203125 C 4.082031 15.945312 3.96875 15.84375 3.761719 15.933594 Z M 3.761719 15.933594 "/>
<path style=" stroke:none;fill-rule:nonzero;fill:rgb(0%,0%,0%);fill-opacity:1;" d="M 5.53125 18.523438 C 4.929688 18.613281 4.519531 18.757812 3.921875 19.105469 C 3.21875 19.507812 3 19.875 2.921875 20.78125 C 2.886719 21.1875 2.882812 21.199219 2.78125 21.3125 C 2.65625 21.457031 2.621094 21.546875 2.621094 21.71875 C 2.621094 21.902344 2.726562 22.074219 2.894531 22.167969 C 3.039062 22.246094 3.105469 22.246094 3.554688 22.1875 C 3.707031 22.167969 3.71875 22.171875 3.800781 22.261719 C 3.851562 22.3125 3.933594 22.464844 3.988281 22.597656 C 4.125 22.933594 4.21875 23.070312 4.351562 23.128906 C 4.636719 23.25 5.105469 22.988281 5.460938 22.503906 C 5.628906 22.269531 5.765625 22.007812 6.320312 20.824219 C 6.582031 20.273438 6.84375 20.046875 7.140625 20.113281 C 7.335938 20.15625 7.347656 20.167969 7.277344 20.332031 C 7.191406 20.542969 7 20.824219 6.605469 21.328125 C 6.265625 21.757812 5.988281 22.203125 5.914062 22.429688 C 5.703125 23.074219 5.945312 23.753906 6.453125 23.960938 C 6.582031 24.011719 6.65625 24.011719 6.9375 23.957031 C 7.230469 23.902344 7.402344 24.046875 7.675781 24.585938 C 7.910156 25.050781 8.164062 25.335938 8.414062 25.417969 C 8.664062 25.507812 9.007812 25.476562 9.273438 25.339844 C 9.402344 25.277344 9.496094 25.203125 9.535156 25.144531 C 9.617188 25.007812 9.929688 24.703125 10.269531 24.433594 C 10.59375 24.171875 10.84375 23.914062 10.921875 23.757812 C 10.96875 23.671875 10.976562 23.597656 10.960938 23.339844 C 10.933594 22.824219 10.796875 22.503906 10.199219 21.582031 C 9.800781 20.972656 9.664062 20.703125 9.519531 20.25 C 9.410156 19.910156 9.316406 19.71875 9.261719 19.71875 C 9.246094 19.71875 9.210938 19.757812 9.179688 19.800781 C 9.097656 19.933594 9.121094 20.160156 9.246094 20.511719 C 9.523438 21.28125 9.535156 21.316406 9.535156 21.519531 C 9.535156 21.792969 9.488281 21.9375 9.347656 22.066406 C 9.230469 22.175781 9.125 22.203125 9.019531 22.144531 C 8.984375 22.125 8.863281 21.992188 8.746094 21.851562 C 8.496094 21.542969 8.40625 21.492188 8.117188 21.496094 C 7.847656 21.503906 7.707031 21.453125 7.585938 21.316406 C 7.417969 21.113281 7.46875 20.816406 7.789062 20.183594 C 7.980469 19.8125 7.988281 19.785156 7.949219 19.703125 C 7.878906 19.5625 7.753906 19.488281 7.59375 19.492188 C 7.40625 19.496094 7.246094 19.570312 6.789062 19.863281 C 6.582031 19.996094 6.347656 20.136719 6.261719 20.175781 C 6.179688 20.21875 6.054688 20.285156 5.988281 20.324219 C 5.738281 20.480469 5.347656 20.398438 5.1875 20.152344 C 4.980469 19.832031 5.269531 19.378906 5.78125 19.222656 C 5.894531 19.1875 6.179688 19.128906 6.414062 19.082031 C 6.75 19.023438 6.890625 18.980469 7.066406 18.886719 C 7.191406 18.824219 7.296875 18.757812 7.304688 18.738281 C 7.316406 18.703125 6.976562 18.59375 6.6875 18.539062 C 6.386719 18.488281 5.828125 18.476562 5.53125 18.523438 Z M 5.53125 18.523438 "/>
<path style=" stroke:none;fill-rule:nonzero;fill:rgb(0%,0%,0%);fill-opacity:1;" d="M 10.492188 25.078125 C 10.3125 25.167969 10.074219 25.414062 9.949219 25.628906 C 9.660156 26.136719 9.5 27.035156 9.460938 28.402344 C 9.429688 29.476562 9.382812 29.804688 9.246094 29.894531 C 9.179688 29.9375 9.164062 29.9375 9.066406 29.890625 C 8.847656 29.78125 8.636719 29.402344 8.542969 28.941406 C 8.503906 28.742188 8.496094 28.589844 8.511719 28.292969 C 8.527344 27.808594 8.609375 27.398438 8.820312 26.738281 C 9.035156 26.058594 9.03125 26.082031 8.933594 26.105469 C 8.769531 26.144531 8.484375 26.300781 8.3125 26.4375 C 8.011719 26.6875 7.734375 27.195312 7.597656 27.757812 C 7.511719 28.082031 7.523438 28.972656 7.609375 29.292969 C 7.804688 30.011719 8.171875 30.585938 8.710938 31.03125 C 8.960938 31.234375 9.464844 31.523438 9.578125 31.523438 C 9.730469 31.523438 9.863281 31.386719 9.933594 31.164062 C 10 30.945312 10.222656 30.550781 10.683594 29.824219 C 11.371094 28.75 11.628906 28.164062 11.75 27.433594 C 11.808594 27.070312 11.792969 26.511719 11.71875 26.226562 C 11.597656 25.777344 11.277344 25.265625 11.015625 25.109375 C 10.8125 24.988281 10.683594 24.976562 10.492188 25.078125 Z M 10.492188 25.078125 "/>
<path style=" stroke:none;fill-rule:nonzero;fill:rgb(0%,0%,0%);fill-opacity:1;" d="M 18.539062 25.765625 C 18.507812 25.777344 18.441406 25.800781 18.386719 25.824219 C 18.339844 25.84375 18.179688 25.902344 18.039062 25.945312 C 17.695312 26.058594 17.289062 26.277344 17 26.492188 C 16.53125 26.855469 16.0625 27.433594 15.839844 27.9375 C 15.5625 28.5625 15.8125 29.277344 16.46875 29.726562 C 16.667969 29.863281 16.75 29.898438 17.046875 29.953125 C 17.597656 30.058594 17.730469 30.160156 17.863281 30.574219 C 18.09375 31.265625 18.59375 31.765625 19.210938 31.925781 C 19.871094 32.097656 20.496094 31.886719 20.835938 31.375 C 20.960938 31.1875 21.128906 31.058594 21.539062 30.839844 C 21.949219 30.613281 22.078125 30.5 22.183594 30.261719 C 22.359375 29.867188 22.375 29.34375 22.226562 28.792969 C 22.042969 28.101562 21.371094 27.183594 20.507812 26.433594 C 20.265625 26.21875 20.230469 26.21875 20.230469 26.433594 C 20.230469 26.597656 20.296875 26.753906 20.484375 27.050781 C 20.753906 27.476562 20.820312 27.625 20.796875 27.75 C 20.785156 27.8125 20.726562 27.917969 20.667969 27.984375 C 20.574219 28.085938 20.542969 28.105469 20.4375 28.105469 C 20.34375 28.105469 20.300781 28.085938 20.242188 28.015625 C 20.167969 27.933594 20.15625 27.929688 20.089844 27.96875 C 19.988281 28.039062 19.976562 28.085938 19.957031 28.5625 L 19.941406 29.003906 L 19.839844 29.113281 C 19.640625 29.320312 19.394531 29.371094 19.171875 29.257812 C 19.023438 29.179688 18.9375 29.085938 18.863281 28.914062 C 18.765625 28.691406 18.78125 28.515625 18.921875 28.191406 C 19.070312 27.855469 19.089844 27.765625 19.035156 27.6875 C 18.996094 27.632812 18.984375 27.632812 18.769531 27.746094 C 18.269531 28 17.914062 27.8125 17.957031 27.320312 C 17.992188 26.921875 18.316406 26.523438 18.789062 26.296875 C 19.035156 26.179688 19.132812 26.09375 19.132812 25.992188 C 19.132812 25.839844 18.78125 25.707031 18.539062 25.765625 Z M 18.539062 25.765625 "/>
</g>
</svg>
