<?xml version="1.0" encoding="UTF-8"?>
<svg xmlns="http://www.w3.org/2000/svg" xmlns:xlink="http://www.w3.org/1999/xlink" width="100pt" height="81pt" viewBox="0 0 100 81" version="1.1">
<g id="surface1">
<path style=" stroke:none;fill-rule:nonzero;fill:rgb(0%,0%,0%);fill-opacity:1;" d="M 54.300781 0.0859375 C 52.066406 0.371094 50.523438 1.476562 49.515625 3.5 C 49.164062 4.207031 48.878906 5.039062 48.347656 6.878906 C 47.707031 9.082031 47.371094 9.90625 46.730469 10.851562 C 46.347656 11.410156 45.984375 11.753906 45.617188 11.914062 C 45.335938 12.03125 45.296875 12.03125 45.117188 11.914062 C 44.726562 11.652344 44.601562 10.945312 44.789062 10.050781 C 44.835938 9.820312 45.101562 9.058594 45.382812 8.359375 C 46.136719 6.433594 46.285156 5.785156 46.292969 4.402344 C 46.300781 3.394531 46.277344 3.191406 46.113281 2.691406 C 45.90625 2.027344 45.484375 1.335938 45.015625 0.867188 L 44.695312 0.542969 L 43.9375 0.949219 C 39.859375 3.167969 37.914062 5.921875 37.914062 9.480469 C 37.914062 10.992188 38.179688 12.242188 38.898438 14.152344 C 39.53125 15.8125 39.578125 16.015625 39.585938 16.710938 C 39.59375 17.21875 39.5625 17.410156 39.40625 17.714844 C 38.9375 18.671875 37.953125 18.472656 37.613281 17.335938 C 37.414062 16.703125 37.332031 16.054688 37.136719 13.664062 C 37.046875 12.597656 36.910156 11.320312 36.824219 10.835938 C 36.542969 9.167969 36.019531 7.808594 35.371094 7.082031 C 34.542969 6.15625 32.523438 5.566406 29.925781 5.488281 L 29.152344 5.464844 L 28.890625 6.25 C 27.710938 9.726562 27.648438 12.109375 28.664062 14.28125 C 29.34375 15.71875 30.160156 16.773438 32.695312 19.445312 C 33.554688 20.351562 34.359375 21.269531 34.484375 21.488281 C 34.835938 22.09375 35.21875 23.382812 35.226562 23.925781 C 35.226562 24.351562 35.203125 24.40625 34.964844 24.621094 C 34.515625 25.027344 33.71875 24.871094 33.328125 24.296875 C 33.234375 24.148438 33.039062 23.675781 32.90625 23.242188 C 31.855469 19.808594 30.167969 17.574219 28.28125 17.109375 C 28.023438 17.054688 27.671875 16.9375 27.507812 16.863281 C 26.796875 16.558594 25.464844 16.640625 23.996094 17.070312 C 23.269531 17.289062 22.109375 17.785156 21.710938 18.046875 L 21.546875 18.15625 L 21.84375 19.082031 C 22.007812 19.59375 22.359375 20.75 22.625 21.65625 C 23.539062 24.785156 24.269531 26.285156 25.417969 27.371094 C 26.027344 27.953125 26.59375 28.277344 27.625 28.628906 C 28.609375 28.964844 29.535156 28.980469 30.738281 28.683594 C 31.886719 28.394531 32.210938 28.355469 32.734375 28.464844 C 33.328125 28.589844 33.539062 28.699219 34.0625 29.171875 C 34.515625 29.589844 34.613281 29.636719 34.6875 29.445312 C 34.773438 29.234375 34.644531 28.957031 34.289062 28.558594 C 33.78125 27.992188 33.023438 27.503906 31.832031 26.976562 C 31.253906 26.726562 30.558594 26.390625 30.285156 26.230469 C 28.53125 25.183594 26.726562 23.257812 26.214844 21.851562 C 26.042969 21.402344 26.042969 21.378906 26.175781 21.230469 C 26.535156 20.828125 27.734375 21.199219 29.097656 22.117188 C 30.527344 23.085938 31.632812 24.179688 32.914062 25.902344 C 33.890625 27.207031 34.234375 27.480469 34.890625 27.480469 C 35.265625 27.480469 35.371094 27.441406 35.621094 27.238281 C 36.222656 26.75 36.730469 25.53125 36.800781 24.414062 C 36.925781 22.347656 35.878906 19.734375 33.84375 17.046875 C 32.367188 15.089844 31.574219 12.832031 31.695312 10.9375 C 31.761719 9.976562 31.976562 9.515625 32.367188 9.515625 C 32.890625 9.515625 34.304688 11.535156 35.226562 13.585938 C 35.847656 14.96875 36.035156 15.632812 36.207031 16.945312 C 36.480469 19.089844 36.933594 20.445312 37.613281 21.191406 C 38.132812 21.757812 38.5625 21.90625 39.039062 21.6875 C 39.351562 21.542969 40.117188 20.277344 40.601562 19.097656 C 41.589844 16.679688 41.628906 14.601562 40.761719 11.402344 C 40.464844 10.308594 40.425781 9.324219 40.640625 8.53125 C 40.957031 7.367188 41.746094 5.898438 42.386719 5.277344 C 42.945312 4.734375 43.089844 5.15625 43.050781 7.226562 C 43.019531 8.679688 43.011719 8.703125 42.613281 10.324219 C 42.066406 12.527344 41.949219 13.28125 41.988281 14.257812 C 42.011719 14.921875 42.050781 15.113281 42.207031 15.402344 C 42.828125 16.519531 44.5625 16.214844 45.992188 14.75 C 47.183594 13.523438 48.105469 11.945312 49.324219 9.050781 C 50.578125 6.070312 51.359375 4.796875 51.933594 4.796875 C 52.746094 4.796875 52.269531 6.363281 50.703125 8.847656 C 49.984375 9.984375 49.703125 10.59375 49.695312 11.007812 C 49.695312 11.628906 49.976562 11.621094 51.421875 10.976562 C 55.601562 9.113281 59.066406 8.398438 61.40625 8.933594 C 61.695312 8.996094 61.988281 9.097656 62.070312 9.152344 C 62.1875 9.238281 62.054688 9.246094 61.273438 9.214844 C 57.597656 9.066406 52.878906 10.851562 47.769531 14.328125 C 43.1875 17.441406 39.703125 21.78125 37.375 27.261719 C 36.535156 29.25 35.652344 32.136719 35.652344 32.890625 C 35.652344 33.238281 35.683594 33.316406 35.957031 33.582031 C 36.191406 33.828125 36.316406 33.890625 36.535156 33.890625 C 36.839844 33.890625 36.902344 33.828125 37.015625 33.425781 C 37.0625 33.277344 37.191406 33.085938 37.308594 33 C 37.484375 32.867188 37.546875 32.859375 37.742188 32.9375 C 37.875 32.992188 38.0625 33.125 38.164062 33.238281 C 38.359375 33.449219 38.367188 33.527344 38.304688 35.816406 C 38.28125 36.710938 38.296875 36.898438 38.453125 37.363281 C 38.984375 38.960938 40.691406 40.449219 42.597656 40.964844 C 43.78125 41.296875 45.5 41.203125 46.855469 40.738281 L 47.300781 40.589844 L 47.246094 41.351562 C 47.144531 42.679688 46.777344 44.285156 46.390625 45.039062 C 46.152344 45.496094 46.324219 45.304688 46.910156 44.441406 C 49.070312 41.289062 50.296875 38.253906 50.53125 35.460938 C 50.601562 34.566406 50.6875 34.933594 50.703125 36.21875 C 50.71875 37.585938 50.398438 39.714844 49.992188 40.925781 C 49.898438 41.226562 49.875 41.242188 49.53125 41.265625 C 48.976562 41.304688 48.902344 41.429688 48.839844 42.476562 C 48.804688 42.960938 48.742188 43.433594 48.695312 43.523438 C 48.496094 43.914062 48.371094 44.277344 48.371094 44.496094 C 48.371094 44.691406 48.417969 44.761719 48.585938 44.828125 C 49.039062 45.007812 49.953125 44.707031 50.671875 44.160156 C 50.992188 43.914062 51.054688 43.898438 51.261719 43.96875 C 51.714844 44.128906 52.894531 45.800781 52.691406 46 C 52.652344 46.03125 52.425781 46.117188 52.191406 46.179688 L 51.765625 46.304688 L 51.527344 46.078125 C 51.125 45.675781 50.710938 45.792969 50.523438 46.351562 C 50.414062 46.65625 50.398438 46.675781 49.804688 46.839844 C 49.070312 47.042969 48.472656 47.058594 46.496094 46.925781 C 44.898438 46.824219 44.039062 46.894531 43.414062 47.167969 C 43.105469 47.3125 43.066406 47.3125 42.972656 47.203125 C 42.707031 46.871094 41.996094 46.769531 41.535156 46.988281 C 40.910156 47.289062 40.679688 47.878906 40.941406 48.496094 C 41.433594 49.648438 41.089844 50.519531 40.21875 50.351562 C 39.625 50.246094 39.109375 50.558594 38.804688 51.226562 C 38.421875 52.046875 38.601562 52.710938 39.421875 53.5625 C 40.273438 54.433594 40.972656 54.84375 44.78125 56.675781 C 45.402344 56.976562 45.90625 57.398438 46.105469 57.800781 C 46.300781 58.179688 46.308594 58.734375 46.128906 58.964844 L 45.992188 59.128906 L 45.53125 58.886719 C 44.9375 58.578125 44.375 58.195312 43.472656 57.46875 C 43.066406 57.148438 42.535156 56.722656 42.277344 56.527344 C 41.683594 56.054688 40.738281 55.558594 40.132812 55.402344 C 39.867188 55.332031 39.335938 55.277344 38.960938 55.277344 C 38.484375 55.277344 38.109375 55.222656 37.773438 55.121094 C 37.230469 54.945312 36.566406 54.914062 36.222656 55.046875 C 35.980469 55.136719 35.910156 55.214844 35.308594 56.070312 C 34.421875 57.328125 33.570312 57.792969 31.933594 57.925781 C 31.574219 57.949219 31.285156 57.996094 31.285156 58.03125 C 31.285156 58.101562 32.445312 59.222656 32.929688 59.625 C 33.132812 59.78125 33.476562 60.019531 33.695312 60.136719 L 34.09375 60.355469 L 33.65625 60.789062 C 33.414062 61.023438 33.15625 61.316406 33.078125 61.433594 L 32.9375 61.660156 L 32.101562 60.84375 C 31.277344 60.042969 30.457031 59.089844 30.050781 58.445312 C 29.933594 58.265625 29.8125 58.117188 29.777344 58.109375 C 29.746094 58.109375 29.660156 58.234375 29.597656 58.382812 C 29.4375 58.78125 29.457031 59.972656 29.644531 60.773438 C 29.855469 61.660156 30.519531 63.335938 30.886719 63.902344 C 31.878906 65.453125 33.257812 66.339844 35.121094 66.636719 C 35.371094 66.675781 35.464844 66.757812 35.722656 67.132812 C 36.058594 67.636719 36.597656 68.164062 36.988281 68.382812 C 37.414062 68.613281 38.328125 68.566406 39.234375 68.257812 C 40.226562 67.921875 40.902344 67.550781 42.605469 66.433594 C 44.570312 65.144531 45.335938 64.757812 46.246094 64.59375 C 47.324219 64.40625 47.566406 64.242188 47.355469 63.839844 C 47.269531 63.683594 47.222656 63.675781 46.738281 63.722656 C 46.097656 63.792969 45.792969 63.863281 44.507812 64.242188 C 43.953125 64.40625 43.304688 64.601562 43.082031 64.664062 L 42.667969 64.78125 L 42.972656 64.429688 C 43.359375 63.988281 43.53125 63.628906 43.53125 63.273438 C 43.53125 63.117188 43.390625 62.589844 43.210938 62.101562 C 42.675781 60.589844 42.652344 60.496094 42.707031 60.261719 C 42.78125 59.972656 43.21875 59.554688 43.53125 59.492188 C 43.945312 59.414062 44.453125 59.4375 44.734375 59.554688 C 44.875 59.609375 45.195312 59.820312 45.453125 60.011719 C 46.214844 60.597656 46.683594 60.804688 47.175781 60.765625 C 47.699219 60.71875 47.933594 60.511719 47.925781 60.121094 C 47.917969 59.941406 47.644531 59.328125 47.113281 58.289062 C 45.671875 55.480469 45.5625 55.238281 45.515625 54.882812 C 45.453125 54.386719 45.601562 53.886719 45.914062 53.570312 C 46.121094 53.359375 46.230469 53.3125 46.496094 53.3125 C 46.925781 53.3125 47.285156 53.492188 47.621094 53.871094 C 47.949219 54.230469 48.121094 54.558594 48.570312 55.679688 C 48.855469 56.402344 48.917969 56.660156 48.984375 57.421875 C 49.070312 58.359375 49.234375 58.972656 49.4375 59.144531 C 49.632812 59.300781 49.820312 58.988281 50.023438 58.125 C 50.179688 57.445312 50.203125 57.171875 50.203125 55.75 C 50.195312 54.199219 50.148438 53.765625 49.882812 52.894531 C 49.851562 52.792969 49.882812 52.761719 50.03125 52.761719 C 50.179688 52.761719 50.328125 52.902344 50.679688 53.367188 C 50.929688 53.703125 51.445312 54.300781 51.820312 54.695312 L 52.496094 55.402344 L 52.238281 56.109375 C 51.746094 57.4375 50.960938 59.113281 50.398438 60.042969 C 49.578125 61.386719 49.351562 61.945312 49.347656 62.636719 C 49.347656 63.125 49.367188 63.226562 49.554688 63.46875 C 49.890625 63.917969 50.28125 64.117188 50.796875 64.125 C 51.367188 64.125 51.519531 64.003906 52.207031 63.101562 C 53.160156 61.84375 53.878906 60.128906 54.277344 58.164062 C 54.386719 57.589844 54.492188 57.109375 54.507812 57.09375 C 54.515625 57.078125 54.601562 57.125 54.699219 57.210938 C 54.804688 57.3125 54.84375 57.421875 54.820312 57.558594 C 54.617188 58.625 54.4375 59.414062 54.371094 59.492188 C 54.15625 59.75 54.507812 60.074219 55 60.074219 C 55.242188 60.074219 55.421875 59.863281 55.351562 59.65625 C 55.304688 59.546875 55.851562 58.742188 56.148438 58.476562 C 56.3125 58.335938 56.335938 58.34375 57.527344 59.027344 C 58.191406 59.40625 58.738281 59.734375 58.738281 59.757812 C 58.746094 59.78125 58.667969 59.835938 58.566406 59.886719 C 57.542969 60.382812 55.398438 61.527344 55.265625 61.652344 C 55.171875 61.742188 55.078125 61.90625 55.054688 62.015625 C 55.023438 62.195312 55.039062 62.210938 55.265625 62.179688 C 55.398438 62.15625 55.914062 62.015625 56.40625 61.867188 C 57.769531 61.433594 58.371094 61.324219 59.605469 61.277344 C 61.351562 61.214844 61.617188 61.277344 63.144531 62.117188 C 63.847656 62.503906 64.472656 62.839844 64.542969 62.863281 C 64.644531 62.902344 64.636719 62.816406 64.527344 62.164062 L 64.394531 61.410156 L 65.035156 61.09375 C 65.535156 60.851562 65.773438 60.671875 66.148438 60.261719 C 66.40625 59.972656 66.625 59.6875 66.625 59.632812 C 66.625 59.421875 67.023438 59.515625 67.289062 59.78125 C 67.609375 60.105469 67.722656 60.472656 67.769531 61.332031 C 67.808594 61.953125 67.792969 62.054688 67.570312 62.628906 C 67.429688 62.972656 67.03125 63.816406 66.679688 64.492188 L 66.03125 65.734375 L 65.648438 65.214844 C 64.863281 64.164062 63.339844 63.203125 61.828125 62.808594 C 61.203125 62.652344 60.945312 62.628906 59.523438 62.628906 C 57.863281 62.628906 57.355469 62.683594 56.015625 63.023438 C 54.640625 63.367188 53.714844 63.714844 53.640625 63.902344 C 53.613281 63.972656 53.613281 64.042969 53.636719 64.066406 C 53.65625 64.09375 53.964844 64.042969 54.316406 63.957031 C 54.800781 63.847656 55.234375 63.808594 56.054688 63.816406 C 57.003906 63.824219 57.238281 63.847656 57.847656 64.035156 C 58.855469 64.34375 59.761719 64.84375 59.953125 65.214844 L 60.113281 65.507812 L 59.898438 65.695312 C 59.777344 65.796875 59.488281 65.949219 59.246094 66.027344 C 58.746094 66.179688 58.582031 66.394531 58.730469 66.710938 C 58.769531 66.8125 59.066406 67.101562 59.378906 67.355469 C 60.152344 67.992188 60.460938 68.453125 60.460938 68.996094 C 60.460938 69.761719 59.9375 70.097656 59.136719 69.855469 C 58.769531 69.746094 58.582031 69.59375 57.457031 68.492188 C 55.804688 66.867188 54.898438 66.222656 53.703125 65.828125 C 52.871094 65.554688 52.816406 65.546875 52.816406 65.765625 C 52.816406 65.996094 53.152344 66.402344 53.582031 66.699219 C 53.917969 66.9375 54.800781 67.945312 55.476562 68.847656 C 56.140625 69.738281 56.835938 70.964844 57.394531 72.214844 C 58.503906 74.683594 58.566406 74.800781 59.269531 75.507812 C 59.539062 75.792969 59.914062 76.066406 60.226562 76.21875 C 60.6875 76.433594 60.804688 76.46875 61.476562 76.46875 C 62.09375 76.46875 62.269531 76.433594 62.539062 76.292969 C 62.933594 76.082031 63.339844 75.625 63.402344 75.320312 C 63.457031 75.019531 63.769531 74.777344 64.097656 74.777344 C 64.246094 74.777344 64.605469 74.816406 64.902344 74.871094 C 65.3125 74.941406 65.519531 74.941406 65.734375 74.871094 C 66.023438 74.785156 66.03125 74.785156 66.515625 75.242188 C 66.78125 75.492188 67.378906 75.957031 67.832031 76.265625 C 68.675781 76.828125 70.574219 77.828125 70.648438 77.742188 C 70.671875 77.71875 70.636719 77.609375 70.566406 77.496094 C 70.277344 77.058594 70.542969 76.378906 71.523438 75.011719 C 73.238281 72.636719 73.972656 71.339844 74.394531 69.941406 C 74.589844 69.296875 74.613281 69.117188 74.613281 67.9375 C 74.621094 66.285156 74.519531 65.914062 73.53125 63.886719 C 73.132812 63.0625 72.75 62.203125 72.679688 61.96875 C 72.53125 61.472656 72.515625 60.605469 72.640625 60.363281 C 73.03125 59.59375 73.75 59.65625 74.800781 60.535156 C 75.503906 61.125 76.09375 61.890625 76.515625 62.730469 C 76.84375 63.398438 76.875 63.515625 76.90625 64.15625 C 76.945312 65.027344 76.84375 65.5 76.09375 67.796875 C 75.417969 69.886719 75.285156 70.484375 75.277344 71.394531 C 75.277344 72.222656 75.371094 72.660156 75.753906 73.496094 C 76.398438 74.902344 77.429688 75.972656 80.058594 77.953125 L 80.339844 78.167969 L 80.769531 77.585938 C 81.003906 77.261719 81.777344 76.394531 82.484375 75.65625 C 83.96875 74.117188 84.273438 73.628906 84.414062 72.566406 C 84.59375 71.269531 83.984375 69.027344 82.84375 66.742188 C 82.53125 66.113281 82.53125 65.648438 82.851562 65.324219 C 83.070312 65.113281 83.132812 65.089844 83.4375 65.121094 C 84.132812 65.207031 85.03125 66.136719 85.761719 67.535156 C 86.222656 68.40625 86.511719 69.289062 86.90625 71.042969 C 87.089844 71.820312 87.335938 72.769531 87.464844 73.164062 C 88.132812 75.179688 89.554688 76.8125 91.511719 77.804688 C 92.355469 78.226562 93.027344 78.457031 94.617188 78.867188 C 95.574219 79.109375 95.910156 79.171875 95.996094 79.101562 C 96.210938 78.929688 96.886719 77.867188 97.230469 77.175781 C 97.707031 76.210938 98.050781 75.074219 98.160156 74.046875 C 98.246094 73.308594 98.238281 73.085938 98.117188 72.402344 C 97.886719 71.011719 97.285156 69.902344 96.226562 68.886719 C 95.40625 68.101562 94.695312 67.652344 92.839844 66.742188 C 90.246094 65.476562 89.867188 65.246094 89.570312 64.757812 C 89.390625 64.46875 89.359375 64.085938 89.5 63.941406 C 89.789062 63.652344 90.792969 63.933594 92.605469 64.789062 C 94.078125 65.492188 94.570312 65.671875 95.484375 65.84375 C 96.285156 66.003906 96.777344 66.003906 97.464844 65.851562 C 98.386719 65.65625 99.136719 65.222656 99.664062 64.570312 L 99.882812 64.308594 L 99.664062 63.902344 C 99.191406 63.003906 98.386719 61.890625 97.753906 61.246094 C 96.996094 60.464844 96.238281 59.949219 95.359375 59.59375 C 93.792969 58.957031 92.394531 58.902344 89.007812 59.335938 C 87.019531 59.585938 86.660156 59.617188 85.542969 59.578125 C 84.265625 59.53125 83.742188 59.4375 83 59.121094 C 82.5625 58.925781 82.226562 58.578125 82.226562 58.304688 C 82.226562 57.832031 83.101562 57.265625 84.109375 57.09375 C 84.390625 57.046875 85.023438 57.007812 85.519531 57.007812 C 88.710938 57.007812 90.910156 56.226562 92.019531 54.71875 C 92.363281 54.246094 92.628906 53.65625 92.71875 53.144531 L 92.765625 52.871094 L 91.886719 52.234375 C 89.664062 50.644531 87.535156 49.664062 85.597656 49.339844 C 84.507812 49.160156 82.851562 49.207031 81.929688 49.449219 C 79.941406 49.976562 78.367188 51.054688 76.460938 53.183594 C 75.941406 53.773438 75.480469 54.253906 75.441406 54.253906 C 75.402344 54.253906 75.222656 54.066406 75.035156 53.832031 C 74.847656 53.601562 74.488281 53.167969 74.242188 52.886719 C 73.988281 52.59375 73.796875 52.351562 73.8125 52.335938 C 73.828125 52.320312 74.597656 51.871094 75.519531 51.34375 C 76.4375 50.816406 77.5625 50.144531 78.015625 49.84375 C 78.671875 49.417969 78.953125 49.285156 79.378906 49.191406 C 80.128906 49.023438 82.703125 48.375 82.882812 48.296875 C 83.007812 48.238281 82.90625 48.128906 82.226562 47.578125 C 81.789062 47.226562 81.371094 46.894531 81.292969 46.847656 C 81.167969 46.769531 81.167969 46.738281 81.269531 46.480469 C 81.53125 45.839844 81.476562 44.921875 81.082031 43.277344 C 81.050781 43.136719 81.105469 43.105469 81.699219 42.976562 C 82.058594 42.898438 83.328125 42.5625 84.53125 42.226562 C 85.730469 41.886719 86.90625 41.570312 87.144531 41.515625 C 87.375 41.46875 87.625 41.40625 87.6875 41.390625 C 87.757812 41.367188 87.558594 41.1875 87.144531 40.917969 C 85.324219 39.722656 83.375 38.875 81.191406 38.339844 C 79.609375 37.9375 78.65625 37.8125 76.921875 37.765625 C 74.699219 37.703125 72.757812 37.960938 70.839844 38.582031 L 70.175781 38.796875 L 71.382812 38.859375 C 72.046875 38.890625 73.039062 38.96875 73.582031 39.039062 C 74.753906 39.179688 76.691406 39.542969 76.691406 39.621094 C 76.691406 39.769531 75.285156 39.890625 73.421875 39.90625 C 71.335938 39.921875 69.996094 40.039062 69.925781 40.226562 C 69.902344 40.28125 69.933594 40.457031 69.980469 40.613281 C 70.105469 40.980469 70.511719 41.25 71.21875 41.414062 L 71.773438 41.546875 L 70.679688 42.664062 L 70.035156 42.601562 C 68.902344 42.492188 67.070312 42.671875 66.351562 42.960938 L 66.117188 43.058594 L 66.664062 43.269531 C 67.25 43.488281 68.070312 43.703125 69.121094 43.914062 C 69.488281 43.992188 69.792969 44.058594 69.808594 44.074219 C 69.824219 44.089844 69.472656 44.890625 69.378906 45.046875 C 69.371094 45.0625 68.878906 45 68.285156 44.90625 C 67.691406 44.816406 66.789062 44.707031 66.265625 44.667969 C 65.257812 44.59375 63.839844 44.636719 63.769531 44.753906 C 63.683594 44.898438 63.816406 45.171875 64.105469 45.480469 C 64.488281 45.871094 65.304688 46.265625 66.976562 46.855469 C 67.707031 47.105469 68.355469 47.34375 68.429688 47.375 C 68.542969 47.421875 68.542969 47.46875 68.40625 47.910156 C 68.324219 48.167969 68.238281 48.40625 68.222656 48.421875 C 68.199219 48.441406 67.96875 48.359375 67.699219 48.238281 C 66.328125 47.632812 64.417969 47.105469 62.855469 46.902344 C 61.890625 46.777344 59.214844 46.738281 59.214844 46.847656 C 59.214844 47.042969 60.304688 47.632812 62.140625 48.433594 C 63.855469 49.183594 65.25 49.890625 65.804688 50.300781 C 66.570312 50.863281 65.875 50.667969 63.519531 49.65625 C 60.742188 48.457031 59.636719 48.121094 58.519531 48.113281 C 57.566406 48.105469 57.363281 48.304688 57.644531 48.945312 C 57.839844 49.386719 58.457031 50.054688 59.160156 50.582031 L 59.683594 50.976562 L 59.371094 51.117188 C 59.199219 51.195312 58.902344 51.367188 58.714844 51.496094 L 58.371094 51.738281 L 57.660156 51.3125 C 57.269531 51.085938 56.851562 50.847656 56.726562 50.792969 L 56.492188 50.699219 L 56.65625 50.480469 C 56.941406 50.085938 56.621094 49.457031 56.140625 49.457031 C 55.851562 49.457031 55.804688 49.488281 55.523438 49.867188 L 55.3125 50.160156 L 54.746094 49.945312 C 54.421875 49.828125 54.15625 49.710938 54.15625 49.671875 C 54.054688 49.167969 54.4375 48.734375 55.429688 48.246094 C 56 47.972656 56.179688 47.847656 56.21875 47.695312 C 56.320312 47.28125 56.023438 46.988281 55.515625 46.988281 C 55.148438 46.988281 54.867188 47.203125 54.777344 47.546875 C 54.730469 47.710938 54.632812 47.925781 54.570312 48.019531 C 54.410156 48.246094 54.039062 48.257812 53.824219 48.035156 C 53.621094 47.832031 53.410156 47.335938 53.496094 47.257812 C 53.527344 47.226562 54.085938 47.050781 54.730469 46.863281 C 56.582031 46.335938 58.621094 45.550781 60.191406 44.753906 C 60.84375 44.425781 62.507812 43.316406 63.738281 42.390625 C 66.914062 40 69.949219 36.925781 72.34375 33.691406 C 75.980469 28.789062 78.390625 23.382812 79.535156 17.550781 C 79.65625 16.96875 79.722656 16.480469 79.710938 16.457031 C 79.6875 16.441406 79.59375 16.773438 79.496094 17.195312 C 78.65625 20.945312 77.1875 24.398438 74.769531 28.347656 C 71.710938 33.347656 67.445312 37.929688 62.871094 41.128906 C 60.882812 42.523438 57.957031 44.136719 56.054688 44.890625 L 55.273438 45.195312 L 55.195312 44.960938 C 55.085938 44.636719 54.804688 44.425781 54.5 44.425781 C 54.179688 44.425781 53.949219 44.675781 53.886719 45.085938 C 53.824219 45.503906 53.527344 45.800781 53.253906 45.730469 C 52.839844 45.628906 52.347656 44.527344 52.347656 43.71875 C 52.347656 43.175781 52.464844 42.882812 52.816406 42.585938 C 53.066406 42.382812 53.441406 42.3125 53.441406 42.46875 C 53.441406 42.648438 53.121094 43.804688 52.972656 44.152344 C 52.800781 44.5625 52.769531 44.976562 52.910156 44.976562 C 52.964844 44.976562 53.308594 44.667969 53.671875 44.285156 C 55.546875 42.367188 56.828125 39.339844 57.1875 36.011719 C 57.300781 34.886719 57.339844 34.675781 57.402344 34.675781 C 57.582031 34.675781 57.980469 35.027344 58.128906 35.320312 C 58.386719 35.824219 58.308594 36.859375 57.886719 38.527344 C 57.613281 39.613281 57.558594 39.960938 57.550781 40.652344 C 57.535156 41.375 57.558594 41.523438 57.722656 41.863281 L 57.910156 42.242188 L 58.183594 41.824219 C 58.847656 40.777344 59.394531 39.386719 59.699219 37.945312 C 59.914062 36.867188 59.9375 34.472656 59.738281 33.300781 C 59.574219 32.371094 59.144531 30.789062 58.855469 30.050781 C 58.285156 28.597656 57.203125 26.671875 56.390625 25.695312 L 56.085938 25.328125 L 56.460938 25.277344 C 57.066406 25.199219 57.800781 25.011719 58.425781 24.769531 C 58.746094 24.644531 59.019531 24.546875 59.027344 24.558594 C 59.035156 24.566406 59.121094 24.980469 59.214844 25.476562 C 59.324219 26.011719 59.730469 27.378906 60.203125 28.816406 C 61.515625 32.75 61.882812 34.078125 62.109375 35.699219 C 62.234375 36.648438 62.21875 38.589844 62.070312 39.347656 C 61.996094 39.691406 61.957031 39.984375 61.972656 40 C 62.03125 40.054688 62.800781 38.292969 62.992188 37.6875 C 63.894531 34.753906 63.847656 31.074219 62.839844 26.515625 C 62.621094 25.546875 62.621094 25.5625 62.839844 25.910156 C 64.292969 28.1875 65.214844 32.605469 64.878906 35.59375 C 64.800781 36.265625 64.871094 36.40625 65.257812 36.40625 C 65.6875 36.40625 66.359375 35.816406 66.71875 35.117188 C 66.84375 34.878906 66.890625 34.636719 66.90625 34.203125 C 66.90625 33.882812 66.976562 33.277344 67.054688 32.867188 C 67.347656 31.308594 67.210938 29.179688 66.695312 27.519531 C 65.589844 23.917969 62.863281 20.625 59.355469 18.652344 C 59.105469 18.511719 58.886719 18.398438 58.863281 18.398438 C 58.839844 18.398438 58.824219 18.496094 58.824219 18.613281 C 58.824219 18.792969 58.785156 18.753906 58.519531 18.351562 C 57.464844 16.695312 55.59375 15.78125 52.675781 15.488281 C 51.460938 15.363281 51.183594 15.277344 50.96875 14.945312 C 50.75 14.625 50.742188 14.429688 50.9375 14.105469 C 51.230469 13.617188 52.066406 13.367188 53.417969 13.367188 C 54.460938 13.367188 55.296875 13.539062 57.386719 14.183594 C 59.992188 14.984375 60.90625 15.128906 62.164062 14.90625 C 62.5625 14.839844 63.011719 14.726562 63.160156 14.664062 C 63.300781 14.601562 63.425781 14.585938 63.425781 14.617188 C 63.425781 14.890625 63.785156 17.296875 63.949219 18.125 C 64.136719 19.082031 64.222656 19.3125 65.351562 21.882812 C 67.847656 27.566406 68.566406 29.785156 69.089844 33.535156 C 69.144531 33.914062 69.152344 33.898438 69.324219 32.867188 C 69.832031 29.800781 69.769531 26.003906 69.167969 23.472656 C 69.105469 23.210938 69.066406 22.992188 69.082031 22.976562 C 69.136719 22.917969 69.488281 23.550781 69.644531 23.980469 C 69.988281 24.910156 70.246094 26.261719 70.597656 29.085938 C 70.71875 30.09375 70.847656 30.933594 70.863281 30.949219 C 70.925781 31.011719 71.242188 29.808594 71.398438 28.894531 C 71.609375 27.621094 71.570312 25.390625 71.316406 24.140625 C 70.449219 20.050781 68.023438 16.625 64.636719 14.710938 L 63.964844 14.328125 L 64.433594 14.042969 C 65.097656 13.632812 65.96875 12.785156 66.78125 11.753906 C 67.164062 11.257812 67.515625 10.84375 67.5625 10.8125 C 67.699219 10.726562 67.648438 10.527344 67.28125 9.796875 C 66.742188 8.710938 65.804688 7.359375 65.027344 6.542969 C 63.621094 5.054688 62.488281 4.484375 60.953125 4.484375 C 59.363281 4.484375 58.082031 5.101562 55.65625 7.050781 C 54.222656 8.210938 53.640625 8.609375 53.199219 8.777344 C 52.652344 8.964844 52.191406 8.816406 52.191406 8.4375 C 52.191406 7.988281 52.660156 7.429688 53.910156 6.410156 C 55.523438 5.078125 56.171875 4.253906 56.535156 3.089844 C 56.796875 2.25 56.773438 1.25 56.476562 0.511719 L 56.289062 0.0390625 L 55.546875 0.03125 C 55.140625 0.0234375 54.578125 0.046875 54.300781 0.0859375 Z M 50.15625 17.15625 C 51.160156 17.367188 52.050781 17.691406 53.183594 18.25 C 54.300781 18.800781 54.578125 19.011719 54.785156 19.484375 C 54.96875 19.902344 54.914062 20.214844 54.625 20.453125 C 54.445312 20.59375 54.332031 20.609375 53.902344 20.585938 C 53.222656 20.546875 52.644531 20.253906 51.527344 19.367188 C 49.835938 18.03125 48.910156 17.527344 47.730469 17.296875 C 47.207031 17.195312 47.152344 17.09375 47.574219 17.023438 C 47.730469 16.992188 47.902344 16.960938 47.941406 16.9375 C 48.113281 16.871094 49.460938 17.007812 50.15625 17.15625 Z M 47.714844 19.097656 C 48.179688 19.328125 48.425781 19.539062 49.617188 20.78125 C 53.480469 24.816406 53.847656 25.089844 55.492188 25.285156 C 55.734375 25.308594 55.9375 25.351562 55.9375 25.375 C 55.9375 25.390625 55.890625 25.484375 55.828125 25.578125 C 55.617188 25.910156 55.015625 27.566406 54.804688 28.402344 L 54.585938 29.242188 L 53.839844 27.734375 C 52.308594 24.675781 51.136719 23.3125 49.28125 22.449219 C 48.441406 22.054688 47.910156 21.945312 46.496094 21.859375 C 44.921875 21.757812 44.226562 21.613281 43.6875 21.285156 C 42.714844 20.695312 42.796875 19.925781 43.90625 19.320312 C 44.59375 18.941406 45.328125 18.785156 46.308594 18.816406 C 47.113281 18.839844 47.230469 18.863281 47.714844 19.097656 Z M 45.054688 23.226562 C 46.847656 23.769531 48.335938 24.847656 48.601562 25.804688 C 48.847656 26.664062 47.855469 27.207031 46.691406 26.859375 C 46.121094 26.679688 45.609375 26.292969 44.382812 25.105469 C 43.003906 23.769531 42.421875 23.414062 41.316406 23.234375 C 40.539062 23.109375 41.574219 22.960938 43.066406 22.992188 C 44.1875 23.015625 44.445312 23.046875 45.054688 23.226562 Z M 41.917969 25.261719 C 42.660156 25.632812 42.914062 25.917969 44.265625 27.914062 C 45.539062 29.777344 46.070312 30.484375 46.886719 31.382812 L 47.511719 32.074219 L 47.441406 32.410156 C 47.269531 33.195312 47.183594 34.996094 47.230469 36.835938 C 47.277344 38.558594 47.269531 38.707031 47.160156 38.566406 C 46.988281 38.347656 46.683594 37.339844 46.582031 36.640625 C 46.535156 36.320312 46.464844 35.484375 46.421875 34.792969 C 46.332031 33.300781 46.167969 32.578125 45.679688 31.546875 C 45.234375 30.621094 44.96875 30.226562 44.242188 29.453125 C 43.320312 28.488281 42.394531 27.875 41.535156 27.667969 C 40.386719 27.402344 39.929688 27.148438 39.734375 26.671875 C 39.507812 26.136719 39.75 25.285156 40.195312 25.027344 C 40.519531 24.832031 41.253906 24.933594 41.917969 25.261719 Z M 39.359375 29.683594 C 40.21875 29.902344 40.941406 30.320312 41.589844 30.972656 C 42.410156 31.796875 42.828125 32.691406 42.828125 33.628906 C 42.828125 34 42.796875 34.085938 42.550781 34.355469 C 42.074219 34.886719 41.566406 34.933594 41.207031 34.480469 C 41.035156 34.257812 40.917969 33.96875 40.648438 33.0625 C 40.386719 32.214844 40.027344 31.703125 39.085938 30.8125 C 38.476562 30.25 38.226562 29.964844 38.226562 29.832031 C 38.226562 29.542969 38.601562 29.484375 39.359375 29.683594 Z M 54.125 33.238281 C 54.101562 33.707031 54.03125 35.164062 53.988281 36.484375 C 53.910156 38.683594 53.816406 40.164062 53.714844 40.769531 L 53.671875 41.003906 L 53.058594 41.003906 C 52.714844 41.003906 52.417969 40.980469 52.394531 40.957031 C 52.371094 40.933594 52.417969 40.667969 52.496094 40.367188 C 52.753906 39.410156 52.847656 38.667969 52.839844 37.507812 C 52.824219 36.273438 52.691406 35.21875 52.378906 34.054688 C 52.277344 33.644531 52.214844 33.292969 52.246094 33.261719 C 52.285156 33.238281 52.558594 33.109375 52.855469 33 C 53.160156 32.882812 53.542969 32.703125 53.714844 32.597656 C 53.886719 32.5 54.0625 32.402344 54.101562 32.402344 C 54.15625 32.394531 54.164062 32.675781 54.125 33.238281 Z M 53.074219 47.710938 C 53.285156 48.074219 53.363281 48.472656 53.277344 48.789062 C 53.175781 49.160156 52.957031 49.269531 52.769531 49.050781 C 52.566406 48.828125 51.894531 48.511719 51.605469 48.511719 C 51.328125 48.511719 51.039062 48.703125 50.953125 48.929688 C 50.898438 49.074219 50.835938 49.097656 50.507812 49.082031 L 50.125 49.066406 L 50.398438 49.199219 C 50.546875 49.269531 51.28125 49.625 52.027344 49.984375 C 53.097656 50.503906 53.371094 50.660156 53.332031 50.761719 C 53.308594 50.824219 53.285156 51.007812 53.285156 51.15625 L 53.285156 51.425781 L 52.878906 51.195312 C 52.652344 51.070312 52.238281 50.871094 51.957031 50.746094 C 51.652344 50.613281 51.28125 50.371094 51.015625 50.121094 C 50.75 49.867188 50.460938 49.679688 50.273438 49.625 C 49.765625 49.488281 49.265625 49.695312 48.976562 50.152344 L 48.820312 50.410156 L 48.542969 50 C 48.394531 49.773438 47.996094 49.300781 47.660156 48.945312 L 47.050781 48.3125 L 48.464844 48.128906 C 49.820312 47.964844 52.339844 47.523438 52.417969 47.445312 C 52.441406 47.421875 52.566406 47.414062 52.691406 47.429688 C 52.863281 47.445312 52.964844 47.523438 53.074219 47.710938 Z M 72.375 49.339844 C 72.75 49.449219 73.375 49.585938 73.75 49.640625 L 74.441406 49.734375 L 73.613281 50.589844 L 72.796875 51.441406 L 72.539062 51.226562 C 72.398438 51.117188 72.015625 50.816406 71.695312 50.582031 C 71.375 50.335938 71.078125 50.121094 71.039062 50.078125 C 70.988281 50.03125 71.578125 49.144531 71.664062 49.144531 C 71.679688 49.144531 72 49.230469 72.375 49.339844 Z M 55.1875 51.792969 C 56.023438 52.398438 56.871094 53.105469 56.871094 53.183594 C 56.867188 53.230469 56.804688 53.351562 56.726562 53.445312 L 56.574219 53.625 L 55.90625 53.121094 C 55.53125 52.839844 55.070312 52.515625 54.882812 52.390625 C 54.53125 52.171875 54.445312 51.96875 54.578125 51.628906 C 54.648438 51.449219 54.746094 51.472656 55.1875 51.792969 Z M 87.167969 52.761719 C 87.734375 52.925781 87.464844 53.273438 86.285156 53.871094 C 85.054688 54.480469 84.34375 54.710938 82.71875 55 C 79.226562 55.628906 77.859375 56.109375 77.320312 56.894531 C 77.023438 57.328125 77.015625 57.714844 77.296875 58.289062 C 78.046875 59.820312 80.167969 60.90625 83.59375 61.503906 C 84.507812 61.660156 84.800781 61.675781 86.597656 61.652344 C 90.652344 61.582031 92.003906 61.597656 92.386719 61.71875 C 92.816406 61.84375 93.019531 62.03125 92.980469 62.285156 C 92.886719 62.941406 91.246094 63.03125 88.039062 62.542969 C 86.191406 62.261719 85.425781 62.359375 85.425781 62.878906 C 85.425781 63.117188 85.558594 63.25 87.410156 64.949219 C 90.230469 67.542969 92.457031 70.136719 93.308594 71.828125 C 93.601562 72.410156 93.890625 73.273438 93.816406 73.347656 C 93.800781 73.363281 93.625 73.046875 93.4375 72.644531 C 91.917969 69.367188 87.6875 65.65625 81.097656 61.804688 C 77.875 59.917969 74.847656 58.5625 72.515625 57.957031 C 70.964844 57.558594 70.105469 57.453125 68.652344 57.503906 C 67.945312 57.527344 67.210938 57.589844 67.015625 57.636719 C 66.820312 57.675781 66.585938 57.730469 66.484375 57.753906 C 66.34375 57.785156 66.289062 57.753906 66.226562 57.582031 C 66.078125 57.1875 66.210938 56.871094 66.742188 56.300781 C 67.09375 55.921875 67.257812 55.679688 67.296875 55.480469 C 67.332031 55.269531 67.371094 55.207031 67.476562 55.230469 C 68.300781 55.464844 68.246094 55.433594 68.160156 55.664062 C 68.054688 55.960938 68.136719 56.238281 68.40625 56.394531 C 68.542969 56.480469 69.121094 56.597656 69.949219 56.699219 C 71.429688 56.902344 73.660156 56.941406 74.464844 56.785156 C 74.886719 56.707031 75.050781 56.722656 76.011719 56.917969 C 76.59375 57.039062 77.078125 57.125 77.078125 57.109375 C 77.078125 57.09375 76.976562 56.871094 76.84375 56.621094 L 76.617188 56.15625 L 76.960938 56.023438 C 77.445312 55.84375 78.492188 55.191406 79.785156 54.277344 C 81.253906 53.230469 81.984375 52.964844 84.0625 52.710938 C 85.007812 52.601562 86.699219 52.625 87.167969 52.761719 Z M 59.613281 56.355469 C 59.714844 56.480469 59.707031 56.488281 59.589844 56.386719 C 59.507812 56.332031 59.449219 56.269531 59.449219 56.253906 C 59.449219 56.1875 59.507812 56.226562 59.613281 56.355469 Z M 69.894531 59.878906 C 70.582031 60.804688 71.1875 62.078125 71.507812 63.25 C 71.914062 64.710938 71.835938 66.75 71.34375 67.589844 C 70.695312 68.699219 69.417969 68.101562 68.996094 66.480469 C 68.808594 65.796875 68.863281 65.292969 69.285156 63.636719 C 69.628906 62.269531 69.675781 61.976562 69.683594 61.253906 C 69.683594 60.4375 69.652344 60.277344 69.246094 59.167969 C 69.175781 58.980469 69.457031 59.285156 69.894531 59.878906 Z M 79.226562 63.691406 C 79.996094 65.230469 80.457031 67.363281 80.464844 69.445312 C 80.472656 70.414062 80.457031 70.539062 80.308594 70.742188 C 79.957031 71.222656 79.441406 70.972656 79.035156 70.113281 C 78.601562 69.21875 78.585938 68.46875 78.960938 66.488281 C 79.132812 65.5625 78.976562 64.085938 78.605469 63.203125 C 78.539062 63.039062 78.484375 62.847656 78.484375 62.769531 C 78.492188 62.550781 78.921875 63.085938 79.226562 63.691406 Z M 79.226562 63.691406 "/>
<path style=" stroke:none;fill-rule:nonzero;fill:rgb(0%,0%,0%);fill-opacity:1;" d="M 82.578125 0.628906 C 82.210938 1.210938 81.714844 2.351562 81.453125 3.183594 C 80.949219 4.828125 80.699219 6.652344 80.597656 9.300781 C 80.535156 10.960938 80.582031 11.707031 80.746094 11.921875 C 81.042969 12.273438 81.722656 11.730469 82.25 10.71875 C 82.703125 9.851562 82.859375 9.316406 82.929688 8.414062 C 83.03125 7.234375 83.21875 6.683594 83.351562 7.171875 C 83.4375 7.507812 83.398438 9.269531 83.289062 9.851562 C 83.15625 10.5625 83.015625 10.851562 82.609375 11.296875 C 82.21875 11.730469 82.195312 12.046875 82.546875 12.1875 C 82.734375 12.265625 82.867188 12.273438 83.179688 12.195312 C 83.835938 12.046875 84.257812 11.628906 84.257812 11.125 C 84.257812 11.007812 84.367188 10.757812 84.5 10.570312 C 85.636719 8.894531 85.886719 6.550781 85.152344 4.246094 C 84.761719 3.003906 83.992188 1.628906 83.140625 0.667969 L 82.796875 0.285156 Z M 82.578125 0.628906 "/>
<path style=" stroke:none;fill-rule:nonzero;fill:rgb(0%,0%,0%);fill-opacity:1;" d="M 72.289062 3.710938 C 72.242188 3.929688 72.140625 6.800781 72.140625 7.980469 C 72.140625 8.980469 72.296875 9.882812 72.640625 10.921875 C 73.007812 12.03125 73.328125 12.746094 74.441406 14.9375 C 75.003906 16.039062 75.628906 17.328125 75.832031 17.808594 C 76.246094 18.777344 76.382812 18.878906 76.632812 18.398438 C 76.757812 18.164062 76.773438 17.992188 76.734375 17.140625 C 76.714844 16.597656 76.609375 15.625 76.5 14.976562 C 76.398438 14.328125 76.285156 13.640625 76.253906 13.445312 L 76.199219 13.089844 L 76.382812 13.21875 C 76.789062 13.484375 76.96875 14.113281 77.3125 16.472656 C 77.570312 18.234375 77.765625 19.199219 77.867188 19.144531 C 77.976562 19.074219 78.390625 17.800781 78.578125 16.976562 C 78.734375 16.261719 78.757812 15.960938 78.75 14.546875 C 78.75 13.1875 78.71875 12.808594 78.578125 12.148438 C 78.015625 9.601562 76.945312 7.523438 75.316406 5.820312 C 74.496094 4.960938 73.613281 4.253906 72.789062 3.789062 L 72.328125 3.53125 Z M 72.289062 3.710938 "/>
<path style=" stroke:none;fill-rule:nonzero;fill:rgb(0%,0%,0%);fill-opacity:1;" d="M 91.433594 10.074219 C 89.320312 10.347656 87.210938 11.125 85.519531 12.273438 C 84.101562 13.226562 82.460938 15.015625 82.445312 15.632812 C 82.4375 15.960938 82.484375 16 82.859375 15.984375 C 83.492188 15.953125 84.761719 15.207031 85.199219 14.601562 C 85.386719 14.34375 85.433594 14.3125 85.472656 14.429688 C 85.511719 14.515625 85.457031 14.703125 85.347656 14.914062 C 85.152344 15.292969 83.757812 16.6875 82.867188 17.410156 C 82.035156 18.070312 81.8125 18.503906 82.164062 18.746094 C 82.625 19.074219 83.695312 18.769531 84.1875 18.171875 C 84.40625 17.902344 84.601562 17.785156 85.269531 17.511719 C 87.574219 16.558594 89.664062 14.769531 91.253906 12.382812 C 91.628906 11.816406 92.410156 10.410156 92.488281 10.160156 C 92.535156 10 92.511719 9.984375 92.238281 9.992188 C 92.074219 10 91.714844 10.035156 91.433594 10.074219 Z M 91.433594 10.074219 "/>
<path style=" stroke:none;fill-rule:nonzero;fill:rgb(0%,0%,0%);fill-opacity:1;" d="M 69.082031 10.292969 C 68.4375 10.59375 67.890625 11.488281 67.753906 12.503906 C 67.683594 12.980469 67.824219 13.785156 68.0625 14.265625 C 68.160156 14.484375 68.628906 15.496094 69.082031 16.511719 C 69.542969 17.527344 70.199219 18.980469 70.542969 19.734375 C 71.34375 21.511719 71.90625 22.894531 72.359375 24.21875 C 72.726562 25.292969 73.257812 27.324219 73.257812 27.652344 C 73.257812 27.757812 73.289062 27.835938 73.328125 27.835938 C 73.398438 27.835938 73.535156 26.617188 73.613281 25.320312 C 73.699219 23.777344 73.4375 21.246094 72.984375 19.390625 C 72.757812 18.472656 72.257812 16.921875 71.921875 16.113281 C 71.796875 15.796875 71.710938 15.527344 71.726562 15.511719 C 71.78125 15.449219 72.71875 16.929688 73.0625 17.613281 C 73.722656 18.957031 74.355469 20.929688 75.011719 23.730469 C 75.402344 25.382812 75.457031 25.261719 75.464844 22.761719 C 75.464844 21.222656 75.433594 20.671875 75.292969 19.773438 C 74.800781 16.519531 73.796875 14.144531 72.007812 11.984375 C 71.023438 10.804688 70.75 10.535156 70.332031 10.332031 C 69.863281 10.113281 69.503906 10.097656 69.082031 10.292969 Z M 69.082031 10.292969 "/>
<path style=" stroke:none;fill-rule:nonzero;fill:rgb(0%,0%,0%);fill-opacity:1;" d="M 89.0625 17.691406 C 85.957031 18.054688 83.164062 19.359375 81.144531 21.386719 C 80.488281 22.046875 79.496094 23.296875 79.496094 23.472656 C 79.496094 23.503906 79.730469 23.503906 80.027344 23.472656 C 81.097656 23.359375 81.976562 23.09375 83.828125 22.308594 C 84.390625 22.070312 85.160156 21.773438 85.542969 21.640625 C 86.230469 21.402344 87.375 21.191406 87.648438 21.246094 C 87.71875 21.253906 86.800781 21.726562 85.597656 22.277344 C 82.640625 23.644531 81.058594 24.566406 79.730469 25.671875 C 78.984375 26.300781 78.804688 26.5 78.976562 26.5 C 79.28125 26.5 80.214844 26.222656 81.523438 25.75 C 83.96875 24.863281 84.34375 24.777344 85.871094 24.691406 C 86.613281 24.652344 87.457031 24.582031 87.742188 24.523438 C 90.746094 24.023438 93.507812 22.511719 95.234375 20.429688 C 95.820312 19.726562 96.269531 19.082031 96.269531 18.964844 C 96.269531 18.777344 94.3125 18.101562 93.027344 17.847656 C 92.050781 17.660156 90.039062 17.582031 89.0625 17.691406 Z M 89.0625 17.691406 "/>
<path style=" stroke:none;fill-rule:nonzero;fill:rgb(0%,0%,0%);fill-opacity:1;" d="M 83.90625 25.835938 C 82.234375 26.121094 80.605469 26.828125 79.351562 27.820312 C 79.171875 27.960938 79.171875 27.976562 79.296875 28.222656 C 79.496094 28.613281 79.839844 28.78125 80.433594 28.78125 C 81.027344 28.78125 81.5 28.667969 82.890625 28.230469 C 83.453125 28.054688 84.164062 27.859375 84.476562 27.796875 C 85.175781 27.644531 86.160156 27.628906 86.480469 27.765625 C 86.707031 27.851562 86.675781 27.867188 85.855469 28.039062 C 81.777344 28.925781 79.996094 29.453125 78.210938 30.320312 C 77.515625 30.652344 76.191406 31.445312 76.238281 31.492188 C 76.269531 31.523438 80.574219 31.042969 81.875 30.863281 C 86.339844 30.25 89.664062 29.34375 92.527344 27.976562 L 93.347656 27.582031 L 92.71875 27.285156 C 91.285156 26.601562 89.546875 26.066406 87.984375 25.835938 C 86.980469 25.679688 84.792969 25.679688 83.90625 25.835938 Z M 83.90625 25.835938 "/>
<path style=" stroke:none;fill-rule:nonzero;fill:rgb(0%,0%,0%);fill-opacity:1;" d="M 30.839844 29.320312 C 30.230469 29.5 29.925781 29.730469 29.488281 30.359375 C 29.292969 30.636719 28.976562 31.027344 28.777344 31.230469 C 28.300781 31.726562 28.140625 31.726562 27.578125 31.214844 C 27.101562 30.773438 26.910156 30.703125 26.289062 30.703125 C 25.683594 30.710938 25.074219 31.027344 24.417969 31.679688 C 22.933594 33.15625 22.234375 35.058594 22.234375 37.585938 C 22.234375 39.125 22.554688 40.957031 23.101562 42.5 C 23.277344 43.027344 23.371094 43.167969 23.53125 43.167969 C 23.675781 43.167969 23.667969 42.9375 23.484375 42.035156 C 23.347656 41.40625 23.332031 41.1875 23.394531 40.824219 C 23.445312 40.582031 23.53125 40.046875 23.601562 39.644531 C 23.816406 38.339844 24.230469 37.5 24.769531 37.238281 C 25.144531 37.058594 25.222656 37.082031 25.394531 37.394531 C 25.613281 37.804688 26.097656 38.214844 26.351562 38.214844 C 26.625 38.214844 26.757812 38.074219 27.03125 37.484375 C 27.320312 36.859375 27.734375 36.609375 28.40625 36.65625 C 28.9375 36.695312 29.214844 36.859375 29.445312 37.277344 C 29.722656 37.804688 29.613281 38.011719 28.367188 39.308594 C 26.984375 40.730469 26.71875 41.027344 26.265625 41.683594 C 25.863281 42.265625 25.621094 42.765625 25.464844 43.363281 C 25.316406 43.898438 25.324219 44.03125 25.496094 44.03125 C 25.761719 44.03125 26.320312 43.578125 27.3125 42.5625 C 28.195312 41.65625 28.40625 41.492188 29.34375 40.925781 C 29.917969 40.589844 31.050781 39.992188 31.863281 39.613281 C 33.992188 38.605469 34.523438 38.316406 34.996094 37.882812 C 35.722656 37.207031 36.113281 36.125 35.964844 35.195312 C 35.847656 34.464844 35.394531 33.757812 34.851562 33.457031 L 34.582031 33.316406 L 34.527344 32.59375 C 34.414062 30.910156 33.867188 29.777344 32.960938 29.359375 C 32.476562 29.125 31.566406 29.117188 30.839844 29.320312 Z M 30.839844 29.320312 "/>
<path style=" stroke:none;fill-rule:nonzero;fill:rgb(0%,0%,0%);fill-opacity:1;" d="M 13.503906 29.691406 C 12.210938 30.148438 11.375 31.507812 11.726562 32.5625 C 11.90625 33.09375 11.804688 33.457031 11.265625 34.195312 C 10.269531 35.570312 10.1875 35.917969 10.617188 37.042969 C 11.625 39.667969 14.402344 41.65625 18.109375 42.414062 C 18.613281 42.523438 19.105469 42.585938 19.207031 42.5625 C 19.457031 42.5 19.582031 42.390625 19.582031 42.234375 C 19.582031 42.074219 18.996094 41.492188 18.164062 40.824219 C 17.429688 40.226562 17.375 40.15625 16.640625 38.882812 C 15.796875 37.417969 15.652344 36.933594 15.835938 36.242188 C 15.953125 35.816406 16.234375 35.59375 16.710938 35.554688 C 17.542969 35.492188 18.347656 36.171875 19.042969 37.539062 C 19.222656 37.890625 19.496094 38.386719 19.660156 38.644531 C 19.824219 38.90625 20.144531 39.558594 20.371094 40.09375 C 20.84375 41.21875 21.195312 41.675781 21.59375 41.675781 C 21.734375 41.675781 21.84375 41.667969 21.84375 41.648438 C 21.84375 41.632812 21.726562 41.265625 21.578125 40.824219 C 20.976562 39.023438 20.800781 37.378906 21.019531 35.660156 C 21.203125 34.21875 21.195312 33.046875 20.984375 32.378906 C 20.769531 31.671875 20.003906 30.628906 19.550781 30.421875 C 19.136719 30.234375 18.988281 30.242188 18.101562 30.46875 C 16.914062 30.773438 16.664062 30.742188 15.921875 30.15625 C 15.683594 29.964844 15.332031 29.753906 15.144531 29.683594 C 14.714844 29.535156 13.949219 29.535156 13.503906 29.691406 Z M 13.503906 29.691406 "/>
<path style=" stroke:none;fill-rule:nonzero;fill:rgb(0%,0%,0%);fill-opacity:1;" d="M 81.484375 32.128906 C 79.535156 32.269531 77.390625 32.78125 75.753906 33.480469 C 75.097656 33.765625 75.097656 33.765625 75.363281 33.820312 C 75.660156 33.882812 76.898438 33.984375 79.511719 34.164062 C 81.222656 34.285156 82.875 34.480469 83.085938 34.605469 C 83.171875 34.652344 83.125 34.699219 82.890625 34.800781 C 82.632812 34.910156 82.15625 34.941406 80.128906 34.996094 C 78.78125 35.035156 77.429688 35.101562 77.125 35.148438 C 75.542969 35.375 75.105469 35.453125 74.933594 35.570312 C 74.675781 35.746094 74.683594 35.824219 75.003906 36.132812 C 75.488281 36.585938 76.757812 36.917969 77.507812 36.789062 C 77.726562 36.75 77.976562 36.773438 78.328125 36.875 C 79.042969 37.089844 80.480469 37.332031 81.523438 37.425781 C 83.34375 37.585938 85.410156 37.492188 89.210938 37.082031 C 90.199219 36.972656 91.308594 36.859375 91.691406 36.828125 C 92.066406 36.796875 92.371094 36.75 92.371094 36.71875 C 92.371094 36.5625 91.511719 35.585938 90.847656 34.996094 C 89.265625 33.582031 87.160156 32.644531 84.761719 32.285156 C 83.960938 32.160156 82.171875 32.074219 81.484375 32.128906 Z M 81.484375 32.128906 "/>
<path style=" stroke:none;fill-rule:nonzero;fill:rgb(0%,0%,0%);fill-opacity:1;" d="M 34.015625 39.882812 C 32.253906 39.992188 30.886719 40.589844 29.082031 42.058594 C 28.039062 42.90625 25.964844 45.0625 26.082031 45.179688 C 26.105469 45.210938 26.28125 45.25 26.480469 45.265625 C 26.902344 45.3125 27.390625 45.109375 28.28125 44.503906 C 28.609375 44.285156 29 44.050781 29.136719 43.984375 C 29.519531 43.828125 30.027344 43.84375 30.332031 44.03125 L 30.582031 44.191406 L 30.582031 44.890625 C 30.582031 45.480469 30.605469 45.613281 30.753906 45.800781 L 30.917969 46.015625 L 31.753906 45.960938 C 32.460938 45.914062 32.625 45.929688 32.851562 46.039062 C 33.226562 46.226562 33.382812 46.382812 33.554688 46.722656 C 34.0625 47.71875 33.617188 48.609375 32.507812 48.84375 C 32.109375 48.929688 31.976562 48.914062 31.269531 48.75 C 30.824219 48.648438 30.324219 48.5625 30.152344 48.554688 C 29.847656 48.554688 29.84375 48.5625 29.847656 48.828125 C 29.847656 48.976562 29.910156 49.324219 29.988281 49.59375 C 30.214844 50.417969 29.964844 50.914062 29.230469 51.117188 C 29.0625 51.164062 28.792969 51.179688 28.640625 51.148438 C 27.671875 50.984375 27.046875 50.527344 26.6875 49.742188 C 26.304688 48.898438 25.769531 48.359375 25.332031 48.359375 C 24.832031 48.359375 24.769531 49.285156 25.167969 50.582031 C 25.886719 52.886719 27.835938 55.339844 29.707031 56.300781 C 30.347656 56.621094 30.761719 56.761719 31.355469 56.847656 C 32.390625 57 33.445312 56.574219 34.273438 55.671875 C 35.035156 54.835938 35.308594 54.214844 35.621094 52.539062 C 35.699219 52.132812 36.308594 51.675781 37.628906 51.03125 C 39.085938 50.320312 39.359375 50.085938 39.921875 49.007812 C 40.601562 47.71875 40.679688 46.320312 40.132812 45.078125 C 39.9375 44.628906 39.367188 43.96875 38.953125 43.710938 C 38.78125 43.601562 38.398438 43.105469 37.796875 42.195312 C 36.363281 40 35.972656 39.761719 34.015625 39.882812 Z M 34.015625 39.882812 "/>
<path style=" stroke:none;fill-rule:nonzero;fill:rgb(0%,0%,0%);fill-opacity:1;" d="M 9.625 40.335938 C 9.535156 40.375 9.402344 40.488281 9.332031 40.589844 C 9.097656 40.917969 9.171875 41.105469 9.710938 41.625 C 10.308594 42.195312 10.359375 42.40625 9.976562 42.726562 C 9.808594 42.867188 9.648438 42.929688 9.433594 42.929688 C 8.824219 42.929688 8.472656 42.609375 8.027344 41.632812 C 7.714844 40.941406 7.597656 40.808594 7.328125 40.808594 C 6.992188 40.808594 6.785156 41.082031 6.785156 41.515625 C 6.785156 41.941406 6.960938 42.144531 7.425781 42.296875 C 7.722656 42.398438 8.035156 42.703125 8.035156 42.90625 C 8.035156 43.082031 7.558594 43.472656 7.238281 43.578125 C 6.617188 43.765625 5.929688 43.308594 5.523438 42.445312 C 5.210938 41.777344 4.84375 41.648438 4.441406 42.058594 C 4.148438 42.359375 4.132812 42.703125 4.410156 42.96875 C 4.507812 43.082031 4.6875 43.167969 4.796875 43.167969 C 5.28125 43.167969 5.679688 43.617188 5.492188 43.945312 C 5.445312 44.015625 5.140625 44.214844 4.8125 44.378906 C 4.074219 44.753906 3.269531 44.851562 2.808594 44.609375 C 2.402344 44.394531 2.160156 43.984375 2.230469 43.640625 C 2.324219 43.207031 2.277344 42.921875 2.097656 42.722656 C 1.871094 42.484375 1.746094 42.492188 1.363281 42.742188 C 0.890625 43.058594 0.859375 43.128906 0.859375 43.859375 C 0.859375 44.609375 0.820312 44.707031 0.34375 45.164062 C -0.171875 45.667969 -0.140625 45.832031 0.679688 46.730469 C 1.0625 47.152344 1.09375 47.21875 1.09375 47.570312 C 1.09375 48.113281 1.242188 48.199219 2.316406 48.273438 C 2.777344 48.304688 3.246094 48.375 3.347656 48.425781 C 3.589844 48.5625 4.019531 48.472656 4.171875 48.257812 C 4.351562 47.996094 4.3125 47.6875 4.019531 47.019531 C 3.742188 46.410156 3.675781 45.960938 3.820312 45.691406 C 3.941406 45.457031 4.945312 44.675781 5.34375 44.496094 C 5.609375 44.378906 5.8125 44.339844 6.03125 44.371094 C 6.617188 44.449219 6.625 44.753906 6.046875 45.363281 C 5.539062 45.90625 5.5 46.117188 5.859375 46.433594 C 6.210938 46.722656 6.53125 46.683594 6.738281 46.3125 C 6.875 46.085938 6.90625 45.921875 6.890625 45.363281 C 6.882812 44.816406 6.90625 44.636719 7.03125 44.433594 C 7.308594 43.960938 8.074219 43.640625 8.542969 43.796875 C 8.964844 43.9375 9.035156 44.082031 8.792969 44.332031 C 8.527344 44.609375 8.269531 45.1875 8.269531 45.511719 C 8.269531 46.054688 8.933594 46.359375 9.285156 45.984375 C 9.441406 45.808594 9.464844 45.667969 9.441406 44.914062 C 9.425781 44.332031 9.558594 43.976562 9.855469 43.828125 C 10.324219 43.578125 12.613281 43.859375 14.425781 44.386719 C 16.0625 44.859375 18.488281 45.921875 19.707031 46.683594 C 20.890625 47.4375 21.78125 47.808594 22.382812 47.808594 C 22.765625 47.808594 23.234375 47.515625 23.523438 47.113281 C 23.722656 46.816406 23.753906 46.699219 23.753906 46.273438 C 23.753906 45.683594 23.652344 45.550781 22.695312 44.816406 C 21.4375 43.875 19.738281 43.167969 17.789062 42.773438 C 15.761719 42.367188 14.988281 42.328125 12.25 42.507812 C 11.570312 42.546875 11.476562 42.539062 11.15625 42.367188 C 10.695312 42.121094 10.453125 41.667969 10.453125 41.027344 C 10.453125 40.367188 10.15625 40.117188 9.625 40.335938 Z M 9.625 40.335938 "/>
<path style=" stroke:none;fill-rule:nonzero;fill:rgb(0%,0%,0%);fill-opacity:1;" d="M 14.160156 46.894531 C 12.621094 47.121094 11.570312 47.492188 10.039062 48.375 C 8.246094 49.394531 7.683594 50.320312 7.480469 52.617188 C 7.390625 53.640625 7.382812 53.671875 7.121094 53.964844 C 6.800781 54.324219 6.710938 54.550781 6.710938 54.984375 C 6.710938 55.449219 6.984375 55.890625 7.410156 56.125 C 7.777344 56.324219 7.949219 56.324219 9.105469 56.171875 C 9.496094 56.125 9.527344 56.132812 9.734375 56.363281 C 9.863281 56.496094 10.070312 56.878906 10.210938 57.21875 C 10.5625 58.070312 10.804688 58.414062 11.140625 58.554688 C 11.875 58.863281 13.066406 58.203125 13.980469 56.976562 C 14.417969 56.386719 14.761719 55.71875 16.179688 52.726562 C 16.851562 51.328125 17.519531 50.753906 18.277344 50.921875 C 18.785156 51.03125 18.816406 51.0625 18.636719 51.480469 C 18.410156 52.015625 17.917969 52.726562 16.914062 54.003906 C 16.046875 55.085938 15.332031 56.21875 15.144531 56.785156 C 14.605469 58.421875 15.222656 60.144531 16.523438 60.664062 C 16.851562 60.796875 17.039062 60.796875 17.765625 60.65625 C 18.511719 60.511719 18.957031 60.882812 19.652344 62.253906 C 20.253906 63.421875 20.898438 64.148438 21.539062 64.359375 C 22.179688 64.578125 23.070312 64.5 23.738281 64.164062 C 24.074219 63.996094 24.316406 63.816406 24.410156 63.660156 C 24.628906 63.3125 25.425781 62.550781 26.289062 61.867188 C 27.125 61.199219 27.765625 60.542969 27.96875 60.152344 C 28.085938 59.933594 28.101562 59.75 28.0625 59.089844 C 27.992188 57.792969 27.640625 56.976562 26.113281 54.648438 C 25.097656 53.097656 24.746094 52.414062 24.371094 51.273438 C 24.089844 50.410156 23.855469 49.929688 23.714844 49.929688 C 23.675781 49.929688 23.585938 50.023438 23.507812 50.136719 C 23.292969 50.464844 23.347656 51.039062 23.675781 51.933594 C 24.386719 53.886719 24.417969 53.972656 24.417969 54.480469 C 24.417969 55.175781 24.292969 55.542969 23.9375 55.867188 C 23.628906 56.148438 23.363281 56.210938 23.09375 56.0625 C 23.007812 56.015625 22.695312 55.6875 22.398438 55.324219 C 21.75 54.542969 21.523438 54.417969 20.785156 54.425781 C 20.097656 54.441406 19.730469 54.316406 19.425781 53.972656 C 18.988281 53.460938 19.121094 52.703125 19.949219 51.101562 C 20.433594 50.160156 20.457031 50.09375 20.355469 49.890625 C 20.175781 49.527344 19.855469 49.339844 19.441406 49.347656 C 18.964844 49.363281 18.550781 49.550781 17.382812 50.292969 C 16.851562 50.628906 16.25 50.984375 16.03125 51.085938 C 15.820312 51.1875 15.5 51.359375 15.332031 51.464844 C 14.691406 51.855469 13.691406 51.644531 13.285156 51.023438 C 12.757812 50.214844 13.496094 49.066406 14.808594 48.671875 C 15.09375 48.585938 15.820312 48.425781 16.421875 48.320312 C 17.28125 48.160156 17.640625 48.058594 18.09375 47.824219 C 18.410156 47.664062 18.683594 47.492188 18.699219 47.445312 C 18.730469 47.351562 17.863281 47.074219 17.125 46.941406 C 16.351562 46.808594 14.925781 46.785156 14.160156 46.894531 Z M 14.160156 46.894531 "/>
<path style=" stroke:none;fill-rule:nonzero;fill:rgb(0%,0%,0%);fill-opacity:1;" d="M 26.871094 63.492188 C 26.410156 63.722656 25.800781 64.34375 25.480469 64.886719 C 24.730469 66.171875 24.324219 68.445312 24.222656 71.90625 C 24.144531 74.636719 24.019531 75.460938 23.675781 75.691406 C 23.507812 75.800781 23.46875 75.800781 23.21875 75.683594 C 22.65625 75.40625 22.109375 74.4375 21.875 73.273438 C 21.773438 72.769531 21.757812 72.386719 21.789062 71.632812 C 21.835938 70.40625 22.046875 69.367188 22.585938 67.699219 C 23.140625 65.980469 23.125 66.042969 22.875 66.097656 C 22.453125 66.199219 21.71875 66.589844 21.28125 66.9375 C 20.511719 67.566406 19.800781 68.855469 19.449219 70.277344 C 19.238281 71.105469 19.261719 73.355469 19.488281 74.164062 C 19.988281 75.988281 20.921875 77.441406 22.304688 78.566406 C 22.941406 79.078125 24.238281 79.808594 24.519531 79.808594 C 24.910156 79.808594 25.253906 79.472656 25.433594 78.90625 C 25.605469 78.347656 26.175781 77.347656 27.351562 75.515625 C 29.113281 72.789062 29.777344 71.308594 30.082031 69.453125 C 30.230469 68.539062 30.191406 67.125 30.003906 66.402344 C 29.699219 65.261719 28.875 63.964844 28.203125 63.574219 C 27.6875 63.265625 27.351562 63.242188 26.871094 63.492188 Z M 26.871094 63.492188 "/>
<path style=" stroke:none;fill-rule:nonzero;fill:rgb(0%,0%,0%);fill-opacity:1;" d="M 47.472656 65.238281 C 47.386719 65.261719 47.214844 65.324219 47.082031 65.378906 C 46.957031 65.4375 46.550781 65.578125 46.183594 65.695312 C 45.3125 65.980469 44.265625 66.527344 43.53125 67.078125 C 42.324219 68 41.128906 69.460938 40.5625 70.734375 C 39.851562 72.316406 40.488281 74.125 42.167969 75.265625 C 42.675781 75.609375 42.890625 75.699219 43.648438 75.839844 C 45.054688 76.105469 45.394531 76.355469 45.738281 77.410156 C 46.324219 79.15625 47.605469 80.421875 49.1875 80.832031 C 50.882812 81.265625 52.480469 80.730469 53.355469 79.441406 C 53.671875 78.96875 54.101562 78.636719 55.148438 78.082031 C 56.203125 77.511719 56.527344 77.222656 56.804688 76.617188 C 57.253906 75.617188 57.292969 74.296875 56.910156 72.898438 C 56.445312 71.152344 54.722656 68.824219 52.511719 66.921875 C 51.886719 66.386719 51.804688 66.386719 51.804688 66.921875 C 51.804688 67.347656 51.964844 67.738281 52.449219 68.484375 C 53.144531 69.570312 53.308594 69.941406 53.253906 70.261719 C 53.222656 70.414062 53.074219 70.679688 52.917969 70.851562 C 52.683594 71.113281 52.597656 71.160156 52.332031 71.160156 C 52.089844 71.160156 51.980469 71.113281 51.824219 70.933594 C 51.636719 70.71875 51.605469 70.710938 51.445312 70.8125 C 51.175781 70.996094 51.144531 71.113281 51.101562 72.316406 L 51.0625 73.433594 L 50.796875 73.707031 C 50.289062 74.234375 49.65625 74.371094 49.085938 74.078125 C 48.710938 73.882812 48.496094 73.644531 48.296875 73.203125 C 48.050781 72.644531 48.089844 72.199219 48.449219 71.378906 C 48.832031 70.53125 48.886719 70.300781 48.734375 70.105469 C 48.632812 69.964844 48.609375 69.964844 48.058594 70.246094 C 46.777344 70.890625 45.863281 70.421875 45.976562 69.171875 C 46.070312 68.164062 46.894531 67.15625 48.113281 66.582031 C 48.734375 66.285156 48.992188 66.066406 48.992188 65.8125 C 48.992188 65.429688 48.089844 65.089844 47.472656 65.238281 Z M 47.472656 65.238281 "/>
</g>
</svg>
