<?xml version="1.0" standalone="no"?>
<!DOCTYPE svg PUBLIC "-//W3C//DTD SVG 20010904//EN"
 "http://www.w3.org/TR/2001/REC-SVG-20010904/DTD/svg10.dtd">
<svg version="1.0" xmlns="http://www.w3.org/2000/svg"
 width="1280.000000pt" height="1030.000000pt" viewBox="0 0 1280.000000 1030.000000"
 preserveAspectRatio="xMidYMid meet">
<metadata>
Created by potrace 1.15, written by Peter Selinger 2001-2017
</metadata>
<g transform="translate(0.000000,1030.000000) scale(0.100000,-0.100000)"
fill="#000000" stroke="none">
<path d="M6960 10289 c-286 -36 -484 -177 -613 -434 -45 -90 -82 -196 -150
-430 -82 -280 -125 -385 -207 -505 -49 -71 -96 -115 -143 -135 -36 -15 -41
-15 -64 0 -50 33 -66 123 -42 237 6 29 40 126 76 215 97 245 116 327 117 503
1 128 -2 154 -23 218 -27 84 -81 172 -141 232 l-41 41 -97 -52 c-523 -282
-772 -632 -772 -1085 0 -192 34 -351 126 -594 81 -211 87 -237 88 -325 1 -65
-3 -89 -23 -128 -60 -122 -186 -96 -230 48 -25 81 -36 163 -61 467 -11 136
-29 298 -40 360 -36 212 -103 385 -186 477 -106 118 -365 193 -698 203 l-99 3
-34 -100 c-151 -442 -159 -745 -29 -1021 87 -183 192 -317 517 -657 110 -115
213 -232 229 -260 45 -77 94 -241 95 -310 0 -54 -3 -61 -33 -88 -58 -52 -160
-32 -210 41 -12 19 -37 79 -54 134 -135 437 -351 721 -593 780 -33 7 -78 22
-99 31 -91 39 -262 29 -450 -26 -93 -28 -242 -91 -293 -124 l-21 -14 38 -118
c21 -65 66 -212 100 -327 117 -398 211 -589 358 -727 78 -74 151 -115 283
-160 126 -43 245 -45 399 -7 147 37 189 42 256 28 76 -16 103 -30 170 -90 58
-53 71 -59 80 -35 11 27 -5 62 -51 113 -65 72 -162 134 -315 201 -74 32 -163
75 -198 95 -225 133 -456 378 -522 557 -22 57 -22 60 -5 79 46 51 200 4 375
-113 183 -123 325 -262 489 -481 125 -166 169 -201 253 -201 48 0 62 5 94 31
77 62 142 217 151 359 16 263 -118 595 -379 937 -189 249 -291 536 -275 777 8
122 36 181 86 181 67 0 248 -257 366 -518 80 -176 104 -260 126 -427 35 -273
93 -445 180 -540 67 -72 122 -91 183 -63 40 18 138 179 200 329 127 308 132
572 21 979 -38 139 -43 264 -16 365 41 148 142 335 224 414 72 69 90 15 85
-248 -4 -185 -5 -188 -56 -394 -70 -280 -85 -376 -80 -500 3 -85 8 -109 28
-146 80 -142 302 -103 485 83 153 156 271 357 427 725 161 379 261 541 335
541 104 0 43 -199 -158 -515 -92 -145 -128 -222 -129 -275 0 -79 36 -78 221 4
536 237 980 328 1280 260 37 -8 75 -21 85 -28 15 -11 -2 -12 -102 -8 -471 19
-1076 -208 -1731 -650 -587 -396 -1034 -948 -1332 -1645 -108 -253 -221 -620
-221 -716 0 -44 4 -54 39 -88 30 -31 46 -39 74 -39 39 0 47 8 62 59 6 19 22
43 37 54 23 17 31 18 56 8 17 -7 41 -24 54 -38 25 -27 26 -37 18 -328 -3 -114
-1 -138 19 -197 68 -203 287 -392 531 -458 152 -42 372 -30 546 29 l57 19 -7
-97 c-13 -169 -60 -373 -110 -469 -30 -58 -8 -34 67 76 277 401 434 787 464
1142 9 114 20 67 22 -96 2 -174 -39 -445 -91 -599 -12 -38 -15 -40 -59 -43
-71 -5 -81 -21 -89 -154 -4 -62 -12 -122 -18 -133 -26 -50 -42 -96 -42 -124 0
-25 6 -34 28 -42 58 -23 175 15 267 85 41 31 49 33 76 24 58 -20 209 -233 183
-258 -5 -4 -34 -15 -64 -23 l-55 -16 -30 29 c-52 51 -105 36 -129 -35 -14 -39
-16 -41 -92 -62 -94 -26 -171 -28 -424 -11 -205 13 -315 4 -395 -31 -40 -18
-45 -18 -57 -4 -34 42 -125 55 -184 27 -80 -38 -110 -113 -76 -192 63 -146 19
-257 -93 -236 -76 14 -142 -26 -181 -111 -49 -104 -26 -189 79 -297 109 -111
199 -163 687 -396 80 -38 144 -92 170 -143 25 -48 26 -119 3 -148 l-18 -21
-59 31 c-76 39 -148 88 -264 180 -52 41 -120 95 -153 120 -76 60 -197 123
-275 143 -34 9 -102 16 -150 16 -61 0 -109 7 -152 20 -70 22 -155 26 -199 9
-31 -11 -40 -21 -117 -130 -114 -160 -223 -219 -433 -236 -46 -3 -83 -9 -83
-13 0 -9 149 -152 211 -203 26 -20 70 -50 98 -65 l51 -28 -56 -55 c-31 -30
-64 -67 -74 -82 l-18 -29 -107 104 c-106 102 -211 223 -263 305 -15 23 -31 42
-35 43 -4 0 -15 -16 -23 -35 -21 -51 -18 -202 6 -304 27 -113 112 -326 159
-398 127 -197 304 -310 543 -348 32 -5 44 -15 77 -63 43 -64 112 -131 162
-159 55 -29 172 -23 288 16 127 43 214 90 432 232 252 164 350 213 467 234
138 24 169 45 142 96 -11 20 -17 21 -79 15 -82 -9 -121 -18 -286 -66 -71 -21
-154 -46 -183 -54 l-53 -15 39 45 c50 56 72 102 72 147 0 20 -18 87 -41 149
-69 192 -72 204 -65 234 10 37 66 90 106 98 53 10 118 7 154 -8 18 -7 59 -34
92 -58 98 -75 158 -101 221 -96 67 6 97 32 96 82 -1 23 -36 101 -104 233 -185
357 -199 388 -205 433 -8 63 11 127 51 167 27 27 41 33 75 33 55 0 101 -23
144 -71 42 -46 64 -88 122 -230 36 -92 44 -125 53 -222 11 -119 32 -197 58
-219 25 -20 49 20 75 130 20 86 23 121 23 302 -1 197 -7 252 -41 363 -4 13 0
17 19 17 19 0 38 -18 83 -77 32 -43 98 -119 146 -169 l87 -90 -33 -90 c-63
-169 -164 -382 -236 -500 -105 -171 -134 -242 -135 -330 0 -62 3 -75 27 -106
43 -57 93 -82 159 -83 73 0 93 15 181 130 122 160 214 378 265 628 14 73 28
134 30 136 1 2 12 -4 24 -15 14 -13 19 -27 16 -44 -26 -136 -49 -236 -58 -246
-27 -33 18 -74 81 -74 31 0 54 27 45 53 -6 14 64 116 102 150 21 18 24 17 177
-70 85 -48 155 -90 155 -93 1 -3 -9 -10 -22 -16 -131 -63 -406 -209 -423 -225
-12 -11 -24 -32 -27 -46 -4 -23 -2 -25 27 -21 17 3 83 21 146 40 175 55 252
69 410 75 224 8 258 0 454 -107 90 -49 170 -92 179 -95 13 -5 12 6 -2 89 l-17
96 82 40 c64 31 95 54 143 106 33 37 61 73 61 80 0 27 51 15 85 -19 41 -41 56
-88 62 -197 5 -79 3 -92 -26 -165 -18 -44 -69 -151 -114 -237 l-83 -158 -49
66 c-101 134 -296 256 -490 306 -80 20 -113 23 -295 23 -213 0 -278 -7 -450
-50 -176 -44 -295 -88 -304 -112 -4 -9 -4 -18 -1 -21 3 -3 42 3 87 14 62 14
118 19 223 18 122 -1 152 -4 230 -28 129 -39 245 -103 270 -150 l20 -37 -27
-24 c-16 -13 -53 -32 -84 -42 -64 -20 -85 -47 -66 -87 5 -13 43 -50 83 -82 99
-81 139 -140 139 -209 0 -97 -67 -140 -170 -109 -47 14 -71 33 -215 173 -212
207 -328 289 -481 339 -107 35 -114 36 -114 8 0 -29 43 -81 98 -119 43 -30
156 -158 243 -273 85 -113 174 -269 246 -428 142 -314 150 -329 240 -419 35
-36 83 -71 123 -90 59 -28 74 -32 160 -32 79 0 102 4 136 22 51 27 103 85 111
124 7 38 47 69 89 69 19 0 65 -5 103 -12 53 -9 79 -9 107 0 37 11 38 11 100
-47 34 -32 111 -91 169 -130 108 -72 351 -199 361 -188 3 3 -2 17 -11 31 -37
56 -3 142 123 316 220 302 314 467 368 645 25 82 28 105 28 255 1 210 -12 257
-139 515 -51 105 -100 214 -109 244 -19 63 -21 173 -5 204 50 98 142 90 277
-22 90 -75 166 -172 220 -279 42 -85 46 -100 50 -181 5 -111 -8 -171 -104
-463 -87 -266 -104 -342 -105 -458 0 -105 12 -161 61 -267 83 -179 215 -315
552 -567 l36 -27 55 74 c30 41 129 151 220 245 190 196 229 258 247 393 23
165 -55 450 -201 741 -40 80 -40 139 1 180 28 27 36 30 75 26 89 -11 204 -129
298 -307 59 -111 96 -223 147 -446 23 -99 55 -220 71 -270 86 -256 268 -464
519 -590 108 -54 194 -83 398 -135 123 -31 166 -39 177 -30 27 22 114 157 158
245 61 123 105 267 119 398 11 94 10 122 -5 209 -30 177 -107 318 -243 447
-105 100 -196 157 -434 273 -332 161 -381 190 -419 252 -23 37 -27 86 -9 104
37 37 166 1 398 -108 189 -89 252 -112 369 -134 103 -20 166 -20 254 -1 118
25 214 80 282 163 l28 33 -28 52 c-61 114 -164 256 -245 338 -97 99 -194 165
-307 210 -201 81 -380 88 -814 33 -255 -32 -301 -36 -444 -31 -164 6 -231 18
-326 58 -56 25 -99 69 -99 104 0 60 112 132 241 154 36 6 117 11 181 11 409 0
691 99 833 291 44 60 78 135 90 200 l6 35 -113 81 c-285 202 -558 327 -806
368 -140 23 -352 17 -470 -14 -255 -67 -457 -204 -701 -475 -67 -75 -126 -136
-131 -136 -5 0 -28 24 -52 54 -24 29 -70 84 -102 120 -32 37 -57 68 -55 70 2
2 101 59 219 126 118 67 262 153 320 191 84 54 120 71 175 83 96 21 426 104
449 114 16 7 3 21 -84 91 -56 45 -110 87 -120 93 -16 10 -16 14 -3 47 34 81
27 198 -24 407 -4 18 3 22 79 38 46 10 209 53 363 96 154 43 305 83 335 90 30
6 62 14 70 16 9 3 -17 26 -70 60 -233 152 -483 260 -763 328 -203 51 -325 67
-547 73 -285 8 -534 -25 -780 -104 l-85 -27 155 -8 c85 -4 212 -14 282 -23
150 -18 398 -64 398 -74 0 -19 -180 -34 -419 -36 -267 -2 -439 -17 -448 -41
-3 -7 1 -29 7 -49 16 -47 68 -81 159 -102 l71 -17 -70 -71 -70 -71 -83 8
c-145 14 -380 -9 -472 -46 l-30 -12 70 -27 c75 -28 180 -55 315 -82 47 -10 86
-18 88 -20 2 -2 -43 -104 -55 -124 -1 -2 -64 6 -140 18 -76 11 -192 25 -259
30 -129 10 -311 4 -320 -11 -11 -18 6 -53 43 -92 49 -50 154 -100 368 -175 94
-32 177 -62 186 -66 15 -6 15 -12 -3 -68 -10 -33 -21 -63 -23 -65 -3 -3 -33 8
-67 23 -176 77 -421 144 -621 170 -124 16 -467 21 -467 7 0 -25 140 -100 375
-202 220 -95 399 -185 470 -237 98 -72 9 -47 -293 82 -356 152 -498 195 -641
196 -122 1 -148 -24 -112 -106 25 -56 104 -141 194 -208 l67 -50 -40 -18 c-22
-10 -60 -32 -84 -48 l-44 -31 -91 54 c-50 29 -104 59 -120 66 l-30 12 21 28
c37 50 -4 130 -66 130 -37 0 -43 -4 -79 -52 l-27 -37 -73 27 c-41 15 -75 30
-75 35 -13 64 36 119 163 181 73 35 96 51 101 70 13 53 -25 90 -90 90 -47 0
-83 -27 -95 -71 -6 -21 -18 -48 -26 -60 -21 -29 -68 -30 -96 -2 -26 26 -53 89
-42 99 4 4 76 26 158 50 238 67 499 167 700 268 84 42 297 183 455 301 407
304 796 695 1103 1106 466 624 775 1311 922 2053 15 74 24 136 22 139 -3 2
-15 -40 -27 -94 -108 -477 -296 -916 -606 -1418 -392 -636 -939 -1219 -1525
-1626 -255 -177 -630 -382 -874 -478 l-100 -39 -10 30 c-14 41 -50 68 -89 68
-41 0 -71 -32 -79 -84 -8 -53 -46 -91 -81 -82 -53 13 -116 153 -116 256 0 69
15 106 60 144 32 26 80 35 80 15 0 -23 -41 -170 -60 -214 -22 -52 -26 -105 -8
-105 7 0 51 39 98 88 240 244 404 629 450 1052 15 143 20 170 28 170 23 0 74
-45 93 -82 33 -64 23 -196 -31 -408 -35 -138 -42 -182 -43 -270 -2 -92 1 -111
22 -154 l24 -48 35 53 c85 133 155 310 194 493 28 137 31 442 5 591 -21 118
-76 319 -113 413 -73 185 -212 430 -316 554 l-39 47 48 6 c78 10 172 34 252
65 41 16 76 28 77 27 1 -1 12 -54 24 -117 14 -68 66 -242 127 -425 168 -500
215 -669 244 -875 16 -121 14 -368 -5 -464 -9 -44 -14 -81 -12 -83 7 -7 106
217 130 294 116 373 110 841 -19 1421 -28 123 -28 121 0 77 186 -290 304 -852
261 -1232 -10 -85 -1 -103 49 -103 55 0 141 75 187 164 16 30 22 61 24 116 0
41 9 118 19 170 38 198 20 469 -46 680 -142 458 -491 877 -941 1128 -32 18
-60 32 -63 32 -3 0 -5 -12 -5 -27 0 -23 -5 -18 -39 33 -135 211 -375 327 -749
364 -156 16 -191 27 -219 69 -28 41 -29 66 -4 107 38 62 145 94 318 94 134 0
241 -22 509 -104 334 -102 451 -120 612 -92 51 9 109 23 128 31 18 8 34 10 34
6 0 -35 46 -341 67 -446 24 -122 35 -151 180 -478 320 -723 412 -1005 479
-1482 7 -48 8 -46 30 85 65 390 57 873 -20 1195 -8 33 -13 61 -11 63 7 7 52
-73 72 -128 44 -118 77 -290 122 -649 16 -128 32 -235 34 -237 8 -8 49 145 69
261 27 162 22 446 -11 605 -111 520 -422 956 -856 1199 l-86 49 60 36 c85 52
197 160 301 291 49 63 94 116 100 120 18 11 11 36 -36 129 -69 138 -189 310
-289 414 -180 189 -325 262 -522 262 -204 0 -368 -79 -679 -327 -184 -147
-258 -198 -315 -219 -70 -24 -129 -5 -129 43 0 57 60 128 220 258 207 169 290
274 337 422 33 107 30 234 -8 328 l-24 60 -95 1 c-52 1 -124 -2 -160 -7z
m-531 -2171 c129 -27 243 -68 388 -139 143 -70 179 -97 205 -157 24 -53 17
-93 -20 -123 -23 -18 -38 -20 -93 -17 -87 5 -161 42 -304 155 -217 170 -336
234 -487 263 -67 13 -74 26 -20 35 20 4 42 8 47 11 22 8 195 -9 284 -28z
m-313 -247 c60 -29 91 -56 244 -214 495 -513 542 -548 753 -573 31 -3 57 -8
57 -11 0 -2 -6 -14 -14 -26 -27 -42 -104 -253 -131 -359 l-28 -107 -96 192
c-196 389 -346 562 -584 672 -108 50 -176 64 -357 75 -202 13 -291 31 -360 73
-125 75 -114 173 28 250 88 48 182 68 308 64 103 -3 118 -6 180 -36z m-341
-525 c230 -69 421 -206 455 -328 31 -109 -96 -178 -245 -134 -73 23 -139 72
-296 223 -177 170 -251 215 -393 238 -100 16 33 35 224 31 144 -3 177 -7 255
-30z m-402 -259 c95 -47 128 -83 301 -337 163 -237 231 -327 336 -441 l80 -88
-9 -43 c-22 -100 -33 -329 -27 -563 6 -219 5 -238 -9 -220 -22 28 -61 156 -74
245 -6 41 -15 147 -21 235 -11 190 -32 282 -95 413 -57 118 -91 168 -184 266
-118 123 -237 201 -347 227 -147 34 -206 66 -231 127 -29 68 2 176 59 209 42
25 136 12 221 -30z m-328 -562 c110 -28 203 -81 286 -164 105 -105 159 -219
159 -338 0 -47 -4 -58 -36 -92 -61 -68 -126 -74 -172 -16 -22 28 -37 65 -72
180 -33 108 -79 173 -200 286 -78 72 -110 108 -110 125 0 37 48 44 145 19z
m1893 -452 c-3 -60 -12 -245 -18 -413 -10 -280 -22 -468 -35 -545 l-5 -30 -79
0 c-44 0 -82 3 -85 6 -3 3 3 37 13 75 33 122 45 216 44 364 -2 157 -19 291
-59 439 -13 52 -21 97 -17 101 5 3 40 19 78 33 39 15 88 38 110 51 22 13 45
25 50 25 7 1 8 -35 3 -106z m-135 -1841 c27 -46 37 -97 26 -137 -13 -47 -41
-61 -65 -33 -26 28 -112 68 -149 68 -36 0 -73 -24 -84 -53 -7 -18 -15 -21 -57
-19 l-49 2 35 -17 c19 -9 113 -54 209 -100 137 -66 172 -86 167 -99 -3 -8 -6
-31 -6 -50 l0 -34 -52 29 c-29 16 -82 41 -118 57 -39 17 -87 48 -121 80 -34
32 -71 56 -95 63 -65 17 -129 -9 -166 -67 l-20 -33 -36 52 c-19 29 -70 89
-113 134 l-78 81 181 23 c174 21 497 77 507 87 3 3 19 4 35 2 22 -2 35 -12 49
-36z m2474 -207 c48 -14 128 -31 176 -38 l89 -12 -106 -109 -105 -108 -33 27
c-18 14 -67 52 -108 82 -41 31 -79 59 -84 64 -7 6 69 119 80 119 2 0 43 -11
91 -25z m-2203 -312 c107 -77 216 -167 216 -177 -1 -6 -9 -21 -19 -33 l-19
-23 -86 64 c-48 36 -107 77 -131 93 -45 28 -56 54 -39 97 9 23 21 20 78 -21z
m4099 -123 c73 -21 38 -65 -113 -141 -158 -78 -249 -107 -457 -144 -448 -80
-623 -141 -692 -241 -38 -55 -39 -104 -3 -177 96 -195 368 -333 807 -409 117
-20 155 -22 385 -19 520 9 693 7 742 -8 55 -16 81 -40 76 -72 -12 -84 -222
-95 -633 -33 -237 36 -335 23 -335 -43 0 -30 17 -47 254 -263 362 -330 647
-660 756 -875 38 -74 75 -184 65 -193 -2 -2 -24 38 -48 89 -195 417 -737 889
-1582 1379 -413 240 -801 412 -1100 489 -199 51 -309 64 -495 58 -91 -3 -185
-11 -210 -17 -25 -5 -55 -12 -68 -15 -18 -4 -25 0 -33 22 -19 50 -2 90 66 163
45 48 66 79 71 104 5 27 10 35 23 32 106 -30 99 -26 88 -55 -14 -38 -3 -73 31
-93 18 -11 92 -26 198 -39 190 -26 476 -31 579 -11 54 10 75 8 198 -17 75 -15
137 -26 137 -24 0 2 -13 30 -30 62 l-29 59 44 17 c62 23 196 106 362 222 188
133 282 167 548 199 121 14 338 11 398 -6z m-3532 -457 c13 -16 12 -17 -3 -4
-10 7 -18 15 -18 17 0 8 8 3 21 -13z m1318 -448 c88 -118 166 -280 207 -429
52 -186 42 -445 -21 -552 -83 -141 -247 -65 -301 141 -24 87 -17 151 37 362
44 174 50 211 51 303 0 104 -4 124 -56 265 -9 24 27 -15 83 -90z m1196 -485
c99 -196 158 -467 159 -732 1 -123 -1 -139 -20 -165 -45 -61 -111 -29 -163 80
-56 114 -58 209 -10 461 22 118 2 306 -45 418 -9 21 -16 45 -16 55 1 28 56
-40 95 -117z"/>
<path d="M10585 10220 c-47 -74 -111 -219 -144 -325 -65 -209 -97 -441 -110
-778 -8 -211 -2 -306 19 -333 38 -45 125 24 193 153 58 110 78 178 87 293 13
150 37 220 54 158 11 -43 6 -267 -8 -341 -17 -90 -35 -127 -87 -184 -50 -55
-53 -95 -8 -113 24 -10 41 -11 81 -1 84 19 138 72 138 136 0 15 14 47 31 71
146 213 178 511 84 804 -50 158 -149 333 -258 455 l-44 49 -28 -44z"/>
<path d="M9266 9828 c-6 -28 -19 -393 -19 -543 0 -127 20 -242 64 -374 47
-141 88 -232 231 -511 72 -140 152 -304 178 -365 53 -123 71 -136 103 -75 16
30 18 52 13 160 -3 69 -16 193 -30 275 -13 83 -28 170 -32 195 l-7 45 24 -16
c52 -34 75 -114 119 -414 33 -224 58 -347 71 -340 14 9 67 171 91 276 20 91
23 129 22 309 0 173 -4 221 -22 305 -72 324 -209 588 -418 805 -105 109 -218
199 -324 258 l-59 33 -5 -23z"/>
<path d="M11720 9019 c-271 -35 -541 -134 -758 -280 -182 -121 -392 -349 -394
-427 -1 -42 5 -47 53 -45 81 4 244 99 300 176 24 33 30 37 35 22 5 -11 -2 -35
-16 -62 -25 -48 -204 -225 -318 -317 -107 -84 -135 -139 -90 -170 59 -42 196
-3 259 73 28 34 53 49 139 84 295 121 563 349 767 652 48 72 148 251 158 283
6 20 3 22 -32 21 -21 -1 -67 -5 -103 -10z"/>
<path d="M8855 8991 c-83 -38 -153 -152 -170 -281 -9 -61 9 -163 39 -224 13
-28 73 -157 131 -286 59 -129 143 -314 187 -410 103 -226 175 -402 233 -570
47 -137 115 -395 115 -437 0 -13 4 -23 9 -23 9 0 27 155 37 320 11 196 -23
518 -81 754 -29 117 -93 314 -136 417 -16 40 -27 74 -25 76 7 8 127 -180 171
-267 85 -171 166 -422 250 -778 50 -210 57 -195 58 123 0 196 -4 266 -22 380
-63 414 -192 716 -421 991 -126 150 -161 184 -215 210 -60 28 -106 30 -160 5z"/>
<path d="M11416 8050 c-398 -46 -756 -212 -1015 -470 -84 -84 -211 -243 -211
-265 0 -4 30 -4 68 0 137 14 250 48 487 148 72 30 171 68 220 85 88 30 235 57
270 50 9 -1 -109 -61 -263 -131 -379 -174 -582 -291 -752 -432 -96 -80 -119
-105 -97 -105 39 0 159 35 327 95 313 113 361 124 557 135 95 5 203 14 240 21
385 64 739 256 960 521 75 89 133 171 133 186 0 24 -251 110 -416 142 -125 24
-383 34 -508 20z"/>
<path d="M10755 7014 c-214 -36 -423 -126 -584 -252 -23 -18 -23 -20 -7 -51
26 -50 70 -71 146 -71 76 0 137 14 315 70 72 22 163 47 203 55 90 19 216 21
257 4 29 -11 25 -13 -80 -35 -523 -113 -751 -180 -980 -290 -89 -42 -259 -143
-253 -149 4 -4 556 57 723 80 572 78 998 193 1365 367 l105 50 -80 38 c-184
87 -407 155 -607 184 -129 20 -409 20 -523 0z"/>
<path d="M3953 6571 c-78 -23 -117 -52 -173 -132 -25 -35 -66 -85 -91 -111
-61 -63 -82 -63 -154 2 -61 56 -86 65 -165 65 -78 -1 -156 -41 -240 -124 -190
-188 -280 -430 -280 -751 0 -196 41 -429 111 -625 23 -67 35 -85 55 -85 19 0
18 29 -6 144 -17 80 -19 108 -11 154 6 31 17 99 26 150 28 166 81 273 150 306
48 23 58 20 80 -20 28 -52 90 -104 123 -104 35 0 52 18 87 93 37 79 90 111
176 105 68 -5 104 -26 133 -79 36 -67 22 -93 -138 -258 -177 -181 -211 -219
-269 -302 -52 -74 -83 -138 -103 -214 -19 -68 -18 -85 4 -85 34 0 106 58 233
187 113 115 140 136 260 208 74 43 219 119 323 167 273 128 341 165 402 220
93 86 143 224 124 342 -15 93 -73 183 -143 221 l-34 18 -7 92 c-15 214 -85
358 -201 411 -62 30 -179 31 -272 5z"/>
<path d="M1731 6524 c-166 -58 -273 -231 -228 -365 23 -68 10 -114 -59 -208
-128 -175 -138 -219 -83 -362 129 -334 485 -587 960 -683 65 -14 128 -22 141
-19 32 8 48 22 48 42 0 20 -75 94 -182 179 -94 76 -101 85 -195 247 -108 186
-127 248 -103 336 15 54 51 82 112 87 107 8 210 -78 299 -252 23 -45 58 -108
79 -141 21 -33 62 -116 91 -184 61 -143 106 -201 157 -201 18 0 32 1 32 3 0 2
-15 49 -34 105 -77 229 -100 438 -72 657 24 183 23 332 -4 417 -28 90 -126
223 -184 249 -53 24 -72 23 -186 -6 -152 -39 -184 -35 -279 40 -31 24 -76 51
-100 60 -55 19 -153 19 -210 -1z"/>
<path d="M10445 6214 c-250 -18 -525 -83 -735 -172 -84 -36 -84 -36 -50 -43
38 -8 197 -21 532 -44 219 -15 431 -40 458 -56 11 -6 5 -12 -25 -25 -33 -14
-94 -18 -354 -25 -173 -5 -346 -13 -385 -19 -203 -29 -259 -39 -281 -54 -33
-22 -32 -32 9 -71 62 -58 225 -100 321 -84 28 5 60 2 105 -11 92 -27 276 -58
410 -70 233 -20 498 -8 985 44 127 14 269 28 318 32 48 4 87 10 87 14 0 20
-110 144 -195 219 -203 180 -473 299 -780 345 -103 16 -332 27 -420 20z"/>
<path d="M4360 5228 c-226 -14 -401 -90 -632 -277 -134 -108 -400 -382 -385
-397 3 -4 26 -9 51 -11 54 -6 117 20 231 97 42 28 92 58 110 66 49 20 114 18
153 -6 l32 -20 0 -89 c0 -75 3 -92 22 -116 l21 -27 107 7 c91 6 112 4 141 -10
48 -24 68 -44 90 -87 65 -127 8 -240 -134 -270 -51 -11 -68 -9 -159 12 -57 13
-121 24 -143 25 -39 0 -40 -1 -39 -35 0 -19 8 -63 18 -97 29 -105 -3 -168 -97
-194 -22 -6 -56 -8 -76 -4 -124 21 -204 79 -250 179 -49 107 -118 176 -174
176 -64 0 -72 -118 -21 -283 92 -293 342 -605 582 -727 82 -41 135 -59 211
-70 133 -19 268 35 374 150 98 106 133 185 173 398 10 52 88 110 257 192 187
90 222 120 294 257 87 164 97 342 27 500 -25 57 -98 141 -151 174 -22 14 -71
77 -148 193 -184 279 -234 309 -485 294z"/>
<path d="M1234 5170 c-12 -5 -29 -19 -38 -32 -30 -42 -20 -66 49 -132 76 -72
83 -99 34 -140 -22 -18 -42 -26 -70 -26 -78 0 -123 41 -180 165 -40 88 -55
105 -90 105 -43 0 -69 -35 -69 -90 0 -54 22 -80 82 -99 38 -13 78 -52 78 -78
0 -22 -61 -72 -102 -85 -80 -24 -168 34 -220 144 -40 85 -87 101 -139 49 -37
-38 -39 -82 -4 -116 13 -14 36 -25 50 -25 62 0 113 -57 89 -99 -6 -9 -45 -34
-87 -55 -95 -48 -198 -60 -257 -29 -52 27 -83 79 -74 123 12 55 6 91 -17 117
-29 30 -45 29 -94 -3 -61 -40 -65 -49 -65 -142 0 -95 -5 -108 -66 -166 -66
-64 -62 -85 43 -199 49 -54 53 -62 53 -107 0 -69 19 -80 157 -89 59 -4 119
-13 132 -20 31 -17 86 -6 106 22 23 33 18 72 -20 157 -35 78 -44 135 -25 169
15 30 144 129 195 152 34 15 60 20 88 16 75 -10 76 -49 2 -126 -65 -69 -70
-96 -24 -136 45 -37 86 -32 113 15 17 29 21 50 19 121 -1 69 2 92 18 118 36
60 134 101 194 81 54 -18 63 -36 32 -68 -34 -35 -67 -109 -67 -150 0 -69 85
-108 130 -60 20 22 23 40 20 136 -2 74 15 119 53 138 60 32 354 -4 586 -71
210 -60 521 -195 677 -292 152 -96 266 -143 343 -143 49 0 109 37 146 88 26
38 30 53 30 107 0 75 -13 92 -136 185 -161 120 -379 210 -629 260 -260 52
-359 57 -710 34 -87 -5 -99 -4 -140 18 -59 31 -90 89 -90 170 0 84 -38 116
-106 88z"/>
<path d="M1815 4336 c-197 -29 -332 -76 -528 -188 -230 -130 -302 -248 -328
-540 -12 -130 -13 -134 -46 -171 -41 -46 -53 -75 -53 -130 0 -59 35 -115 90
-145 47 -25 69 -25 217 -6 50 6 54 5 81 -24 16 -17 43 -66 61 -109 45 -108 76
-152 119 -170 94 -39 247 45 364 201 56 75 100 160 282 540 86 178 172 251
269 230 65 -14 69 -18 46 -71 -29 -68 -92 -159 -221 -321 -111 -138 -203 -282
-227 -354 -69 -208 10 -427 177 -493 42 -17 66 -17 159 1 96 18 153 -29 242
-203 77 -149 160 -241 242 -268 82 -28 196 -18 282 25 43 21 74 44 86 64 28
44 130 141 241 228 107 85 189 168 215 218 15 28 17 51 12 135 -9 165 -54 269
-250 565 -130 197 -175 284 -223 429 -36 110 -66 171 -84 171 -5 0 -17 -12
-27 -26 -27 -42 -20 -115 22 -229 91 -248 95 -259 95 -324 0 -88 -16 -135 -62
-176 -39 -36 -73 -44 -108 -25 -11 6 -51 48 -89 94 -83 99 -112 115 -207 114
-88 -2 -135 14 -174 58 -56 65 -39 161 67 365 62 120 65 128 52 154 -23 46
-64 70 -117 69 -61 -2 -114 -26 -264 -120 -68 -43 -145 -88 -173 -101 -27 -13
-68 -35 -90 -48 -82 -50 -210 -23 -262 56 -68 103 27 249 195 299 37 11 130
31 207 45 110 20 156 33 214 63 41 20 76 42 78 48 4 12 -107 47 -202 64 -99
17 -282 20 -380 6z"/>
<path d="M3444 2225 c-59 -29 -137 -108 -178 -177 -96 -164 -148 -453 -161
-893 -10 -347 -26 -452 -70 -481 -22 -14 -27 -14 -59 1 -72 35 -142 158 -172
306 -13 64 -15 113 -11 209 6 156 33 288 102 500 71 219 69 211 37 204 -54
-13 -148 -63 -204 -107 -99 -80 -190 -244 -235 -425 -27 -105 -24 -391 5 -494
64 -232 184 -417 361 -560 82 -65 248 -158 284 -158 50 0 94 43 117 115 22 71
95 198 246 431 226 347 311 535 350 771 19 116 14 296 -10 388 -39 145 -145
310 -231 360 -66 39 -109 42 -171 10z"/>
<path d="M6085 2003 c-11 -3 -33 -11 -50 -18 -16 -7 -68 -25 -115 -40 -112
-36 -246 -106 -340 -176 -155 -117 -308 -303 -381 -465 -91 -201 -9 -431 206
-576 65 -44 93 -55 190 -73 180 -34 224 -66 268 -200 75 -222 239 -383 442
-435 217 -55 422 13 534 177 41 60 96 102 230 173 135 72 177 109 212 186 58
127 63 295 14 473 -60 222 -281 518 -564 760 -80 68 -91 68 -91 0 0 -54 21
-104 83 -199 89 -138 110 -185 103 -226 -4 -19 -23 -53 -43 -75 -30 -33 -41
-39 -75 -39 -31 0 -45 6 -65 29 -24 27 -28 28 -49 15 -34 -23 -38 -38 -44
-191 l-5 -142 -34 -35 c-65 -67 -146 -84 -219 -47 -48 25 -76 55 -101 111 -32
71 -27 128 19 232 49 108 56 137 37 162 -13 18 -16 18 -87 -18 -164 -82 -281
-22 -267 137 12 128 118 256 274 329 80 38 113 66 113 98 0 49 -116 92 -195
73z"/>
</g>
</svg>
