<?xml version="1.0" encoding="UTF-8"?>
<svg xmlns="http://www.w3.org/2000/svg" xmlns:xlink="http://www.w3.org/1999/xlink" width="100pt" height="100pt" viewBox="0 0 100 100" version="1.1">
<g id="surface1">
<path style=" stroke:none;fill-rule:nonzero;fill:rgb(0%,0%,0%);fill-opacity:1;" d="M 40.816406 30.121094 L 43.878906 30.121094 L 43.878906 33.179688 L 40.816406 33.179688 Z M 40.816406 30.121094 "/>
<path style=" stroke:none;fill-rule:nonzero;fill:rgb(0%,0%,0%);fill-opacity:1;" d="M 56.425781 20.121094 L 59.484375 20.121094 L 59.484375 23.179688 L 56.425781 23.179688 Z M 56.425781 20.121094 "/>
<path style=" stroke:none;fill-rule:nonzero;fill:rgb(0%,0%,0%);fill-opacity:1;" d="M 73.117188 31.886719 L 76.175781 31.886719 L 76.175781 34.945312 L 73.117188 34.945312 Z M 73.117188 31.886719 "/>
<path style=" stroke:none;fill-rule:nonzero;fill:rgb(0%,0%,0%);fill-opacity:1;" d="M 71.03125 19.132812 L 74.09375 19.132812 L 74.09375 22.195312 L 71.03125 22.195312 Z M 71.03125 19.132812 "/>
<path style=" stroke:none;fill-rule:nonzero;fill:rgb(0%,0%,0%);fill-opacity:1;" d="M 45.304688 10.9375 L 48.367188 10.9375 L 48.367188 14 L 45.304688 14 Z M 45.304688 10.9375 "/>
<path style=" stroke:none;fill-rule:nonzero;fill:rgb(0%,0%,0%);fill-opacity:1;" d="M 59.371094 37.53125 L 62.429688 37.53125 L 62.429688 40.59375 L 59.371094 40.59375 Z M 59.371094 37.53125 "/>
<path style=" stroke:none;fill-rule:nonzero;fill:rgb(0%,0%,0%);fill-opacity:1;" d="M 34.921875 0 L 34.921875 48.46875 L 13.546875 48.46875 L 13.546875 100 L 65.078125 100 L 65.078125 51.53125 L 86.453125 51.53125 L 86.453125 0 Z M 62.015625 96.9375 L 16.605469 96.9375 L 16.605469 51.53125 L 62.015625 51.53125 Z M 83.394531 48.46875 L 37.984375 48.46875 L 37.984375 3.0625 L 83.394531 3.0625 Z M 83.394531 48.46875 "/>
<path style=" stroke:none;fill-rule:nonzero;fill:rgb(0%,0%,0%);fill-opacity:1;" d="M 25.964844 78.589844 L 29.023438 78.589844 L 29.023438 81.652344 L 25.964844 81.652344 Z M 25.964844 78.589844 "/>
<path style=" stroke:none;fill-rule:nonzero;fill:rgb(0%,0%,0%);fill-opacity:1;" d="M 37.1875 68.589844 L 40.25 68.589844 L 40.25 71.652344 L 37.1875 71.652344 Z M 37.1875 68.589844 "/>
<path style=" stroke:none;fill-rule:nonzero;fill:rgb(0%,0%,0%);fill-opacity:1;" d="M 53.878906 80.355469 L 56.9375 80.355469 L 56.9375 83.417969 L 53.878906 83.417969 Z M 53.878906 80.355469 "/>
<path style=" stroke:none;fill-rule:nonzero;fill:rgb(0%,0%,0%);fill-opacity:1;" d="M 51.792969 67.605469 L 54.851562 67.605469 L 54.851562 70.664062 L 51.792969 70.664062 Z M 51.792969 67.605469 "/>
<path style=" stroke:none;fill-rule:nonzero;fill:rgb(0%,0%,0%);fill-opacity:1;" d="M 30.453125 59.40625 L 33.515625 59.40625 L 33.515625 62.46875 L 30.453125 62.46875 Z M 30.453125 59.40625 "/>
<path style=" stroke:none;fill-rule:nonzero;fill:rgb(0%,0%,0%);fill-opacity:1;" d="M 40.132812 86 L 43.195312 86 L 43.195312 89.0625 L 40.132812 89.0625 Z M 40.132812 86 "/>
</g>
</svg>
