<?xml version="1.0" encoding="UTF-8"?>
<svg xmlns="http://www.w3.org/2000/svg" xmlns:xlink="http://www.w3.org/1999/xlink" width="40pt" height="40pt" viewBox="0 0 40 40" version="1.1">
<g id="surface1">
<path style=" stroke:none;fill-rule:evenodd;fill:rgb(0.392157%,0.392157%,0.392157%);fill-opacity:1;" d="M 4 0 L 36 0 C 38.210938 0 40 1.789062 40 4 L 40 36 C 40 38.210938 38.210938 40 36 40 L 4 40 C 1.789062 40 0 38.210938 0 36 L 0 4 C 0 1.789062 1.789062 0 4 0 Z M 4 0 "/>
<path style=" stroke:none;fill-rule:evenodd;fill:rgb(93.333333%,11.372549%,31.764706%);fill-opacity:1;" d="M 25.117188 36.800781 C 26.335938 36.800781 27.320312 35.820312 27.320312 34.613281 C 27.320312 33.40625 26.335938 32.429688 25.117188 32.429688 L 24.785156 32.429688 C 26 32.429688 26.988281 33.40625 26.988281 34.613281 C 26.988281 35.820312 26 36.800781 24.785156 36.800781 Z M 25.117188 36.800781 "/>
<path style=" stroke:none;fill-rule:evenodd;fill:rgb(40%,78.431373%,81.176471%);fill-opacity:1;" d="M 24.753906 32.429688 L 24.421875 32.429688 C 23.207031 32.429688 22.21875 33.40625 22.21875 34.613281 C 22.21875 35.820312 23.207031 36.800781 24.421875 36.800781 L 24.753906 36.800781 C 23.539062 36.800781 22.550781 35.820312 22.550781 34.613281 C 22.550781 33.40625 23.539062 32.429688 24.753906 32.429688 Z M 24.753906 32.429688 "/>
<path style=" stroke:none;fill-rule:evenodd;fill:rgb(0.392157%,0.392157%,0.392157%);fill-opacity:1;" d="M 25.84375 34.613281 C 25.84375 34.027344 25.363281 33.550781 24.769531 33.550781 C 24.179688 33.550781 23.699219 34.027344 23.699219 34.613281 C 23.699219 35.203125 24.179688 35.675781 24.769531 35.675781 C 25.363281 35.675781 25.84375 35.203125 25.84375 34.613281 Z M 25.84375 34.613281 "/>
<path style=" stroke:none;fill-rule:evenodd;fill:rgb(100%,100%,100%);fill-opacity:1;" d="M 8 31.441406 L 8 32.546875 L 9.296875 32.546875 L 9.296875 36.769531 L 10.597656 36.769531 L 10.597656 32.578125 L 11.652344 32.578125 L 12.015625 31.441406 Z M 18.625 31.441406 L 18.625 32.546875 L 19.925781 32.546875 L 19.925781 36.769531 L 21.222656 36.769531 L 21.222656 32.578125 L 22.28125 32.578125 L 22.640625 31.441406 Z M 12.257812 32.070312 C 12.257812 31.722656 12.539062 31.441406 12.890625 31.441406 C 13.242188 31.441406 13.523438 31.722656 13.523438 32.070312 C 13.523438 32.414062 13.242188 32.695312 12.890625 32.695312 C 12.539062 32.695312 12.257812 32.414062 12.257812 32.070312 Z M 12.257812 33.148438 L 13.523438 33.148438 L 13.523438 36.769531 L 12.257812 36.769531 Z M 14.066406 31.441406 L 14.066406 36.769531 L 15.335938 36.769531 L 15.335938 35.390625 L 15.726562 35.03125 L 16.964844 36.800781 L 18.324219 36.800781 L 16.542969 34.226562 L 18.144531 32.667969 L 16.601562 32.667969 L 15.335938 33.925781 L 15.335938 31.441406 Z M 27.742188 31.441406 L 27.742188 36.769531 L 29.011719 36.769531 L 29.011719 35.390625 L 29.402344 35.03125 L 30.640625 36.800781 L 32 36.800781 L 30.21875 34.226562 L 31.820312 32.667969 L 30.28125 32.667969 L 29.011719 33.925781 L 29.011719 31.441406 Z M 27.742188 31.441406 "/>
<path style=" stroke:none;fill-rule:evenodd;fill:rgb(93.333333%,11.372549%,32.156863%);fill-opacity:1;" d="M 25.789062 12.988281 C 27.539062 14.242188 29.683594 14.976562 32 14.976562 L 32 10.519531 C 31.5625 10.519531 31.125 10.476562 30.695312 10.382812 L 30.695312 13.890625 C 28.378906 13.890625 26.234375 13.15625 24.480469 11.90625 L 24.480469 21 C 24.480469 25.546875 20.792969 29.234375 16.242188 29.234375 C 14.542969 29.234375 12.964844 28.722656 11.652344 27.84375 C 13.148438 29.371094 15.238281 30.320312 17.546875 30.320312 C 22.097656 30.320312 25.789062 26.632812 25.789062 22.082031 Z M 27.398438 8.492188 C 26.5 7.515625 25.914062 6.253906 25.789062 4.859375 L 25.789062 4.285156 L 24.550781 4.285156 C 24.859375 6.058594 25.921875 7.574219 27.398438 8.492188 Z M 14.53125 24.351562 C 14.03125 23.695312 13.761719 22.894531 13.761719 22.070312 C 13.761719 19.988281 15.449219 18.304688 17.53125 18.304688 C 17.921875 18.304688 18.304688 18.363281 18.675781 18.480469 L 18.675781 13.921875 C 18.242188 13.863281 17.808594 13.839844 17.371094 13.847656 L 17.371094 17.394531 C 17 17.277344 16.617188 17.21875 16.226562 17.21875 C 14.144531 17.21875 12.457031 18.90625 12.457031 20.984375 C 12.457031 22.457031 13.300781 23.730469 14.53125 24.351562 Z M 14.53125 24.351562 "/>
<path style=" stroke:none;fill-rule:evenodd;fill:rgb(100%,100%,100%);fill-opacity:1;" d="M 24.480469 11.90625 C 26.234375 13.15625 28.378906 13.890625 30.695312 13.890625 L 30.695312 10.382812 C 29.402344 10.109375 28.257812 9.433594 27.398438 8.492188 C 25.921875 7.574219 24.859375 6.058594 24.550781 4.285156 L 21.304688 4.285156 L 21.304688 22.082031 C 21.296875 24.15625 19.609375 25.835938 17.53125 25.835938 C 16.308594 25.835938 15.21875 25.253906 14.53125 24.351562 C 13.300781 23.730469 12.457031 22.457031 12.457031 20.984375 C 12.457031 18.90625 14.144531 17.21875 16.226562 17.21875 C 16.625 17.21875 17.011719 17.28125 17.371094 17.394531 L 17.371094 13.847656 C 12.898438 13.941406 9.304688 17.59375 9.304688 22.082031 C 9.304688 24.324219 10.199219 26.359375 11.652344 27.84375 C 12.964844 28.722656 14.542969 29.234375 16.242188 29.234375 C 20.792969 29.234375 24.480469 25.546875 24.480469 21 Z M 24.480469 11.90625 "/>
<path style=" stroke:none;fill-rule:evenodd;fill:rgb(41.176471%,78.823529%,81.568627%);fill-opacity:1;" d="M 30.695312 10.382812 L 30.695312 9.4375 C 29.527344 9.4375 28.386719 9.109375 27.398438 8.492188 C 28.273438 9.453125 29.425781 10.113281 30.695312 10.382812 Z M 24.550781 4.285156 C 24.519531 4.117188 24.5 3.945312 24.480469 3.773438 L 24.480469 3.199219 L 19.996094 3.199219 L 19.996094 21 C 19.992188 23.074219 18.304688 24.753906 16.226562 24.753906 C 15.617188 24.753906 15.042969 24.609375 14.53125 24.351562 C 15.21875 25.253906 16.308594 25.835938 17.53125 25.835938 C 19.609375 25.835938 21.296875 24.15625 21.304688 22.082031 L 21.304688 4.285156 Z M 17.371094 13.847656 L 17.371094 12.839844 C 16.996094 12.789062 16.617188 12.761719 16.242188 12.761719 C 11.6875 12.761719 8 16.449219 8 21 C 8 23.851562 9.449219 26.363281 11.652344 27.84375 C 10.199219 26.359375 9.304688 24.324219 9.304688 22.082031 C 9.304688 17.59375 12.898438 13.941406 17.371094 13.847656 Z M 17.371094 13.847656 "/>
<path style=" stroke:none;fill-rule:evenodd;fill:rgb(100%,100%,100%);fill-opacity:1;" d="M 24.785156 36.800781 C 26 36.800781 26.988281 35.820312 26.988281 34.613281 C 26.988281 33.40625 26 32.429688 24.785156 32.429688 L 24.753906 32.429688 C 23.539062 32.429688 22.550781 33.40625 22.550781 34.613281 C 22.550781 35.820312 23.539062 36.800781 24.753906 36.800781 Z M 23.699219 34.613281 C 23.699219 34.027344 24.179688 33.550781 24.769531 33.550781 C 25.359375 33.550781 25.84375 34.027344 25.84375 34.613281 C 25.84375 35.203125 25.359375 35.675781 24.769531 35.675781 C 24.179688 35.675781 23.699219 35.203125 23.699219 34.613281 Z M 23.699219 34.613281 "/>
</g>
</svg>
