<?xml version="1.0" encoding="UTF-8"?>
<svg xmlns="http://www.w3.org/2000/svg" xmlns:xlink="http://www.w3.org/1999/xlink" width="100pt" height="100pt" viewBox="0 0 100 100" version="1.1">
<g id="surface1">
<path style=" stroke:none;fill-rule:evenodd;fill:rgb(0.392157%,0.392157%,0.392157%);fill-opacity:1;" d="M 10 0 L 90 0 C 95.523438 0 100 4.476562 100 10 L 100 90 C 100 95.523438 95.523438 100 90 100 L 10 100 C 4.476562 100 0 95.523438 0 90 L 0 10 C 0 4.476562 4.476562 0 10 0 Z M 10 0 "/>
<path style=" stroke:none;fill-rule:evenodd;fill:rgb(93.333333%,11.372549%,31.764706%);fill-opacity:1;" d="M 62.792969 92 C 65.835938 92 68.300781 89.554688 68.300781 86.535156 C 68.300781 83.515625 65.835938 81.070312 62.792969 81.070312 L 61.960938 81.070312 C 65.003906 81.070312 67.472656 83.515625 67.472656 86.535156 C 67.472656 89.554688 65.003906 92 61.960938 92 Z M 62.792969 92 "/>
<path style=" stroke:none;fill-rule:evenodd;fill:rgb(40%,78.431373%,81.176471%);fill-opacity:1;" d="M 61.886719 81.070312 L 61.058594 81.070312 C 58.015625 81.070312 55.546875 83.515625 55.546875 86.535156 C 55.546875 89.554688 58.015625 92 61.058594 92 L 61.886719 92 C 58.84375 92 56.375 89.554688 56.375 86.535156 C 56.375 83.515625 58.84375 81.070312 61.886719 81.070312 Z M 61.886719 81.070312 "/>
<path style=" stroke:none;fill-rule:evenodd;fill:rgb(0.392157%,0.392157%,0.392157%);fill-opacity:1;" d="M 64.605469 86.535156 C 64.605469 85.066406 63.40625 83.878906 61.925781 83.878906 C 60.445312 83.878906 59.246094 85.066406 59.246094 86.535156 C 59.246094 88.003906 60.445312 89.191406 61.925781 89.191406 C 63.40625 89.191406 64.605469 88.003906 64.605469 86.535156 Z M 64.605469 86.535156 "/>
<path style=" stroke:none;fill-rule:evenodd;fill:rgb(100%,100%,100%);fill-opacity:1;" d="M 20 78.601562 L 20 81.371094 L 23.246094 81.371094 L 23.246094 91.925781 L 26.492188 91.925781 L 26.492188 81.445312 L 29.132812 81.445312 L 30.039062 78.601562 Z M 46.566406 78.601562 L 46.566406 81.371094 L 49.8125 81.371094 L 49.8125 91.925781 L 53.058594 91.925781 L 53.058594 81.445312 L 55.699219 81.445312 L 56.605469 78.601562 Z M 30.640625 80.171875 C 30.640625 79.304688 31.351562 78.601562 32.226562 78.601562 C 33.101562 78.601562 33.8125 79.304688 33.8125 80.171875 C 33.8125 81.039062 33.101562 81.742188 32.226562 81.742188 C 31.351562 81.742188 30.640625 81.039062 30.640625 80.171875 Z M 30.640625 82.867188 L 33.8125 82.867188 L 33.8125 91.925781 L 30.640625 91.925781 Z M 35.167969 78.601562 L 35.167969 91.925781 L 38.339844 91.925781 L 38.339844 88.480469 L 39.320312 87.582031 L 42.414062 92 L 45.8125 92 L 41.359375 85.5625 L 45.359375 81.667969 L 41.507812 81.667969 L 38.339844 84.8125 L 38.339844 78.601562 Z M 69.359375 78.601562 L 69.359375 91.925781 L 72.527344 91.925781 L 72.527344 88.480469 L 73.507812 87.582031 L 76.605469 92 L 80 92 L 75.546875 85.5625 L 79.546875 81.667969 L 75.699219 81.667969 L 72.527344 84.8125 L 72.527344 78.601562 Z M 69.359375 78.601562 "/>
<path style=" stroke:none;fill-rule:evenodd;fill:rgb(93.333333%,11.372549%,32.156863%);fill-opacity:1;" d="M 64.46875 32.472656 C 68.84375 35.601562 74.207031 37.441406 80 37.441406 L 80 26.300781 C 78.902344 26.300781 77.808594 26.1875 76.738281 25.960938 L 76.738281 34.730469 C 70.945312 34.730469 65.582031 32.890625 61.203125 29.761719 L 61.203125 52.496094 C 61.203125 63.867188 51.980469 73.085938 40.601562 73.085938 C 36.359375 73.085938 32.410156 71.804688 29.132812 69.605469 C 32.875 73.429688 38.09375 75.800781 43.863281 75.800781 C 55.242188 75.800781 64.46875 66.582031 64.46875 55.207031 Z M 68.492188 21.234375 C 66.253906 18.792969 64.785156 15.636719 64.46875 12.144531 L 64.46875 10.710938 L 61.375 10.710938 C 62.152344 15.148438 64.808594 18.9375 68.492188 21.234375 Z M 36.328125 60.878906 C 35.082031 59.238281 34.40625 57.234375 34.40625 55.175781 C 34.40625 49.972656 38.625 45.757812 43.832031 45.757812 C 44.800781 45.757812 45.765625 45.90625 46.691406 46.199219 L 46.691406 34.808594 C 45.609375 34.660156 44.519531 34.597656 43.429688 34.621094 L 43.429688 43.484375 C 42.503906 43.191406 41.539062 43.042969 40.570312 43.042969 C 35.363281 43.042969 31.144531 47.261719 31.144531 52.464844 C 31.144531 56.140625 33.253906 59.328125 36.328125 60.878906 Z M 36.328125 60.878906 "/>
<path style=" stroke:none;fill-rule:evenodd;fill:rgb(100%,100%,100%);fill-opacity:1;" d="M 61.203125 29.761719 C 65.582031 32.890625 70.945312 34.730469 76.738281 34.730469 L 76.738281 25.960938 C 73.503906 25.273438 70.644531 23.585938 68.492188 21.234375 C 64.808594 18.9375 62.152344 15.148438 61.375 10.710938 L 53.257812 10.710938 L 53.257812 55.207031 C 53.238281 60.394531 49.027344 64.59375 43.832031 64.59375 C 40.769531 64.59375 38.050781 63.136719 36.328125 60.878906 C 33.253906 59.328125 31.144531 56.140625 31.144531 52.464844 C 31.144531 47.261719 35.363281 43.042969 40.570312 43.042969 C 41.566406 43.042969 42.527344 43.199219 43.429688 43.484375 L 43.429688 34.621094 C 32.25 34.851562 23.261719 43.980469 23.261719 55.207031 C 23.261719 60.8125 25.5 65.894531 29.132812 69.605469 C 32.410156 71.804688 36.359375 73.089844 40.601562 73.089844 C 51.980469 73.089844 61.203125 63.867188 61.203125 52.496094 Z M 61.203125 29.761719 "/>
<path style=" stroke:none;fill-rule:evenodd;fill:rgb(41.176471%,78.823529%,81.568627%);fill-opacity:1;" d="M 76.738281 25.960938 L 76.738281 23.589844 C 73.820312 23.59375 70.964844 22.777344 68.492188 21.234375 C 70.679688 23.628906 73.5625 25.28125 76.738281 25.960938 Z M 61.375 10.710938 C 61.300781 10.289062 61.246094 9.863281 61.203125 9.433594 L 61.203125 8 L 49.992188 8 L 49.992188 52.496094 C 49.976562 57.683594 45.765625 61.882812 40.570312 61.882812 C 39.042969 61.882812 37.605469 61.519531 36.328125 60.878906 C 38.050781 63.136719 40.769531 64.59375 43.832031 64.59375 C 49.023438 64.59375 53.238281 60.394531 53.257812 55.207031 L 53.257812 10.710938 Z M 43.429688 34.621094 L 43.429688 32.097656 C 42.492188 31.96875 41.546875 31.90625 40.601562 31.90625 C 29.222656 31.90625 20 41.125 20 52.496094 C 20 59.625 23.625 65.910156 29.132812 69.605469 C 25.5 65.894531 23.261719 60.8125 23.261719 55.207031 C 23.261719 43.980469 32.25 34.851562 43.429688 34.621094 Z M 43.429688 34.621094 "/>
<path style=" stroke:none;fill-rule:evenodd;fill:rgb(100%,100%,100%);fill-opacity:1;" d="M 61.960938 92 C 65.003906 92 67.472656 89.554688 67.472656 86.535156 C 67.472656 83.515625 65.003906 81.070312 61.960938 81.070312 L 61.886719 81.070312 C 58.84375 81.070312 56.375 83.515625 56.375 86.535156 C 56.375 89.554688 58.84375 92 61.886719 92 Z M 59.246094 86.535156 C 59.246094 85.066406 60.445312 83.878906 61.925781 83.878906 C 63.402344 83.878906 64.605469 85.066406 64.605469 86.535156 C 64.605469 88.003906 63.402344 89.191406 61.925781 89.191406 C 60.445312 89.191406 59.246094 88.003906 59.246094 86.535156 Z M 59.246094 86.535156 "/>
</g>
</svg>
