<?xml version="1.0" encoding="UTF-8"?>
<svg xmlns="http://www.w3.org/2000/svg" xmlns:xlink="http://www.w3.org/1999/xlink" width="20pt" height="15pt" viewBox="0 0 20 15" version="1.1">
<g id="surface1">
<rect x="0" y="0" width="20" height="15" style="fill:rgb(0%,0%,40%);fill-opacity:1;stroke:none;"/>
<path style=" stroke:none;fill-rule:nonzero;fill:rgb(100%,100%,100%);fill-opacity:1;" d="M -5.019531 0 L -5.019531 1.683594 L 21.695312 15.042969 L 25.0625 15.042969 L 25.0625 13.359375 L -1.65625 0 Z M 25.0625 0 L 25.0625 1.683594 L -1.65625 15.042969 L -5.019531 15.042969 L -5.019531 13.359375 L 21.695312 0 Z M 25.0625 0 "/>
<path style=" stroke:none;fill-rule:nonzero;fill:rgb(100%,100%,100%);fill-opacity:1;" d="M 7.511719 0 L 7.511719 15.042969 L 12.527344 15.042969 L 12.527344 0 Z M -5.019531 5.011719 L -5.019531 10.027344 L 25.0625 10.027344 L 25.0625 5.011719 Z M -5.019531 5.011719 "/>
<path style=" stroke:none;fill-rule:nonzero;fill:rgb(80%,0%,0%);fill-opacity:1;" d="M -5.019531 6.015625 L -5.019531 9.023438 L 25.0625 9.023438 L 25.0625 6.015625 Z M 8.515625 0 L 8.515625 15.042969 L 11.527344 15.042969 L 11.527344 0 Z M -5.019531 15.042969 L 5.007812 10.027344 L 7.25 10.027344 L -2.777344 15.042969 Z M -5.019531 0 L 5.007812 5.011719 L 2.765625 5.011719 L -5.019531 1.121094 Z M 12.789062 5.011719 L 22.820312 0 L 25.0625 0 L 15.035156 5.011719 Z M 25.0625 15.042969 L 15.035156 10.027344 L 17.273438 10.027344 L 25.0625 13.917969 Z M 25.0625 15.042969 "/>
</g>
</svg>
