<?xml version="1.0" encoding="UTF-8"?>
<svg xmlns="http://www.w3.org/2000/svg" xmlns:xlink="http://www.w3.org/1999/xlink" width="32pt" height="24pt" viewBox="0 0 32 24" version="1.1">
<g id="surface1">
<rect x="0" y="0" width="32" height="24" style="fill:rgb(0%,0%,40%);fill-opacity:1;stroke:none;"/>
<path style=" stroke:none;fill-rule:nonzero;fill:rgb(100%,100%,100%);fill-opacity:1;" d="M -8.03125 0 L -8.03125 2.691406 L 34.714844 24.066406 L 40.097656 24.066406 L 40.097656 21.375 L -2.652344 0 Z M 40.097656 0 L 40.097656 2.691406 L -2.652344 24.066406 L -8.03125 24.066406 L -8.03125 21.375 L 34.714844 0 Z M 40.097656 0 "/>
<path style=" stroke:none;fill-rule:nonzero;fill:rgb(100%,100%,100%);fill-opacity:1;" d="M 12.019531 0 L 12.019531 24.066406 L 20.042969 24.066406 L 20.042969 0 Z M -8.03125 8.019531 L -8.03125 16.042969 L 40.097656 16.042969 L 40.097656 8.019531 Z M -8.03125 8.019531 "/>
<path style=" stroke:none;fill-rule:nonzero;fill:rgb(80%,0%,0%);fill-opacity:1;" d="M -8.03125 9.625 L -8.03125 14.4375 L 40.097656 14.4375 L 40.097656 9.625 Z M 13.625 0 L 13.625 24.066406 L 18.441406 24.066406 L 18.441406 0 Z M -8.03125 24.066406 L 8.011719 16.042969 L 11.597656 16.042969 L -4.445312 24.066406 Z M -8.03125 0 L 8.011719 8.019531 L 4.425781 8.019531 L -8.03125 1.792969 Z M 20.464844 8.019531 L 36.511719 0 L 40.097656 0 L 24.054688 8.019531 Z M 40.097656 24.066406 L 24.054688 16.042969 L 27.640625 16.042969 L 40.097656 22.269531 Z M 40.097656 24.066406 "/>
</g>
</svg>
