<?xml version="1.0" encoding="UTF-8"?>
<svg xmlns="http://www.w3.org/2000/svg" xmlns:xlink="http://www.w3.org/1999/xlink" width="100pt" height="33pt" viewBox="0 0 100 33" version="1.1">
<g id="surface1">
<path style=" stroke:none;fill-rule:nonzero;fill:rgb(91.372549%,11.764706%,38.823529%);fill-opacity:1;" d="M 61.570312 0.0859375 C 53.40625 0.25 49.5625 0.445312 47.726562 0.78125 C 46.34375 1.039062 45.679688 1.320312 44.648438 2.085938 C 42.554688 3.632812 41.8125 5.554688 41.398438 10.390625 C 41.273438 11.9375 41.21875 18.898438 41.320312 21.171875 C 41.5 25.09375 41.828125 26.9375 42.671875 28.632812 C 43.945312 31.195312 45.695312 32.109375 50.15625 32.53125 C 53.765625 32.882812 61.039062 33 74.453125 32.945312 C 92.492188 32.859375 94.539062 32.65625 96.859375 30.671875 C 98.90625 28.921875 99.546875 26.632812 99.929688 19.726562 C 100.117188 16.375 99.828125 9.640625 99.398438 7.382812 C 99.125 5.929688 98.359375 4 97.734375 3.21875 C 96.796875 2.023438 94.8125 0.96875 93.046875 0.710938 C 89.265625 0.171875 73.210938 -0.148438 61.570312 0.0859375 Z M 58.4375 7.03125 L 58.4375 8.59375 L 54.0625 8.59375 L 54.0625 26.796875 L 50 26.796875 L 50 8.59375 L 45.9375 8.59375 L 45.9375 5.46875 L 58.4375 5.46875 Z M 74.84375 8.789062 C 74.84375 10.617188 74.859375 12.109375 74.882812 12.109375 C 74.898438 12.109375 75.15625 11.953125 75.445312 11.765625 C 77.484375 10.453125 79.171875 10.257812 80.414062 11.203125 C 80.851562 11.53125 81.367188 12.3125 81.5625 12.953125 C 81.796875 13.6875 81.867188 15.539062 81.875 20.507812 L 81.875 24.578125 L 81.507812 25.21875 C 80.84375 26.359375 80.265625 26.796875 79.179688 26.945312 C 77.882812 27.132812 76.453125 26.6875 75.3125 25.742188 L 74.882812 25.390625 L 74.835938 26.796875 L 71.171875 26.796875 L 71.171875 5.46875 L 74.84375 5.46875 Z M 91.210938 10.835938 C 92.117188 11.023438 93.15625 11.578125 93.757812 12.179688 C 94.289062 12.710938 94.546875 13.125 94.726562 13.742188 C 95.054688 14.84375 95.242188 16.84375 95.179688 18.367188 L 95.132812 19.273438 L 93.492188 19.320312 C 92.585938 19.351562 91.007812 19.375 89.984375 19.375 L 88.117188 19.375 L 88.140625 21.34375 C 88.164062 23.578125 88.179688 23.617188 88.765625 24.0625 C 89.085938 24.296875 89.125 24.3125 89.6875 24.28125 C 90.820312 24.210938 91.039062 23.921875 91.1875 22.273438 L 91.28125 21.25 L 95.140625 21.25 L 95.101562 21.929688 C 95.039062 23.140625 94.859375 24.148438 94.632812 24.59375 C 94.507812 24.84375 94.1875 25.234375 93.828125 25.578125 C 92.664062 26.6875 91.617188 27 89.335938 26.929688 C 87.429688 26.867188 86.8125 26.632812 85.703125 25.578125 C 85.007812 24.90625 84.617188 24.296875 84.476562 23.640625 C 84.421875 23.382812 84.335938 22.203125 84.28125 21.03125 C 84.171875 18.632812 84.28125 15.078125 84.484375 14.117188 C 85.023438 11.640625 88.054688 10.164062 91.210938 10.835938 Z M 61.5625 14 C 61.5625 17 61.679688 21.804688 61.78125 23.4375 L 61.835938 24.257812 L 62.289062 24.28125 C 62.820312 24.3125 63.078125 24.179688 63.929688 23.484375 L 64.453125 23.046875 L 64.453125 10.9375 L 68.28125 10.9375 L 68.28125 26.796875 L 64.476562 26.796875 L 64.429688 26.125 C 64.414062 25.757812 64.375 25.4375 64.34375 25.414062 C 64.320312 25.390625 63.960938 25.617188 63.539062 25.921875 C 62.226562 26.859375 61.796875 26.992188 60.382812 26.9375 C 59.382812 26.898438 58.90625 26.742188 58.453125 26.304688 C 58.132812 25.992188 58 25.539062 57.890625 24.375 C 57.820312 23.671875 57.734375 18.53125 57.65625 11.148438 L 57.65625 10.9375 L 61.5625 10.9375 Z M 61.5625 14 "/>
<path style=" stroke:none;fill-rule:nonzero;fill:rgb(91.372549%,11.764706%,38.823529%);fill-opacity:1;" d="M 77.460938 13.804688 C 77.375 13.828125 77.046875 13.953125 76.734375 14.078125 L 76.15625 14.320312 L 76.1875 18.976562 C 76.210938 23.085938 76.226562 23.664062 76.34375 23.921875 C 76.59375 24.46875 77.539062 24.8125 78.28125 24.609375 C 78.890625 24.445312 79.046875 24.210938 79.226562 23.132812 C 79.375 22.25 79.445312 19.664062 79.367188 17.65625 C 79.28125 15.375 79.195312 14.507812 79.015625 14.242188 C 78.78125 13.875 78.03125 13.664062 77.460938 13.804688 Z M 77.460938 13.804688 "/>
<path style=" stroke:none;fill-rule:nonzero;fill:rgb(91.372549%,11.764706%,38.823529%);fill-opacity:1;" d="M 89.882812 13.4375 C 89.429688 13.515625 89.117188 13.804688 88.992188 14.273438 C 88.945312 14.4375 88.90625 15.109375 88.90625 15.757812 L 88.90625 16.953125 L 91.96875 16.953125 L 91.9375 15.640625 C 91.90625 14.179688 91.804688 13.828125 91.367188 13.585938 C 91.070312 13.421875 90.390625 13.351562 89.882812 13.4375 Z M 89.882812 13.4375 "/>
<path style=" stroke:none;fill-rule:nonzero;fill:rgb(91.372549%,11.764706%,38.823529%);fill-opacity:1;" d="M 0.429688 4.585938 C 0.257812 4.601562 0.0859375 4.648438 0.0546875 4.679688 C 0.0234375 4.710938 0.40625 5.773438 0.90625 7.039062 C 1.882812 9.507812 3.453125 13.585938 4.265625 15.75 L 4.765625 17.085938 L 4.765625 25.9375 L 8.570312 25.9375 L 8.617188 23.34375 C 8.648438 21.921875 8.671875 19.890625 8.671875 18.84375 L 8.671875 16.929688 L 9.773438 14.148438 C 11.882812 8.835938 13.359375 4.953125 13.359375 4.726562 C 13.359375 4.625 13.117188 4.609375 11.445312 4.609375 C 9.710938 4.609375 9.53125 4.625 9.46875 4.742188 C 9.429688 4.820312 8.84375 6.585938 8.164062 8.671875 C 7.492188 10.757812 6.890625 12.546875 6.835938 12.648438 C 6.742188 12.835938 6.734375 12.828125 6.570312 12.375 C 6.21875 11.4375 5.5 9.351562 4.726562 6.992188 L 3.929688 4.570312 L 2.335938 4.5625 C 1.460938 4.5625 0.601562 4.570312 0.429688 4.585938 Z M 0.429688 4.585938 "/>
<path style=" stroke:none;fill-rule:nonzero;fill:rgb(91.372549%,11.764706%,38.823529%);fill-opacity:1;" d="M 17.507812 10.15625 C 15.578125 10.5625 14.257812 11.757812 13.945312 13.375 C 13.554688 15.460938 13.507812 21.109375 13.875 22.65625 C 14.296875 24.460938 15.710938 25.796875 17.578125 26.140625 C 18.59375 26.335938 20.078125 26.257812 20.898438 25.984375 C 22.4375 25.460938 23.5 24.453125 23.90625 23.140625 C 24.132812 22.40625 24.25 20.0625 24.1875 17.445312 C 24.132812 15.039062 24.039062 13.828125 23.859375 13.203125 C 23.445312 11.742188 22.335938 10.695312 20.742188 10.265625 C 20.195312 10.117188 18.046875 10.046875 17.507812 10.15625 Z M 19.921875 12.882812 C 20.46875 13.273438 20.507812 13.664062 20.507812 18.609375 C 20.507812 22.820312 20.507812 22.882812 20.34375 23.101562 C 20.101562 23.429688 19.367188 23.765625 18.90625 23.765625 C 18.46875 23.757812 18.328125 23.695312 17.742188 23.257812 L 17.328125 22.9375 L 17.367188 18.359375 C 17.390625 15.304688 17.429688 13.695312 17.492188 13.507812 C 17.609375 13.125 17.953125 12.820312 18.367188 12.734375 C 18.859375 12.632812 19.6875 12.710938 19.921875 12.882812 Z M 19.921875 12.882812 "/>
<path style=" stroke:none;fill-rule:nonzero;fill:rgb(91.372549%,11.764706%,38.823529%);fill-opacity:1;" d="M 27.867188 14.9375 C 27.898438 20.085938 28 24.015625 28.125 24.765625 C 28.171875 25.046875 28.289062 25.429688 28.382812 25.625 C 28.539062 25.921875 28.648438 26.023438 29.15625 26.28125 C 29.695312 26.554688 29.804688 26.585938 30.367188 26.585938 C 31.492188 26.585938 32.65625 26.09375 34.078125 25.023438 C 34.320312 24.835938 34.539062 24.6875 34.5625 24.6875 C 34.585938 24.6875 34.609375 25.09375 34.609375 25.585938 L 34.609375 26.484375 L 36.429688 26.46875 L 38.242188 26.445312 L 38.265625 18.414062 L 38.28125 10.390625 L 34.609375 10.390625 L 34.609375 22.710938 L 34.007812 23.195312 C 33.257812 23.804688 32.71875 24.085938 32.289062 24.09375 C 31.875 24.101562 31.71875 23.953125 31.625 23.460938 C 31.585938 23.257812 31.539062 20.226562 31.507812 16.734375 L 31.460938 10.390625 L 27.835938 10.390625 Z M 27.867188 14.9375 "/>
</g>
</svg>
